<ttFont>
    <TTGlyph name=".notdef" xMin="193" yMin="0" xMax="1034" yMax="1462">
      <contour>
        <pt x="193" y="1462" on="1"/>
        <pt x="1034" y="1462" on="1"/>
        <pt x="1034" y="0" on="1"/>
        <pt x="193" y="0" on="1"/>
      </contour>
      <contour>
        <pt x="297" y="104" on="1"/>
        <pt x="930" y="104" on="1"/>
        <pt x="930" y="1358" on="1"/>
        <pt x="297" y="1358" on="1"/>
      </contour>
    </TTGlyph>
    <TTGlyph name="afii301" xMin="-299" yMin="-338" xMax="299" yMax="1613">
      <contour>
        <pt x="74" y="1323" on="1"/>
        <pt x="299" y="1103" on="1"/>
        <pt x="224" y="1030" on="1"/>
        <pt x="54" y="1199" on="1"/>
        <pt x="54" y="-338" on="1"/>
        <pt x="-54" y="-338" on="1"/>
        <pt x="-54" y="1199" on="1"/>
        <pt x="-224" y="1030" on="1"/>
        <pt x="-299" y="1103" on="1"/>
        <pt x="-74" y="1323" on="1"/>
        <pt x="-299" y="1540" on="1"/>
        <pt x="-224" y="1613" on="1"/>
        <pt x="0" y="1393" on="1"/>
        <pt x="224" y="1613" on="1"/>
        <pt x="299" y="1539" on="1"/>
      </contour>
    </TTGlyph>
    <TTGlyph name="afii61664" xMin="-54" yMin="-339" xMax="54" yMax="1613">
      <contour>
        <pt x="-54" y="-339" on="1"/>
        <pt x="-54" y="1613" on="1"/>
        <pt x="54" y="1613" on="1"/>
        <pt x="54" y="-339" on="1"/>
      </contour>
    </TTGlyph>
    <TTGlyph name="asciicircum" xMin="81" yMin="549" xMax="1089" yMax="1473">
      <contour>
        <pt x="81" y="549" on="1"/>
        <pt x="540" y="1473" on="1"/>
        <pt x="642" y="1473" on="1"/>
        <pt x="1089" y="549" on="1"/>
        <pt x="928" y="549" on="1"/>
        <pt x="591" y="1284" on="1"/>
        <pt x="242" y="549" on="1"/>
      </contour>
    </TTGlyph>
    <TTGlyph name="asciitilde" xMin="103" yMin="588" xMax="1068" yMax="856">
      <contour>
        <pt x="552" y="653" on="1"/>
        <pt x="515" y="669" on="0"/>
        <pt x="455" y="691" on="0"/>
        <pt x="404" y="704" on="0"/>
        <pt x="359" y="709" on="0"/>
        <pt x="337" y="709" on="1"/>
        <pt x="308" y="709" on="0"/>
        <pt x="247" y="690" on="0"/>
        <pt x="186" y="657" on="0"/>
        <pt x="128" y="613" on="0"/>
        <pt x="103" y="588" on="1"/>
        <pt x="103" y="748" on="1"/>
        <pt x="203" y="856" on="0"/>
        <pt x="349" y="856" on="1"/>
        <pt x="378" y="856" on="0"/>
        <pt x="435" y="851" on="0"/>
        <pt x="498" y="836" on="0"/>
        <pt x="572" y="811" on="0"/>
        <pt x="619" y="791" on="1"/>
        <pt x="656" y="775" on="0"/>
        <pt x="716" y="753" on="0"/>
        <pt x="767" y="740" on="0"/>
        <pt x="811" y="735" on="0"/>
        <pt x="832" y="735" on="1"/>
        <pt x="862" y="735" on="0"/>
        <pt x="925" y="754" on="0"/>
        <pt x="986" y="786" on="0"/>
        <pt x="1043" y="830" on="0"/>
        <pt x="1068" y="856" on="1"/>
        <pt x="1068" y="698" on="1"/>
        <pt x="1018" y="644" on="0"/>
        <pt x="897" y="588" on="0"/>
        <pt x="822" y="588" on="1"/>
        <pt x="793" y="588" on="0"/>
        <pt x="736" y="593" on="0"/>
        <pt x="672" y="608" on="0"/>
        <pt x="598" y="633" on="0"/>
      </contour>
    </TTGlyph>
    <TTGlyph name="asterisk" xMin="82" yMin="713" xMax="1044" yMax="1726">
      <contour>
        <pt x="664" y="1638" on="1"/>
        <pt x="621" y="1245" on="1"/>
        <pt x="1018" y="1356" on="1"/>
        <pt x="1044" y="1163" on="1"/>
        <pt x="666" y="1135" on="1"/>
        <pt x="911" y="809" on="1"/>
        <pt x="733" y="713" on="1"/>
        <pt x="557" y="1071" on="1"/>
        <pt x="399" y="713" on="1"/>
        <pt x="215" y="809" on="1"/>
        <pt x="457" y="1135" on="1"/>
        <pt x="82" y="1163" on="1"/>
        <pt x="111" y="1356" on="1"/>
        <pt x="502" y="1245" on="1"/>
        <pt x="459" y="1638" on="1"/>
      </contour>
      <contour>
        <pt x="751" y="1463" on="1"/>
      </contour>
      <contour>
        <pt x="741" y="1726" on="1"/>
      </contour>
    </TTGlyph>
    <TTGlyph name="backslash" xMin="41" yMin="-658" xMax="763" yMax="1726">
      <contour>
        <pt x="219" y="1638" on="1"/>
        <pt x="763" y="-500" on="1"/>
        <pt x="585" y="-500" on="1"/>
        <pt x="41" y="1638" on="1"/>
      </contour>
      <contour>
        <pt x="451" y="1463" on="1"/>
      </contour>
      <contour>
        <pt x="441" y="1726" on="1"/>
      </contour>
      <contour>
        <pt x="390" y="0" on="1"/>
      </contour>
      <contour>
        <pt x="412" y="-658" on="1"/>
      </contour>
    </TTGlyph>
    <TTGlyph name="bar" xMin="390" yMin="-658" xMax="639" yMax="1726">
      <contour>
        <pt x="489" y="1639" on="1"/>
        <pt x="639" y="1639" on="1"/>
        <pt x="639" y="-500" on="1"/>
        <pt x="489" y="-500" on="1"/>
      </contour>
      <contour>
        <pt x="451" y="1463" on="1"/>
      </contour>
      <contour>
        <pt x="441" y="1726" on="1"/>
      </contour>
      <contour>
        <pt x="390" y="0" on="1"/>
      </contour>
      <contour>
        <pt x="412" y="-658" on="1"/>
      </contour>
    </TTGlyph>
    <TTGlyph name="braceleft" xMin="62" yMin="-658" xMax="675" yMax="1726">
      <contour>
        <pt x="501" y="882" on="1"/>
        <pt x="501" y="751" on="0"/>
        <pt x="382" y="600" on="0"/>
        <pt x="267" y="575" on="1"/>
        <pt x="267" y="563" on="1"/>
        <pt x="382" y="538" on="0"/>
        <pt x="501" y="386" on="0"/>
        <pt x="501" y="256" on="1"/>
        <pt x="501" y="-155" on="1"/>
        <pt x="501" y="-215" on="0"/>
        <pt x="525" y="-290" on="0"/>
        <pt x="570" y="-334" on="0"/>
        <pt x="635" y="-350" on="0"/>
        <pt x="675" y="-351" on="1"/>
        <pt x="675" y="-500" on="1"/>
        <pt x="598" y="-499" on="0"/>
        <pt x="467" y="-459" on="0"/>
        <pt x="372" y="-372" on="0"/>
        <pt x="318" y="-239" on="0"/>
        <pt x="318" y="-144" on="1"/>
        <pt x="318" y="261" on="1"/>
        <pt x="318" y="324" on="0"/>
        <pt x="285" y="412" on="0"/>
        <pt x="220" y="467" on="0"/>
        <pt x="124" y="491" on="0"/>
        <pt x="62" y="491" on="1"/>
        <pt x="62" y="646" on="1"/>
        <pt x="187" y="646" on="0"/>
        <pt x="318" y="751" on="0"/>
        <pt x="318" y="876" on="1"/>
        <pt x="318" y="1282" on="1"/>
        <pt x="318" y="1377" on="0"/>
        <pt x="372" y="1510" on="0"/>
        <pt x="467" y="1597" on="0"/>
        <pt x="598" y="1637" on="0"/>
        <pt x="675" y="1638" on="1"/>
        <pt x="675" y="1488" on="1"/>
        <pt x="635" y="1487" on="0"/>
        <pt x="570" y="1471" on="0"/>
        <pt x="525" y="1427" on="0"/>
        <pt x="501" y="1352" on="0"/>
        <pt x="501" y="1292" on="1"/>
      </contour>
      <contour>
        <pt x="251" y="1463" on="1"/>
      </contour>
      <contour>
        <pt x="241" y="1726" on="1"/>
      </contour>
      <contour>
        <pt x="190" y="0" on="1"/>
      </contour>
      <contour>
        <pt x="212" y="-658" on="1"/>
      </contour>
    </TTGlyph>
    <TTGlyph name="braceright" xMin="82" yMin="-658" xMax="695" yMax="1726">
      <contour>
        <pt x="256" y="256" on="1"/>
        <pt x="256" y="387" on="0"/>
        <pt x="375" y="538" on="0"/>
        <pt x="490" y="563" on="1"/>
        <pt x="490" y="575" on="1"/>
        <pt x="375" y="600" on="0"/>
        <pt x="256" y="752" on="0"/>
        <pt x="256" y="882" on="1"/>
        <pt x="256" y="1293" on="1"/>
        <pt x="256" y="1353" on="0"/>
        <pt x="232" y="1428" on="0"/>
        <pt x="187" y="1472" on="0"/>
        <pt x="122" y="1488" on="0"/>
        <pt x="82" y="1489" on="1"/>
        <pt x="82" y="1638" on="1"/>
        <pt x="159" y="1637" on="0"/>
        <pt x="290" y="1597" on="0"/>
        <pt x="385" y="1510" on="0"/>
        <pt x="439" y="1377" on="0"/>
        <pt x="439" y="1282" on="1"/>
        <pt x="439" y="877" on="1"/>
        <pt x="439" y="814" on="0"/>
        <pt x="472" y="726" on="0"/>
        <pt x="537" y="671" on="0"/>
        <pt x="633" y="647" on="0"/>
        <pt x="695" y="647" on="1"/>
        <pt x="695" y="492" on="1"/>
        <pt x="570" y="492" on="0"/>
        <pt x="439" y="387" on="0"/>
        <pt x="439" y="262" on="1"/>
        <pt x="439" y="-144" on="1"/>
        <pt x="439" y="-239" on="0"/>
        <pt x="385" y="-372" on="0"/>
        <pt x="290" y="-459" on="0"/>
        <pt x="159" y="-499" on="0"/>
        <pt x="82" y="-500" on="1"/>
        <pt x="82" y="-350" on="1"/>
        <pt x="122" y="-349" on="0"/>
        <pt x="187" y="-333" on="0"/>
        <pt x="232" y="-289" on="0"/>
        <pt x="256" y="-214" on="0"/>
        <pt x="256" y="-154" on="1"/>
      </contour>
      <contour>
        <pt x="451" y="1463" on="1"/>
      </contour>
      <contour>
        <pt x="441" y="1726" on="1"/>
      </contour>
      <contour>
        <pt x="490" y="0" on="1"/>
      </contour>
      <contour>
        <pt x="512" y="-658" on="1"/>
      </contour>
    </TTGlyph>
    <TTGlyph name="bracketleft" xMin="164" yMin="-658" xMax="569" yMax="1726">
      <contour>
        <pt x="569" y="-500" on="1"/>
        <pt x="164" y="-500" on="1"/>
        <pt x="164" y="1638" on="1"/>
        <pt x="569" y="1638" on="1"/>
        <pt x="569" y="1499" on="1"/>
        <pt x="346" y="1499" on="1"/>
        <pt x="346" y="-360" on="1"/>
        <pt x="569" y="-360" on="1"/>
      </contour>
      <contour>
        <pt x="451" y="1463" on="1"/>
      </contour>
      <contour>
        <pt x="441" y="1726" on="1"/>
      </contour>
      <contour>
        <pt x="390" y="0" on="1"/>
      </contour>
      <contour>
        <pt x="412" y="-658" on="1"/>
      </contour>
    </TTGlyph>
    <TTGlyph name="bracketright" xMin="81" yMin="-658" xMax="487" yMax="1726">
      <contour>
        <pt x="81" y="-360" on="1"/>
        <pt x="304" y="-360" on="1"/>
        <pt x="304" y="1499" on="1"/>
        <pt x="81" y="1499" on="1"/>
        <pt x="81" y="1638" on="1"/>
        <pt x="487" y="1638" on="1"/>
        <pt x="487" y="-500" on="1"/>
        <pt x="81" y="-500" on="1"/>
      </contour>
      <contour>
        <pt x="251" y="1463" on="1"/>
      </contour>
      <contour>
        <pt x="241" y="1726" on="1"/>
      </contour>
      <contour>
        <pt x="190" y="0" on="1"/>
      </contour>
      <contour>
        <pt x="212" y="-658" on="1"/>
      </contour>
    </TTGlyph>
    <TTGlyph name="colon" xMin="94" yMin="-29" xMax="401" yMax="1134">
      <contour>
        <pt x="147" y="111" on="1"/>
        <pt x="147" y="149" on="0"/>
        <pt x="167" y="202" on="0"/>
        <pt x="201" y="235" on="0"/>
        <pt x="247" y="250" on="0"/>
        <pt x="274" y="250" on="1"/>
        <pt x="300" y="250" on="0"/>
        <pt x="347" y="235" on="0"/>
        <pt x="381" y="202" on="0"/>
        <pt x="401" y="149" on="0"/>
        <pt x="401" y="111" on="1"/>
        <pt x="401" y="74" on="0"/>
        <pt x="381" y="21" on="0"/>
        <pt x="347" y="-13" on="0"/>
        <pt x="300" y="-29" on="0"/>
        <pt x="274" y="-29" on="1"/>
        <pt x="247" y="-29" on="0"/>
        <pt x="201" y="-13" on="0"/>
        <pt x="167" y="21" on="0"/>
        <pt x="147" y="74" on="0"/>
      </contour>
      <contour>
        <pt x="147" y="987" on="1"/>
        <pt x="147" y="1026" on="0"/>
        <pt x="167" y="1079" on="0"/>
        <pt x="201" y="1112" on="0"/>
        <pt x="247" y="1126" on="0"/>
        <pt x="274" y="1126" on="1"/>
        <pt x="300" y="1126" on="0"/>
        <pt x="347" y="1112" on="0"/>
        <pt x="381" y="1079" on="0"/>
        <pt x="401" y="1026" on="0"/>
        <pt x="401" y="987" on="1"/>
        <pt x="401" y="950" on="0"/>
        <pt x="381" y="898" on="0"/>
        <pt x="347" y="864" on="0"/>
        <pt x="300" y="848" on="0"/>
        <pt x="274" y="848" on="1"/>
        <pt x="247" y="848" on="0"/>
        <pt x="201" y="864" on="0"/>
        <pt x="167" y="898" on="0"/>
        <pt x="147" y="950" on="0"/>
      </contour>
      <contour>
        <pt x="94" y="1134" on="1"/>
      </contour>
    </TTGlyph>
    <TTGlyph name="comma" xMin="63" yMin="-264" xMax="377" yMax="238">
      <contour>
        <pt x="362" y="238" on="1"/>
        <pt x="377" y="215" on="1"/>
        <pt x="363" y="161" on="0"/>
        <pt x="324" y="39" on="0"/>
        <pt x="277" y="-85" on="0"/>
        <pt x="226" y="-208" on="0"/>
        <pt x="201" y="-264" on="1"/>
        <pt x="63" y="-264" on="1"/>
        <pt x="78" y="-203" on="0"/>
        <pt x="107" y="-71" on="0"/>
        <pt x="134" y="60" on="0"/>
        <pt x="156" y="185" on="0"/>
        <pt x="164" y="238" on="1"/>
      </contour>
      <contour>
        <pt x="94" y="0" on="1"/>
      </contour>
    </TTGlyph>
    <TTGlyph name="divide" xMin="104" yMin="0" xMax="1068" yMax="1463">
      <contour>
        <pt x="585" y="1194" on="1"/>
        <pt x="639" y="1194" on="0"/>
        <pt x="698" y="1132" on="0"/>
        <pt x="698" y="1071" on="1"/>
        <pt x="697" y="1010" on="0"/>
        <pt x="636" y="946" on="0"/>
        <pt x="585" y="946" on="1"/>
        <pt x="532" y="946" on="0"/>
        <pt x="470" y="1011" on="0"/>
        <pt x="470" y="1071" on="1"/>
        <pt x="470" y="1194" on="0"/>
      </contour>
      <contour>
        <pt x="104" y="649" on="1"/>
        <pt x="104" y="795" on="1"/>
        <pt x="1068" y="795" on="1"/>
        <pt x="1068" y="649" on="1"/>
      </contour>
      <contour>
        <pt x="585" y="496" on="1"/>
        <pt x="639" y="496" on="0"/>
        <pt x="698" y="434" on="0"/>
        <pt x="698" y="373" on="1"/>
        <pt x="698" y="313" on="0"/>
        <pt x="637" y="248" on="0"/>
        <pt x="585" y="248" on="1"/>
        <pt x="530" y="248" on="0"/>
        <pt x="470" y="313" on="0"/>
        <pt x="470" y="373" on="1"/>
        <pt x="470" y="496" on="0"/>
      </contour>
      <contour>
        <pt x="580" y="0" on="1"/>
      </contour>
      <contour>
        <pt x="591" y="1463" on="1"/>
      </contour>
    </TTGlyph>
    <TTGlyph name="eight" xMin="102" yMin="-20" xMax="1070" yMax="1483">
      <contour>
        <pt x="745" y="774" on="1"/>
        <pt x="919" y="689" on="0"/>
        <pt x="1070" y="501" on="0"/>
        <pt x="1070" y="379" on="1"/>
        <pt x="1070" y="197" on="0"/>
        <pt x="811" y="-20" on="0"/>
        <pt x="591" y="-20" on="1"/>
        <pt x="354" y="-20" on="0"/>
        <pt x="102" y="185" on="0"/>
        <pt x="102" y="373" on="1"/>
        <pt x="102" y="499" on="0"/>
        <pt x="253" y="694" on="0"/>
        <pt x="405" y="764" on="1"/>
        <pt x="272" y="839" on="0"/>
        <pt x="148" y="1020" on="0"/>
        <pt x="149" y="1135" on="1"/>
        <pt x="148" y="1294" on="0"/>
        <pt x="389" y="1483" on="0"/>
        <pt x="585" y="1483" on="1"/>
        <pt x="785" y="1483" on="0"/>
        <pt x="1023" y="1295" on="0"/>
        <pt x="1023" y="1133" on="1"/>
        <pt x="1023" y="1023" on="0"/>
        <pt x="888" y="847" on="0"/>
      </contour>
      <contour>
        <pt x="593" y="844" on="1"/>
        <pt x="727" y="899" on="0"/>
        <pt x="845" y="1034" on="0"/>
        <pt x="845" y="1127" on="1"/>
        <pt x="845" y="1225" on="0"/>
        <pt x="704" y="1338" on="0"/>
        <pt x="583" y="1338" on="1"/>
        <pt x="465" y="1338" on="0"/>
        <pt x="325" y="1224" on="0"/>
        <pt x="325" y="1127" on="1"/>
        <pt x="324" y="1038" on="0"/>
        <pt x="438" y="909" on="0"/>
      </contour>
      <contour>
        <pt x="554" y="690" on="1"/>
        <pt x="409" y="628" on="0"/>
        <pt x="278" y="476" on="0"/>
        <pt x="278" y="371" on="1"/>
        <pt x="278" y="257" on="0"/>
        <pt x="439" y="123" on="0"/>
        <pt x="587" y="123" on="1"/>
        <pt x="730" y="123" on="0"/>
        <pt x="894" y="260" on="0"/>
        <pt x="894" y="377" on="1"/>
        <pt x="894" y="471" on="0"/>
        <pt x="749" y="615" on="0"/>
        <pt x="587" y="678" on="1"/>
      </contour>
    </TTGlyph>
    <TTGlyph name="ellipsis" xMin="147" yMin="-29" xMax="1499" yMax="250">
      <contour>
        <pt x="147" y="111" on="1"/>
        <pt x="147" y="149" on="0"/>
        <pt x="167" y="202" on="0"/>
        <pt x="201" y="235" on="0"/>
        <pt x="247" y="250" on="0"/>
        <pt x="274" y="250" on="1"/>
        <pt x="300" y="250" on="0"/>
        <pt x="347" y="235" on="0"/>
        <pt x="381" y="202" on="0"/>
        <pt x="401" y="149" on="0"/>
        <pt x="401" y="111" on="1"/>
        <pt x="401" y="74" on="0"/>
        <pt x="381" y="21" on="0"/>
        <pt x="347" y="-13" on="0"/>
        <pt x="300" y="-29" on="0"/>
        <pt x="274" y="-29" on="1"/>
        <pt x="247" y="-29" on="0"/>
        <pt x="201" y="-13" on="0"/>
        <pt x="167" y="21" on="0"/>
        <pt x="147" y="74" on="0"/>
      </contour>
      <contour>
        <pt x="696" y="111" on="1"/>
        <pt x="696" y="149" on="0"/>
        <pt x="716" y="202" on="0"/>
        <pt x="750" y="235" on="0"/>
        <pt x="796" y="250" on="0"/>
        <pt x="823" y="250" on="1"/>
        <pt x="849" y="250" on="0"/>
        <pt x="896" y="235" on="0"/>
        <pt x="930" y="202" on="0"/>
        <pt x="950" y="149" on="0"/>
        <pt x="950" y="111" on="1"/>
        <pt x="950" y="74" on="0"/>
        <pt x="930" y="21" on="0"/>
        <pt x="896" y="-13" on="0"/>
        <pt x="849" y="-29" on="0"/>
        <pt x="823" y="-29" on="1"/>
        <pt x="796" y="-29" on="0"/>
        <pt x="750" y="-13" on="0"/>
        <pt x="716" y="21" on="0"/>
        <pt x="696" y="74" on="0"/>
      </contour>
      <contour>
        <pt x="1245" y="111" on="1"/>
        <pt x="1245" y="149" on="0"/>
        <pt x="1264" y="202" on="0"/>
        <pt x="1299" y="235" on="0"/>
        <pt x="1345" y="250" on="0"/>
        <pt x="1372" y="250" on="1"/>
        <pt x="1398" y="250" on="0"/>
        <pt x="1445" y="235" on="0"/>
        <pt x="1479" y="202" on="0"/>
        <pt x="1499" y="149" on="0"/>
        <pt x="1499" y="111" on="1"/>
        <pt x="1499" y="74" on="0"/>
        <pt x="1479" y="21" on="0"/>
        <pt x="1445" y="-13" on="0"/>
        <pt x="1398" y="-29" on="0"/>
        <pt x="1372" y="-29" on="1"/>
        <pt x="1318" y="-29" on="0"/>
        <pt x="1245" y="37" on="0"/>
      </contour>
    </TTGlyph>
    <TTGlyph name="emdash" xMin="82" yMin="0" xMax="1966" yMax="1134">
      <contour>
        <pt x="82" y="465" on="1"/>
        <pt x="82" y="633" on="1"/>
        <pt x="1966" y="633" on="1"/>
        <pt x="1966" y="465" on="1"/>
      </contour>
      <contour>
        <pt x="324" y="1134" on="1"/>
      </contour>
      <contour>
        <pt x="324" y="0" on="1"/>
      </contour>
    </TTGlyph>
    <TTGlyph name="endash" xMin="82" yMin="0" xMax="942" yMax="1134">
      <contour>
        <pt x="82" y="465" on="1"/>
        <pt x="82" y="633" on="1"/>
        <pt x="942" y="633" on="1"/>
        <pt x="942" y="465" on="1"/>
      </contour>
      <contour>
        <pt x="324" y="1134" on="1"/>
      </contour>
      <contour>
        <pt x="324" y="0" on="1"/>
      </contour>
    </TTGlyph>
    <TTGlyph name="equal" xMin="116" yMin="0" xMax="1054" yMax="1463">
      <contour>
        <pt x="116" y="852" on="1"/>
        <pt x="116" y="997" on="1"/>
        <pt x="1054" y="997" on="1"/>
        <pt x="1054" y="852" on="1"/>
      </contour>
      <contour>
        <pt x="116" y="444" on="1"/>
        <pt x="116" y="590" on="1"/>
        <pt x="1054" y="590" on="1"/>
        <pt x="1054" y="444" on="1"/>
      </contour>
      <contour>
        <pt x="580" y="0" on="1"/>
      </contour>
      <contour>
        <pt x="591" y="1463" on="1"/>
      </contour>
    </TTGlyph>
    <TTGlyph name="exclam" xMin="148" yMin="-28" xMax="402" yMax="1463">
      <contour>
        <pt x="334" y="412" on="1"/>
        <pt x="217" y="412" on="1"/>
        <pt x="166" y="1463" on="1"/>
        <pt x="385" y="1463" on="1"/>
      </contour>
      <contour>
        <pt x="275" y="248" on="1"/>
        <pt x="335" y="248" on="0"/>
        <pt x="401" y="177" on="0"/>
        <pt x="402" y="111" on="1"/>
        <pt x="402" y="43" on="0"/>
        <pt x="332" y="-28" on="0"/>
        <pt x="275" y="-28" on="1"/>
        <pt x="216" y="-28" on="0"/>
        <pt x="148" y="42" on="0"/>
        <pt x="148" y="111" on="1"/>
        <pt x="148" y="177" on="0"/>
        <pt x="213" y="248" on="0"/>
      </contour>
    </TTGlyph>
    <TTGlyph name="five" xMin="130" yMin="-20" xMax="1056" yMax="1463">
      <contour>
        <pt x="130" y="60" on="1"/>
        <pt x="130" y="230" on="1"/>
        <pt x="202" y="186" on="0"/>
        <pt x="413" y="133" on="0"/>
        <pt x="511" y="133" on="1"/>
        <pt x="683" y="133" on="0"/>
        <pt x="872" y="296" on="0"/>
        <pt x="872" y="449" on="1"/>
        <pt x="872" y="597" on="0"/>
        <pt x="688" y="746" on="0"/>
        <pt x="505" y="746" on="1"/>
        <pt x="397" y="746" on="0"/>
        <pt x="255" y="715" on="1"/>
        <pt x="165" y="772" on="1"/>
        <pt x="220" y="1463" on="1"/>
        <pt x="954" y="1463" on="1"/>
        <pt x="954" y="1299" on="1"/>
        <pt x="374" y="1299" on="1"/>
        <pt x="339" y="875" on="1"/>
        <pt x="464" y="897" on="0"/>
        <pt x="564" y="897" on="1"/>
        <pt x="792" y="897" on="0"/>
        <pt x="1056" y="667" on="0"/>
        <pt x="1056" y="467" on="1"/>
        <pt x="1056" y="239" on="0"/>
        <pt x="769" y="-20" on="0"/>
        <pt x="509" y="-20" on="1"/>
        <pt x="391" y="-20" on="0"/>
        <pt x="194" y="21" on="0"/>
      </contour>
    </TTGlyph>
    <TTGlyph name="four" xMin="44" yMin="0" xMax="1132" yMax="1471">
      <contour>
        <pt x="1132" y="332" on="1"/>
        <pt x="919" y="332" on="1"/>
        <pt x="919" y="0" on="1"/>
        <pt x="745" y="0" on="1"/>
        <pt x="745" y="332" on="1"/>
        <pt x="44" y="332" on="1"/>
        <pt x="44" y="486" on="1"/>
        <pt x="732" y="1471" on="1"/>
        <pt x="919" y="1471" on="1"/>
        <pt x="919" y="494" on="1"/>
        <pt x="1132" y="494" on="1"/>
      </contour>
      <contour>
        <pt x="745" y="494" on="1"/>
        <pt x="745" y="955" on="1"/>
        <pt x="745" y="1077" on="0"/>
        <pt x="755" y="1278" on="1"/>
        <pt x="747" y="1278" on="1"/>
        <pt x="712" y="1201" on="0"/>
        <pt x="659" y="1118" on="1"/>
        <pt x="220" y="494" on="1"/>
      </contour>
    </TTGlyph>
    <TTGlyph name="glyph00106" xMin="65" yMin="-24" xMax="2269" yMax="1675">
      <component glyphName="uni0D15" x="0" y="0" flags="0x204"/>
      <component glyphName="uni0D4D" x="2125" y="0" flags="0x4"/>
    </TTGlyph>
    <TTGlyph name="glyph00107" xMin="80" yMin="-24" xMax="2191" yMax="1675">
      <component glyphName="uni0D16" x="0" y="0" flags="0x204"/>
      <component glyphName="uni0D4D" x="2047" y="0" flags="0x4"/>
    </TTGlyph>
    <TTGlyph name="glyph00108" xMin="80" yMin="-23" xMax="1981" yMax="1675">
      <component glyphName="uni0D17" x="0" y="0" flags="0x204"/>
      <component glyphName="uni0D4D" x="1837" y="0" flags="0x4"/>
    </TTGlyph>
    <TTGlyph name="glyph00109" xMin="65" yMin="0" xMax="2858" yMax="1675">
      <component glyphName="uni0D18" x="0" y="0" flags="0x204"/>
      <component glyphName="uni0D4D" x="2714" y="0" flags="0x4"/>
    </TTGlyph>
    <TTGlyph name="glyph00110" xMin="85" yMin="-24" xMax="2319" yMax="1675">
      <component glyphName="uni0D19" x="0" y="0" flags="0x204"/>
      <component glyphName="uni0D4D" x="2175" y="0" flags="0x4"/>
    </TTGlyph>
    <TTGlyph name="glyph00111" xMin="35" yMin="0" xMax="1995" yMax="1675">
      <component glyphName="uni0D1A" x="0" y="0" flags="0x204"/>
      <component glyphName="uni0D4D" x="1851" y="0" flags="0x4"/>
    </TTGlyph>
    <TTGlyph name="glyph00112" xMin="35" yMin="-24" xMax="2831" yMax="1675">
      <component glyphName="uni0D1B" x="0" y="0" flags="0x204"/>
      <component glyphName="uni0D4D" x="2687" y="0" flags="0x4"/>
    </TTGlyph>
    <TTGlyph name="glyph00113" xMin="75" yMin="-24" xMax="2067" yMax="1675">
      <component glyphName="uni0D1C" x="0" y="0" flags="0x204"/>
      <component glyphName="uni0D4D" x="1923" y="0" flags="0x4"/>
    </TTGlyph>
    <TTGlyph name="glyph00114" xMin="80" yMin="-24" xMax="3533" yMax="1675">
      <component glyphName="uni0D1D" x="0" y="0" flags="0x204"/>
      <component glyphName="uni0D4D" x="3389" y="0" flags="0x4"/>
    </TTGlyph>
    <TTGlyph name="glyph00115" xMin="85" yMin="-24" xMax="3105" yMax="1675">
      <component glyphName="uni0D1E" x="0" y="0" flags="0x204"/>
      <component glyphName="uni0D4D" x="2961" y="0" flags="0x4"/>
    </TTGlyph>
    <TTGlyph name="glyph00116" xMin="41" yMin="-24" xMax="1296" yMax="1675">
      <component glyphName="uni0D1F" x="0" y="0" flags="0x204"/>
      <component glyphName="uni0D4D" x="1152" y="0" flags="0x4"/>
    </TTGlyph>
    <TTGlyph name="glyph00117" xMin="80" yMin="-24" xMax="1486" yMax="1675">
      <component glyphName="uni0D20" x="0" y="0" flags="0x204"/>
      <component glyphName="uni0D4D" x="1342" y="0" flags="0x4"/>
    </TTGlyph>
    <TTGlyph name="glyph00118" xMin="80" yMin="-24" xMax="2649" yMax="1675">
      <component glyphName="uni0D21" x="0" y="0" flags="0x204"/>
      <component glyphName="uni0D4D" x="2505" y="0" flags="0x4"/>
    </TTGlyph>
    <TTGlyph name="glyph00119" xMin="80" yMin="-24" xMax="2876" yMax="1675">
      <component glyphName="uni0D22" x="0" y="0" flags="0x204"/>
      <component glyphName="uni0D4D" x="2732" y="0" flags="0x4"/>
    </TTGlyph>
    <TTGlyph name="glyph00120" xMin="85" yMin="-24" xMax="2946" yMax="1675">
      <component glyphName="uni0D23" x="0" y="0" flags="0x204"/>
      <component glyphName="uni0D4D" x="2802" y="0" flags="0x4"/>
    </TTGlyph>
    <TTGlyph name="glyph00121" xMin="80" yMin="-24" xMax="2221" yMax="1675">
      <component glyphName="uni0D24" x="0" y="0" flags="0x204"/>
      <component glyphName="uni0D4D" x="2077" y="0" flags="0x4"/>
    </TTGlyph>
    <TTGlyph name="glyph00122" xMin="145" yMin="0" xMax="1979" yMax="1675">
      <component glyphName="uni0D25" x="0" y="0" flags="0x204"/>
      <component glyphName="uni0D4D" x="1835" y="0" flags="0x4"/>
    </TTGlyph>
    <TTGlyph name="glyph00123" xMin="110" yMin="-23" xMax="1454" yMax="1675">
      <component glyphName="uni0D26" x="0" y="0" flags="0x204"/>
      <component glyphName="uni0D4D" x="1310" y="0" flags="0x4"/>
    </TTGlyph>
    <TTGlyph name="glyph00124" xMin="80" yMin="-24" xMax="2009" yMax="1675">
      <component glyphName="uni0D27" x="0" y="0" flags="0x204"/>
      <component glyphName="uni0D4D" x="1865" y="0" flags="0x4"/>
    </TTGlyph>
    <TTGlyph name="glyph00125" xMin="80" yMin="-17" xMax="2009" yMax="1675">
      <component glyphName="uni0D28" x="0" y="0" flags="0x204"/>
      <component glyphName="uni0D4D" x="1865" y="0" flags="0x4"/>
    </TTGlyph>
    <TTGlyph name="glyph00126" xMin="65" yMin="-14" xMax="1979" yMax="1675">
      <component glyphName="uni0D2A" x="0" y="0" flags="0x204"/>
      <component glyphName="uni0D4D" x="1835" y="0" flags="0x4"/>
    </TTGlyph>
    <TTGlyph name="glyph00127" xMin="65" yMin="-14" xMax="2456" yMax="1675">
      <component glyphName="uni0D2B" x="0" y="0" flags="0x204"/>
      <component glyphName="uni0D4D" x="2312" y="0" flags="0x4"/>
    </TTGlyph>
    <TTGlyph name="glyph00128" xMin="85" yMin="-24" xMax="2818" yMax="1675">
      <component glyphName="uni0D2C" x="0" y="0" flags="0x204"/>
      <component glyphName="uni0D4D" x="2674" y="0" flags="0x4"/>
    </TTGlyph>
    <TTGlyph name="glyph00129" xMin="110" yMin="-24" xMax="1487" yMax="1675">
      <component glyphName="uni0D2D" x="0" y="0" flags="0x204"/>
      <component glyphName="uni0D4D" x="1343" y="0" flags="0x4"/>
    </TTGlyph>
    <TTGlyph name="glyph00130" xMin="125" yMin="0" xMax="1629" yMax="1675">
      <component glyphName="uni0D2E" x="0" y="0" flags="0x204"/>
      <component glyphName="uni0D4D" x="1485" y="0" flags="0x4"/>
    </TTGlyph>
    <TTGlyph name="glyph00131" xMin="80" yMin="-24" xMax="2264" yMax="1675">
      <component glyphName="uni0D2F" x="0" y="0" flags="0x204"/>
      <component glyphName="uni0D4D" x="2120" y="0" flags="0x4"/>
    </TTGlyph>
    <TTGlyph name="glyph00132" xMin="80" yMin="-24" xMax="1651" yMax="1675">
      <component glyphName="uni0D30" x="0" y="0" flags="0x204"/>
      <component glyphName="uni0D4D" x="1507" y="0" flags="0x4"/>
    </TTGlyph>
    <TTGlyph name="glyph00133" xMin="80" yMin="-18" xMax="1525" yMax="1675">
      <component glyphName="uni0D31" x="0" y="0" flags="0x204"/>
      <component glyphName="uni0D4D" x="1381" y="0" flags="0x4"/>
    </TTGlyph>
    <TTGlyph name="glyph00134" xMin="130" yMin="0" xMax="1903" yMax="1685">
      <component glyphName="uni0D32" x="0" y="0" flags="0x204"/>
      <component glyphName="uni0D4D" x="1759" y="10" flags="0x4"/>
    </TTGlyph>
    <TTGlyph name="glyph00135" xMin="81" yMin="-412" xMax="1610" yMax="1675">
      <component glyphName="uni0D33" x="0" y="0" flags="0x204"/>
      <component glyphName="uni0D4D" x="1466" y="0" flags="0x4"/>
    </TTGlyph>
    <TTGlyph name="glyph00136" xMin="75" yMin="-24" xMax="1484" yMax="1675">
      <component glyphName="uni0D34" x="0" y="0" flags="0x204"/>
      <component glyphName="uni0D4D" x="1340" y="0" flags="0x4"/>
    </TTGlyph>
    <TTGlyph name="glyph00137" xMin="80" yMin="-18" xMax="2107" yMax="1675">
      <component glyphName="uni0D35" x="0" y="0" flags="0x204"/>
      <component glyphName="uni0D4D" x="1963" y="0" flags="0x4"/>
    </TTGlyph>
    <TTGlyph name="glyph00138" xMin="80" yMin="-24" xMax="2274" yMax="1675">
      <component glyphName="uni0D36" x="0" y="0" flags="0x204"/>
      <component glyphName="uni0D4D" x="2130" y="0" flags="0x4"/>
    </TTGlyph>
    <TTGlyph name="glyph00139" xMin="65" yMin="-14" xMax="2498" yMax="1675">
      <component glyphName="uni0D37" x="0" y="0" flags="0x204"/>
      <component glyphName="uni0D4D" x="2354" y="0" flags="0x4"/>
    </TTGlyph>
    <TTGlyph name="glyph00140" xMin="80" yMin="-24" xMax="2649" yMax="1675">
      <component glyphName="uni0D38" x="0" y="0" flags="0x204"/>
      <component glyphName="uni0D4D" x="2505" y="0" flags="0x4"/>
    </TTGlyph>
    <TTGlyph name="glyph00141" xMin="65" yMin="-18" xMax="2581" yMax="1675">
      <component glyphName="uni0D39" x="0" y="0" flags="0x204"/>
      <component glyphName="uni0D4D" x="2437" y="0" flags="0x4"/>
    </TTGlyph>
    <TTGlyph name="glyph00142" xMin="65" yMin="-24" xMax="3618" yMax="1675">
      <component glyphName="glyph00152" x="0" y="0" flags="0x204"/>
      <component glyphName="uni0D4D" x="3474" y="0" flags="0x4"/>
    </TTGlyph>
    <TTGlyph name="glyph00143" xMin="-1449" yMin="-690" xMax="-99" yMax="103">
      <component glyphName="glyph00144" x="-1483" y="0" flags="0x4"/>
    </TTGlyph>
    <TTGlyph name="glyph00144" xMin="34" yMin="-690" xMax="1384" yMax="103">
      <contour>
        <pt x="192" y="-224" on="1"/>
        <pt x="279" y="-173" on="0"/>
        <pt x="364" y="-173" on="1"/>
        <pt x="481" y="-173" on="0"/>
        <pt x="615" y="-314" on="0"/>
        <pt x="615" y="-430" on="1"/>
        <pt x="615" y="-550" on="0"/>
        <pt x="465" y="-690" on="0"/>
        <pt x="332" y="-690" on="1"/>
        <pt x="194" y="-690" on="0"/>
        <pt x="34" y="-494" on="0"/>
        <pt x="34" y="-325" on="1"/>
        <pt x="34" y="-136" on="0"/>
        <pt x="281" y="103" on="0"/>
        <pt x="473" y="103" on="1"/>
        <pt x="618" y="103" on="0"/>
        <pt x="793" y="13" on="0"/>
        <pt x="883" y="-157" on="0"/>
        <pt x="883" y="-297" on="1"/>
        <pt x="883" y="-310" on="1"/>
        <pt x="883" y="-453" on="0"/>
        <pt x="972" y="-553" on="0"/>
        <pt x="1052" y="-553" on="1"/>
        <pt x="1136" y="-553" on="0"/>
        <pt x="1223" y="-446" on="0"/>
        <pt x="1223" y="-342" on="1"/>
        <pt x="1223" y="-147" on="0"/>
        <pt x="1066" y="13" on="1"/>
        <pt x="1185" y="99" on="1"/>
        <pt x="1384" y="-94" on="0"/>
        <pt x="1384" y="-338" on="1"/>
        <pt x="1384" y="-497" on="0"/>
        <pt x="1210" y="-690" on="0"/>
        <pt x="1057" y="-690" on="1"/>
        <pt x="894" y="-690" on="0"/>
        <pt x="721" y="-506" on="0"/>
        <pt x="721" y="-323" on="1"/>
        <pt x="721" y="-314" on="1"/>
        <pt x="721" y="-156" on="0"/>
        <pt x="599" y="-24" on="0"/>
        <pt x="470" y="-24" on="1"/>
        <pt x="364" y="-24" on="0"/>
        <pt x="216" y="-129" on="0"/>
      </contour>
      <contour>
        <pt x="181" y="-351" on="1"/>
        <pt x="184" y="-457" on="0"/>
        <pt x="265" y="-569" on="0"/>
        <pt x="335" y="-569" on="1"/>
        <pt x="470" y="-569" on="0"/>
        <pt x="470" y="-429" on="1"/>
        <pt x="470" y="-367" on="0"/>
        <pt x="399" y="-295" on="0"/>
        <pt x="339" y="-295" on="1"/>
        <pt x="259" y="-295" on="0"/>
      </contour>
    </TTGlyph>
    <TTGlyph name="glyph00145" xMin="-582" yMin="-487" xMax="322" yMax="1134">
      <contour>
        <pt x="-400" y="-111" on="1"/>
        <pt x="-402" y="-131" on="0"/>
        <pt x="-402" y="-160" on="1"/>
        <pt x="-402" y="-343" on="0"/>
        <pt x="-161" y="-343" on="1"/>
        <pt x="-44" y="-343" on="0"/>
        <pt x="86" y="-255" on="0"/>
        <pt x="145" y="-58" on="0"/>
        <pt x="145" y="161" on="1"/>
        <pt x="145" y="1134" on="1"/>
        <pt x="322" y="1134" on="1"/>
        <pt x="322" y="134" on="1"/>
        <pt x="322" y="-55" on="0"/>
        <pt x="269" y="-280" on="0"/>
        <pt x="144" y="-421" on="0"/>
        <pt x="-41" y="-487" on="0"/>
        <pt x="-165" y="-487" on="1"/>
        <pt x="-359" y="-487" on="0"/>
        <pt x="-582" y="-314" on="0"/>
        <pt x="-582" y="-153" on="1"/>
        <pt x="-582" y="-128" on="0"/>
        <pt x="-579" y="-104" on="1"/>
      </contour>
    </TTGlyph>
    <TTGlyph name="glyph00146" xMin="-379" yMin="-326" xMax="322" yMax="1134">
      <contour>
        <pt x="322" y="1134" on="1"/>
        <pt x="322" y="-326" on="1"/>
        <pt x="-379" y="-326" on="1"/>
        <pt x="-379" y="-180" on="1"/>
        <pt x="145" y="-180" on="1"/>
        <pt x="145" y="1134" on="1"/>
      </contour>
    </TTGlyph>
    <TTGlyph name="glyph00147" xMin="90" yMin="-379" xMax="701" yMax="1134">
      <contour>
        <pt x="515" y="1134" on="1"/>
        <pt x="269" y="603" on="0"/>
        <pt x="269" y="144" on="1"/>
        <pt x="269" y="-51" on="0"/>
        <pt x="403" y="-229" on="0"/>
        <pt x="559" y="-229" on="1"/>
        <pt x="615" y="-229" on="0"/>
        <pt x="683" y="-218" on="1"/>
        <pt x="701" y="-367" on="1"/>
        <pt x="621" y="-379" on="0"/>
        <pt x="520" y="-379" on="1"/>
        <pt x="308" y="-379" on="0"/>
        <pt x="90" y="-116" on="0"/>
        <pt x="90" y="139" on="1"/>
        <pt x="90" y="360" on="0"/>
        <pt x="204" y="845" on="0"/>
        <pt x="328" y="1134" on="1"/>
      </contour>
    </TTGlyph>
    <TTGlyph name="glyph00148" xMin="65" yMin="-24" xMax="3005" yMax="1162">
      <contour>
        <pt x="776" y="74" on="1"/>
        <pt x="691" y="21" on="0"/>
        <pt x="535" y="-24" on="0"/>
        <pt x="443" y="-24" on="1"/>
        <pt x="262" y="-24" on="0"/>
        <pt x="65" y="152" on="0"/>
        <pt x="65" y="311" on="1"/>
        <pt x="65" y="391" on="0"/>
        <pt x="131" y="526" on="0"/>
        <pt x="260" y="618" on="0"/>
        <pt x="434" y="666" on="0"/>
        <pt x="595" y="671" on="1"/>
        <pt x="619" y="904" on="0"/>
        <pt x="874" y="1162" on="0"/>
        <pt x="1072" y="1162" on="1"/>
        <pt x="1274" y="1162" on="0"/>
        <pt x="1522" y="909" on="0"/>
        <pt x="1546" y="672" on="1"/>
        <pt x="1730" y="672" on="1"/>
        <pt x="1793" y="907" on="0"/>
        <pt x="2141" y="1162" on="0"/>
        <pt x="2386" y="1162" on="1"/>
        <pt x="2678" y="1162" on="0"/>
        <pt x="3005" y="843" on="0"/>
        <pt x="3005" y="575" on="1"/>
        <pt x="3005" y="191" on="0"/>
        <pt x="2675" y="-18" on="1"/>
        <pt x="2574" y="111" on="1"/>
        <pt x="2694" y="184" on="0"/>
        <pt x="2823" y="412" on="0"/>
        <pt x="2823" y="554" on="1"/>
        <pt x="2823" y="766" on="0"/>
        <pt x="2582" y="1014" on="0"/>
        <pt x="2377" y="1014" on="1"/>
        <pt x="2216" y="1014" on="0"/>
        <pt x="1962" y="833" on="0"/>
        <pt x="1904" y="672" on="1"/>
        <pt x="1968" y="672" on="1"/>
        <pt x="2139" y="672" on="0"/>
        <pt x="2344" y="598" on="0"/>
        <pt x="2456" y="437" on="0"/>
        <pt x="2456" y="309" on="1"/>
        <pt x="2456" y="154" on="0"/>
        <pt x="2266" y="-24" on="0"/>
        <pt x="2098" y="-24" on="1"/>
        <pt x="1913" y="-24" on="0"/>
        <pt x="1700" y="207" on="0"/>
        <pt x="1700" y="418" on="1"/>
        <pt x="1700" y="474" on="0"/>
        <pt x="1705" y="528" on="1"/>
        <pt x="1550" y="528" on="1"/>
        <pt x="1539" y="262" on="0"/>
        <pt x="1288" y="-24" on="0"/>
        <pt x="1074" y="-24" on="1"/>
        <pt x="894" y="-24" on="0"/>
      </contour>
      <contour>
        <pt x="772" y="672" on="1"/>
        <pt x="1370" y="672" on="1"/>
        <pt x="1353" y="845" on="0"/>
        <pt x="1204" y="1018" on="0"/>
        <pt x="1072" y="1018" on="1"/>
        <pt x="937" y="1018" on="0"/>
        <pt x="787" y="845" on="0"/>
      </contour>
      <contour>
        <pt x="1373" y="528" on="1"/>
        <pt x="768" y="528" on="1"/>
        <pt x="774" y="324" on="0"/>
        <pt x="924" y="120" on="0"/>
        <pt x="1069" y="120" on="1"/>
        <pt x="1214" y="120" on="0"/>
        <pt x="1366" y="324" on="0"/>
      </contour>
      <contour>
        <pt x="1873" y="528" on="1"/>
        <pt x="1866" y="478" on="0"/>
        <pt x="1866" y="422" on="1"/>
        <pt x="1866" y="111" on="0"/>
        <pt x="2101" y="111" on="1"/>
        <pt x="2190" y="111" on="0"/>
        <pt x="2285" y="211" on="0"/>
        <pt x="2285" y="304" on="1"/>
        <pt x="2285" y="390" on="0"/>
        <pt x="2214" y="484" on="0"/>
        <pt x="2078" y="528" on="0"/>
        <pt x="1938" y="528" on="1"/>
      </contour>
      <contour>
        <pt x="679" y="188" on="1"/>
        <pt x="639" y="255" on="0"/>
        <pt x="595" y="425" on="0"/>
        <pt x="591" y="527" on="1"/>
        <pt x="408" y="525" on="0"/>
        <pt x="242" y="420" on="0"/>
        <pt x="242" y="318" on="1"/>
        <pt x="242" y="222" on="0"/>
        <pt x="349" y="120" on="0"/>
        <pt x="449" y="120" on="1"/>
        <pt x="572" y="120" on="0"/>
      </contour>
    </TTGlyph>
    <TTGlyph name="glyph00149" xMin="65" yMin="-24" xMax="3687" yMax="1162">
      <contour>
        <pt x="776" y="74" on="1"/>
        <pt x="691" y="21" on="0"/>
        <pt x="535" y="-24" on="0"/>
        <pt x="443" y="-24" on="1"/>
        <pt x="262" y="-24" on="0"/>
        <pt x="65" y="152" on="0"/>
        <pt x="65" y="311" on="1"/>
        <pt x="65" y="391" on="0"/>
        <pt x="131" y="526" on="0"/>
        <pt x="260" y="618" on="0"/>
        <pt x="434" y="666" on="0"/>
        <pt x="595" y="671" on="1"/>
        <pt x="619" y="904" on="0"/>
        <pt x="874" y="1162" on="0"/>
        <pt x="1072" y="1162" on="1"/>
        <pt x="1274" y="1162" on="0"/>
        <pt x="1522" y="909" on="0"/>
        <pt x="1546" y="672" on="1"/>
        <pt x="1778" y="672" on="1"/>
        <pt x="1814" y="902" on="0"/>
        <pt x="2152" y="1162" on="0"/>
        <pt x="2408" y="1162" on="1"/>
        <pt x="2584" y="1162" on="0"/>
        <pt x="2731" y="1091" on="1"/>
        <pt x="2879" y="1162" on="0"/>
        <pt x="3079" y="1162" on="1"/>
        <pt x="3266" y="1162" on="0"/>
        <pt x="3541" y="1017" on="0"/>
        <pt x="3687" y="748" on="0"/>
        <pt x="3687" y="575" on="1"/>
        <pt x="3687" y="191" on="0"/>
        <pt x="3357" y="-18" on="1"/>
        <pt x="3256" y="111" on="1"/>
        <pt x="3379" y="186" on="0"/>
        <pt x="3505" y="411" on="0"/>
        <pt x="3505" y="554" on="1"/>
        <pt x="3505" y="689" on="0"/>
        <pt x="3396" y="904" on="0"/>
        <pt x="3193" y="1021" on="0"/>
        <pt x="3058" y="1021" on="1"/>
        <pt x="2939" y="1021" on="0"/>
        <pt x="2866" y="999" on="1"/>
        <pt x="3002" y="900" on="0"/>
        <pt x="3146" y="611" on="0"/>
        <pt x="3146" y="448" on="1"/>
        <pt x="3146" y="225" on="0"/>
        <pt x="2927" y="-24" on="0"/>
        <pt x="2729" y="-24" on="1"/>
        <pt x="2533" y="-24" on="0"/>
        <pt x="2311" y="226" on="0"/>
        <pt x="2311" y="448" on="1"/>
        <pt x="2311" y="614" on="0"/>
        <pt x="2457" y="896" on="0"/>
        <pt x="2598" y="999" on="1"/>
        <pt x="2523" y="1021" on="0"/>
        <pt x="2426" y="1021" on="1"/>
        <pt x="2283" y="1021" on="0"/>
        <pt x="2068" y="909" on="0"/>
        <pt x="1952" y="696" on="0"/>
        <pt x="1952" y="559" on="1"/>
        <pt x="1952" y="263" on="0"/>
        <pt x="2201" y="111" on="1"/>
        <pt x="2100" y="-18" on="1"/>
        <pt x="1948" y="68" on="0"/>
        <pt x="1779" y="354" on="0"/>
        <pt x="1771" y="528" on="1"/>
        <pt x="1550" y="528" on="1"/>
        <pt x="1539" y="262" on="0"/>
        <pt x="1288" y="-24" on="0"/>
        <pt x="1074" y="-24" on="1"/>
        <pt x="894" y="-24" on="0"/>
      </contour>
      <contour>
        <pt x="772" y="672" on="1"/>
        <pt x="1370" y="672" on="1"/>
        <pt x="1353" y="845" on="0"/>
        <pt x="1204" y="1018" on="0"/>
        <pt x="1072" y="1018" on="1"/>
        <pt x="937" y="1018" on="0"/>
        <pt x="787" y="845" on="0"/>
      </contour>
      <contour>
        <pt x="2731" y="932" on="1"/>
        <pt x="2618" y="858" on="0"/>
        <pt x="2491" y="606" on="0"/>
        <pt x="2491" y="453" on="1"/>
        <pt x="2491" y="287" on="0"/>
        <pt x="2612" y="120" on="0"/>
        <pt x="2729" y="120" on="1"/>
        <pt x="2966" y="120" on="0"/>
        <pt x="2966" y="453" on="1"/>
        <pt x="2966" y="597" on="0"/>
        <pt x="2839" y="856" on="0"/>
      </contour>
      <contour>
        <pt x="1373" y="528" on="1"/>
        <pt x="768" y="528" on="1"/>
        <pt x="774" y="324" on="0"/>
        <pt x="924" y="120" on="0"/>
        <pt x="1069" y="120" on="1"/>
        <pt x="1214" y="120" on="0"/>
        <pt x="1366" y="324" on="0"/>
      </contour>
      <contour>
        <pt x="679" y="188" on="1"/>
        <pt x="639" y="255" on="0"/>
        <pt x="595" y="425" on="0"/>
        <pt x="591" y="527" on="1"/>
        <pt x="408" y="525" on="0"/>
        <pt x="242" y="420" on="0"/>
        <pt x="242" y="318" on="1"/>
        <pt x="242" y="222" on="0"/>
        <pt x="349" y="120" on="0"/>
        <pt x="449" y="120" on="1"/>
        <pt x="572" y="120" on="0"/>
      </contour>
    </TTGlyph>
    <TTGlyph name="glyph00150" xMin="65" yMin="-690" xMax="2060" yMax="1162">
      <contour>
        <pt x="776" y="74" on="1"/>
        <pt x="691" y="21" on="0"/>
        <pt x="535" y="-24" on="0"/>
        <pt x="443" y="-24" on="1"/>
        <pt x="262" y="-24" on="0"/>
        <pt x="65" y="152" on="0"/>
        <pt x="65" y="311" on="1"/>
        <pt x="65" y="391" on="0"/>
        <pt x="131" y="526" on="0"/>
        <pt x="260" y="618" on="0"/>
        <pt x="434" y="666" on="0"/>
        <pt x="595" y="671" on="1"/>
        <pt x="619" y="904" on="0"/>
        <pt x="874" y="1162" on="0"/>
        <pt x="1072" y="1162" on="1"/>
        <pt x="1275" y="1162" on="0"/>
        <pt x="1522" y="909" on="0"/>
        <pt x="1547" y="671" on="1"/>
        <pt x="1815" y="666" on="0"/>
        <pt x="2060" y="478" on="0"/>
        <pt x="2060" y="311" on="1"/>
        <pt x="2060" y="211" on="0"/>
        <pt x="1988" y="71" on="0"/>
        <pt x="1916" y="32" on="1"/>
        <pt x="1852" y="-83" on="1"/>
        <pt x="1697" y="0" on="0"/>
        <pt x="1506" y="0" on="1"/>
        <pt x="1392" y="0" on="0"/>
        <pt x="1276" y="-55" on="0"/>
        <pt x="1276" y="-105" on="1"/>
        <pt x="1276" y="-161" on="0"/>
        <pt x="1382" y="-203" on="0"/>
        <pt x="1501" y="-203" on="1"/>
        <pt x="1565" y="-203" on="1"/>
        <pt x="1744" y="-203" on="0"/>
        <pt x="1907" y="-323" on="0"/>
        <pt x="1907" y="-443" on="1"/>
        <pt x="1907" y="-558" on="0"/>
        <pt x="1707" y="-690" on="0"/>
        <pt x="1522" y="-690" on="1"/>
        <pt x="1396" y="-690" on="0"/>
        <pt x="1193" y="-644" on="0"/>
        <pt x="1096" y="-593" on="1"/>
        <pt x="1160" y="-463" on="1"/>
        <pt x="1321" y="-552" on="0"/>
        <pt x="1519" y="-552" on="1"/>
        <pt x="1748" y="-552" on="0"/>
        <pt x="1748" y="-444" on="1"/>
        <pt x="1748" y="-387" on="0"/>
        <pt x="1646" y="-338" on="0"/>
        <pt x="1545" y="-338" on="1"/>
        <pt x="1494" y="-338" on="1"/>
        <pt x="1283" y="-338" on="0"/>
        <pt x="1116" y="-222" on="0"/>
        <pt x="1116" y="-111" on="1"/>
        <pt x="1116" y="-62" on="0"/>
        <pt x="1143" y="-19" on="1"/>
        <pt x="1109" y="-24" on="0"/>
        <pt x="1074" y="-24" on="1"/>
        <pt x="894" y="-24" on="0"/>
      </contour>
      <contour>
        <pt x="772" y="672" on="1"/>
        <pt x="1370" y="672" on="1"/>
        <pt x="1353" y="845" on="0"/>
        <pt x="1204" y="1018" on="0"/>
        <pt x="1072" y="1018" on="1"/>
        <pt x="937" y="1018" on="0"/>
        <pt x="787" y="845" on="0"/>
      </contour>
      <contour>
        <pt x="1373" y="528" on="1"/>
        <pt x="768" y="528" on="1"/>
        <pt x="774" y="324" on="0"/>
        <pt x="924" y="120" on="0"/>
        <pt x="1069" y="120" on="1"/>
        <pt x="1214" y="120" on="0"/>
        <pt x="1366" y="324" on="0"/>
      </contour>
      <contour>
        <pt x="679" y="188" on="1"/>
        <pt x="639" y="255" on="0"/>
        <pt x="595" y="425" on="0"/>
        <pt x="591" y="527" on="1"/>
        <pt x="408" y="525" on="0"/>
        <pt x="242" y="420" on="0"/>
        <pt x="242" y="318" on="1"/>
        <pt x="242" y="222" on="0"/>
        <pt x="349" y="120" on="0"/>
        <pt x="449" y="120" on="1"/>
        <pt x="572" y="120" on="0"/>
      </contour>
      <contour>
        <pt x="1533" y="125" on="1"/>
        <pt x="1537" y="139" on="1"/>
        <pt x="1603" y="120" on="0"/>
        <pt x="1677" y="120" on="1"/>
        <pt x="1780" y="120" on="0"/>
        <pt x="1883" y="214" on="0"/>
        <pt x="1883" y="309" on="1"/>
        <pt x="1883" y="413" on="0"/>
        <pt x="1723" y="521" on="0"/>
        <pt x="1550" y="527" on="1"/>
        <pt x="1538" y="255" on="0"/>
        <pt x="1412" y="121" on="1"/>
        <pt x="1451" y="126" on="0"/>
        <pt x="1494" y="126" on="1"/>
        <pt x="1513" y="126" on="0"/>
      </contour>
    </TTGlyph>
    <TTGlyph name="glyph00151" xMin="65" yMin="-690" xMax="2060" yMax="1162">
      <contour>
        <pt x="816" y="-225" on="1"/>
        <pt x="902" y="-173" on="0"/>
        <pt x="989" y="-173" on="1"/>
        <pt x="1106" y="-173" on="0"/>
        <pt x="1240" y="-314" on="0"/>
        <pt x="1240" y="-430" on="1"/>
        <pt x="1240" y="-550" on="0"/>
        <pt x="1089" y="-690" on="0"/>
        <pt x="955" y="-690" on="1"/>
        <pt x="818" y="-690" on="0"/>
        <pt x="659" y="-493" on="0"/>
        <pt x="659" y="-325" on="1"/>
        <pt x="659" y="-209" on="0"/>
        <pt x="755" y="-21" on="0"/>
        <pt x="847" y="35" on="1"/>
        <pt x="811" y="51" on="0"/>
        <pt x="779" y="76" on="1"/>
        <pt x="693" y="22" on="0"/>
        <pt x="534" y="-24" on="0"/>
        <pt x="443" y="-24" on="1"/>
        <pt x="262" y="-24" on="0"/>
        <pt x="65" y="152" on="0"/>
        <pt x="65" y="311" on="1"/>
        <pt x="65" y="391" on="0"/>
        <pt x="131" y="526" on="0"/>
        <pt x="260" y="618" on="0"/>
        <pt x="434" y="666" on="0"/>
        <pt x="595" y="671" on="1"/>
        <pt x="619" y="904" on="0"/>
        <pt x="874" y="1162" on="0"/>
        <pt x="1072" y="1162" on="1"/>
        <pt x="1275" y="1162" on="0"/>
        <pt x="1522" y="909" on="0"/>
        <pt x="1547" y="671" on="1"/>
        <pt x="1815" y="666" on="0"/>
        <pt x="2060" y="478" on="0"/>
        <pt x="2060" y="311" on="1"/>
        <pt x="2060" y="214" on="0"/>
        <pt x="1991" y="74" on="0"/>
        <pt x="1923" y="31" on="1"/>
        <pt x="2050" y="-112" on="0"/>
        <pt x="2050" y="-304" on="1"/>
        <pt x="2050" y="-477" on="0"/>
        <pt x="1854" y="-690" on="0"/>
        <pt x="1687" y="-690" on="1"/>
        <pt x="1538" y="-690" on="0"/>
        <pt x="1346" y="-514" on="0"/>
        <pt x="1346" y="-314" on="1"/>
        <pt x="1346" y="-312" on="1"/>
        <pt x="1346" y="-148" on="0"/>
        <pt x="1222" y="-12" on="0"/>
        <pt x="1097" y="-12" on="1"/>
        <pt x="987" y="-12" on="0"/>
        <pt x="839" y="-123" on="0"/>
      </contour>
      <contour>
        <pt x="772" y="672" on="1"/>
        <pt x="1370" y="672" on="1"/>
        <pt x="1353" y="845" on="0"/>
        <pt x="1204" y="1018" on="0"/>
        <pt x="1072" y="1018" on="1"/>
        <pt x="937" y="1018" on="0"/>
        <pt x="787" y="845" on="0"/>
      </contour>
      <contour>
        <pt x="1373" y="528" on="1"/>
        <pt x="768" y="528" on="1"/>
        <pt x="774" y="324" on="0"/>
        <pt x="924" y="120" on="0"/>
        <pt x="1069" y="120" on="1"/>
        <pt x="1214" y="120" on="0"/>
        <pt x="1366" y="324" on="0"/>
      </contour>
      <contour>
        <pt x="678" y="188" on="1"/>
        <pt x="638" y="255" on="0"/>
        <pt x="594" y="425" on="0"/>
        <pt x="591" y="527" on="1"/>
        <pt x="408" y="525" on="0"/>
        <pt x="242" y="420" on="0"/>
        <pt x="242" y="318" on="1"/>
        <pt x="242" y="222" on="0"/>
        <pt x="349" y="120" on="0"/>
        <pt x="449" y="120" on="1"/>
        <pt x="569" y="120" on="0"/>
      </contour>
      <contour>
        <pt x="1767" y="-20" on="1"/>
        <pt x="1730" y="-24" on="0"/>
        <pt x="1703" y="-24" on="1"/>
        <pt x="1578" y="-24" on="0"/>
        <pt x="1497" y="1" on="1"/>
        <pt x="1537" y="139" on="1"/>
        <pt x="1609" y="120" on="0"/>
        <pt x="1677" y="120" on="1"/>
        <pt x="1780" y="120" on="0"/>
        <pt x="1883" y="214" on="0"/>
        <pt x="1883" y="309" on="1"/>
        <pt x="1883" y="413" on="0"/>
        <pt x="1723" y="521" on="0"/>
        <pt x="1550" y="527" on="1"/>
        <pt x="1543" y="355" on="0"/>
        <pt x="1434" y="120" on="0"/>
        <pt x="1331" y="57" on="1"/>
        <pt x="1409" y="21" on="0"/>
        <pt x="1508" y="-142" on="0"/>
        <pt x="1508" y="-297" on="1"/>
        <pt x="1508" y="-310" on="1"/>
        <pt x="1508" y="-455" on="0"/>
        <pt x="1604" y="-553" on="0"/>
        <pt x="1686" y="-553" on="1"/>
        <pt x="1779" y="-553" on="0"/>
        <pt x="1890" y="-424" on="0"/>
        <pt x="1890" y="-313" on="1"/>
        <pt x="1890" y="-137" on="0"/>
      </contour>
      <contour>
        <pt x="806" y="-351" on="1"/>
        <pt x="809" y="-457" on="0"/>
        <pt x="890" y="-569" on="0"/>
        <pt x="960" y="-569" on="1"/>
        <pt x="1095" y="-569" on="0"/>
        <pt x="1095" y="-429" on="1"/>
        <pt x="1095" y="-367" on="0"/>
        <pt x="1024" y="-295" on="0"/>
        <pt x="964" y="-295" on="1"/>
        <pt x="884" y="-295" on="0"/>
      </contour>
    </TTGlyph>
    <TTGlyph name="glyph00152" xMin="65" yMin="-24" xMax="3329" yMax="1162">
      <contour>
        <pt x="776" y="74" on="1"/>
        <pt x="691" y="21" on="0"/>
        <pt x="535" y="-24" on="0"/>
        <pt x="443" y="-24" on="1"/>
        <pt x="262" y="-24" on="0"/>
        <pt x="65" y="152" on="0"/>
        <pt x="65" y="311" on="1"/>
        <pt x="65" y="391" on="0"/>
        <pt x="131" y="526" on="0"/>
        <pt x="260" y="618" on="0"/>
        <pt x="434" y="666" on="0"/>
        <pt x="595" y="671" on="1"/>
        <pt x="619" y="904" on="0"/>
        <pt x="874" y="1162" on="0"/>
        <pt x="1072" y="1162" on="1"/>
        <pt x="1275" y="1162" on="0"/>
        <pt x="1522" y="908" on="0"/>
        <pt x="1547" y="672" on="1"/>
        <pt x="1815" y="669" on="0"/>
        <pt x="2050" y="488" on="0"/>
        <pt x="2050" y="328" on="1"/>
        <pt x="2050" y="222" on="0"/>
        <pt x="1974" y="144" on="1"/>
        <pt x="2468" y="144" on="1"/>
        <pt x="2468" y="481" on="1"/>
        <pt x="2245" y="485" on="0"/>
        <pt x="2005" y="689" on="0"/>
        <pt x="2005" y="853" on="1"/>
        <pt x="2005" y="981" on="0"/>
        <pt x="2182" y="1162" on="0"/>
        <pt x="2328" y="1162" on="1"/>
        <pt x="2441" y="1162" on="0"/>
        <pt x="2585" y="1072" on="0"/>
        <pt x="2645" y="924" on="0"/>
        <pt x="2645" y="790" on="1"/>
        <pt x="2645" y="636" on="1"/>
        <pt x="2793" y="669" on="0"/>
        <pt x="3040" y="903" on="0"/>
        <pt x="3155" y="1134" on="1"/>
        <pt x="3329" y="1134" on="1"/>
        <pt x="3329" y="0" on="1"/>
        <pt x="1720" y="0" on="1"/>
        <pt x="1685" y="138" on="1"/>
        <pt x="1873" y="160" on="0"/>
        <pt x="1873" y="323" on="1"/>
        <pt x="1873" y="530" on="0"/>
        <pt x="1550" y="528" on="1"/>
        <pt x="1539" y="262" on="0"/>
        <pt x="1288" y="-24" on="0"/>
        <pt x="1074" y="-24" on="1"/>
        <pt x="894" y="-24" on="0"/>
      </contour>
      <contour>
        <pt x="772" y="672" on="1"/>
        <pt x="1370" y="672" on="1"/>
        <pt x="1353" y="845" on="0"/>
        <pt x="1204" y="1018" on="0"/>
        <pt x="1072" y="1018" on="1"/>
        <pt x="937" y="1018" on="0"/>
        <pt x="787" y="845" on="0"/>
      </contour>
      <contour>
        <pt x="2468" y="622" on="1"/>
        <pt x="2468" y="780" on="1"/>
        <pt x="2468" y="869" on="0"/>
        <pt x="2444" y="965" on="0"/>
        <pt x="2372" y="1018" on="0"/>
        <pt x="2320" y="1018" on="1"/>
        <pt x="2256" y="1018" on="0"/>
        <pt x="2182" y="933" on="0"/>
        <pt x="2182" y="856" on="1"/>
        <pt x="2182" y="743" on="0"/>
        <pt x="2327" y="622" on="0"/>
      </contour>
      <contour>
        <pt x="3159" y="888" on="1"/>
        <pt x="3087" y="726" on="0"/>
        <pt x="2814" y="514" on="0"/>
        <pt x="2645" y="489" on="1"/>
        <pt x="2645" y="144" on="1"/>
        <pt x="3152" y="144" on="1"/>
        <pt x="3152" y="763" on="1"/>
        <pt x="3152" y="840" on="0"/>
      </contour>
      <contour>
        <pt x="1373" y="528" on="1"/>
        <pt x="768" y="528" on="1"/>
        <pt x="774" y="324" on="0"/>
        <pt x="924" y="120" on="0"/>
        <pt x="1069" y="120" on="1"/>
        <pt x="1214" y="120" on="0"/>
        <pt x="1366" y="324" on="0"/>
      </contour>
      <contour>
        <pt x="679" y="188" on="1"/>
        <pt x="639" y="255" on="0"/>
        <pt x="595" y="425" on="0"/>
        <pt x="591" y="527" on="1"/>
        <pt x="408" y="525" on="0"/>
        <pt x="242" y="420" on="0"/>
        <pt x="242" y="318" on="1"/>
        <pt x="242" y="222" on="0"/>
        <pt x="349" y="120" on="0"/>
        <pt x="449" y="120" on="1"/>
        <pt x="572" y="120" on="0"/>
      </contour>
    </TTGlyph>
    <TTGlyph name="glyph00153" xMin="80" yMin="-690" xMax="1757" yMax="1162">
      <contour>
        <pt x="828" y="641" on="1"/>
        <pt x="828" y="835" on="0"/>
        <pt x="916" y="1037" on="0"/>
        <pt x="1106" y="1162" on="0"/>
        <pt x="1273" y="1162" on="1"/>
        <pt x="1492" y="1162" on="0"/>
        <pt x="1757" y="854" on="0"/>
        <pt x="1757" y="600" on="1"/>
        <pt x="1757" y="432" on="0"/>
        <pt x="1642" y="165" on="0"/>
        <pt x="1512" y="44" on="1"/>
        <pt x="1567" y="-12" on="0"/>
        <pt x="1623" y="-165" on="0"/>
        <pt x="1623" y="-262" on="1"/>
        <pt x="1623" y="-387" on="0"/>
        <pt x="1523" y="-595" on="0"/>
        <pt x="1412" y="-690" on="1"/>
        <pt x="1309" y="-585" on="1"/>
        <pt x="1463" y="-455" on="0"/>
        <pt x="1463" y="-251" on="1"/>
        <pt x="1463" y="-135" on="0"/>
        <pt x="1353" y="1" on="0"/>
        <pt x="1260" y="1" on="1"/>
        <pt x="1174" y="1" on="0"/>
        <pt x="1081" y="-104" on="0"/>
        <pt x="1081" y="-249" on="1"/>
        <pt x="1081" y="-262" on="1"/>
        <pt x="1081" y="-439" on="0"/>
        <pt x="998" y="-605" on="0"/>
        <pt x="842" y="-690" on="0"/>
        <pt x="740" y="-690" on="1"/>
        <pt x="571" y="-690" on="0"/>
        <pt x="377" y="-479" on="0"/>
        <pt x="377" y="-304" on="1"/>
        <pt x="377" y="-140" on="0"/>
        <pt x="468" y="-14" on="1"/>
        <pt x="283" y="19" on="0"/>
        <pt x="80" y="310" on="0"/>
        <pt x="80" y="538" on="1"/>
        <pt x="80" y="735" on="0"/>
        <pt x="233" y="1033" on="0"/>
        <pt x="397" y="1162" on="1"/>
        <pt x="507" y="1035" on="1"/>
        <pt x="260" y="858" on="0"/>
        <pt x="260" y="543" on="1"/>
        <pt x="260" y="353" on="0"/>
        <pt x="425" y="125" on="0"/>
        <pt x="561" y="125" on="1"/>
        <pt x="676" y="125" on="0"/>
        <pt x="792" y="226" on="0"/>
        <pt x="828" y="411" on="0"/>
        <pt x="828" y="614" on="1"/>
      </contour>
      <contour>
        <pt x="919" y="-283" on="1"/>
        <pt x="919" y="-107" on="0"/>
        <pt x="1005" y="56" on="0"/>
        <pt x="1160" y="138" on="0"/>
        <pt x="1270" y="138" on="1"/>
        <pt x="1313" y="138" on="0"/>
        <pt x="1356" y="129" on="1"/>
        <pt x="1466" y="216" on="0"/>
        <pt x="1577" y="449" on="0"/>
        <pt x="1577" y="594" on="1"/>
        <pt x="1577" y="783" on="0"/>
        <pt x="1410" y="1014" on="0"/>
        <pt x="1270" y="1014" on="1"/>
        <pt x="1164" y="1014" on="0"/>
        <pt x="1042" y="904" on="0"/>
        <pt x="1008" y="711" on="0"/>
        <pt x="1008" y="516" on="1"/>
        <pt x="1008" y="498" on="1"/>
        <pt x="1008" y="322" on="0"/>
        <pt x="932" y="126" on="0"/>
        <pt x="778" y="1" on="0"/>
        <pt x="665" y="-16" on="1"/>
        <pt x="537" y="-135" on="0"/>
        <pt x="537" y="-313" on="1"/>
        <pt x="537" y="-424" on="0"/>
        <pt x="648" y="-553" on="0"/>
        <pt x="741" y="-553" on="1"/>
        <pt x="824" y="-553" on="0"/>
        <pt x="919" y="-450" on="0"/>
        <pt x="919" y="-300" on="1"/>
      </contour>
    </TTGlyph>
    <TTGlyph name="glyph00154" xMin="80" yMin="-23" xMax="1833" yMax="1162">
      <contour>
        <pt x="397" y="1162" on="1"/>
        <pt x="507" y="1035" on="1"/>
        <pt x="260" y="858" on="0"/>
        <pt x="260" y="543" on="1"/>
        <pt x="260" y="352" on="0"/>
        <pt x="425" y="125" on="0"/>
        <pt x="561" y="125" on="1"/>
        <pt x="673" y="125" on="0"/>
        <pt x="789" y="220" on="0"/>
        <pt x="828" y="397" on="0"/>
        <pt x="828" y="580" on="1"/>
        <pt x="828" y="593" on="1"/>
        <pt x="828" y="778" on="0"/>
        <pt x="943" y="1019" on="0"/>
        <pt x="1184" y="1162" on="0"/>
        <pt x="1379" y="1162" on="1"/>
        <pt x="1583" y="1162" on="0"/>
        <pt x="1811" y="986" on="0"/>
        <pt x="1811" y="841" on="1"/>
        <pt x="1811" y="743" on="0"/>
        <pt x="1716" y="610" on="0"/>
        <pt x="1616" y="567" on="1"/>
        <pt x="1722" y="530" on="0"/>
        <pt x="1833" y="386" on="0"/>
        <pt x="1833" y="292" on="1"/>
        <pt x="1833" y="143" on="0"/>
        <pt x="1640" y="-23" on="0"/>
        <pt x="1467" y="-23" on="1"/>
        <pt x="1369" y="-23" on="0"/>
        <pt x="1265" y="0" on="1"/>
        <pt x="1302" y="141" on="1"/>
        <pt x="1383" y="121" on="0"/>
        <pt x="1447" y="121" on="1"/>
        <pt x="1554" y="121" on="0"/>
        <pt x="1656" y="207" on="0"/>
        <pt x="1656" y="295" on="1"/>
        <pt x="1656" y="354" on="0"/>
        <pt x="1592" y="442" on="0"/>
        <pt x="1477" y="490" on="0"/>
        <pt x="1354" y="490" on="1"/>
        <pt x="1300" y="490" on="1"/>
        <pt x="1300" y="634" on="1"/>
        <pt x="1353" y="634" on="1"/>
        <pt x="1500" y="634" on="0"/>
        <pt x="1634" y="733" on="0"/>
        <pt x="1634" y="826" on="1"/>
        <pt x="1634" y="917" on="0"/>
        <pt x="1504" y="1014" on="0"/>
        <pt x="1381" y="1014" on="1"/>
        <pt x="1255" y="1014" on="0"/>
        <pt x="1087" y="914" on="0"/>
        <pt x="1008" y="717" on="0"/>
        <pt x="1008" y="539" on="1"/>
        <pt x="1008" y="498" on="1"/>
        <pt x="1008" y="279" on="0"/>
        <pt x="886" y="68" on="0"/>
        <pt x="701" y="-23" on="0"/>
        <pt x="569" y="-23" on="1"/>
        <pt x="342" y="-23" on="0"/>
        <pt x="80" y="276" on="0"/>
        <pt x="80" y="538" on="1"/>
        <pt x="80" y="735" on="0"/>
        <pt x="233" y="1033" on="0"/>
      </contour>
    </TTGlyph>
    <TTGlyph name="glyph00155" xMin="80" yMin="-23" xMax="2751" yMax="1162">
      <contour>
        <pt x="2751" y="0" on="1"/>
        <pt x="1516" y="0" on="1"/>
        <pt x="1516" y="652" on="1"/>
        <pt x="1516" y="789" on="0"/>
        <pt x="1469" y="934" on="0"/>
        <pt x="1359" y="1014" on="0"/>
        <pt x="1268" y="1014" on="1"/>
        <pt x="1163" y="1014" on="0"/>
        <pt x="1044" y="907" on="0"/>
        <pt x="1008" y="717" on="0"/>
        <pt x="1008" y="516" on="1"/>
        <pt x="1008" y="498" on="1"/>
        <pt x="1008" y="279" on="0"/>
        <pt x="886" y="68" on="0"/>
        <pt x="701" y="-23" on="0"/>
        <pt x="569" y="-23" on="1"/>
        <pt x="342" y="-23" on="0"/>
        <pt x="80" y="276" on="0"/>
        <pt x="80" y="538" on="1"/>
        <pt x="80" y="735" on="0"/>
        <pt x="233" y="1033" on="0"/>
        <pt x="397" y="1162" on="1"/>
        <pt x="507" y="1035" on="1"/>
        <pt x="260" y="858" on="0"/>
        <pt x="260" y="543" on="1"/>
        <pt x="260" y="352" on="0"/>
        <pt x="425" y="125" on="0"/>
        <pt x="561" y="125" on="1"/>
        <pt x="676" y="125" on="0"/>
        <pt x="792" y="226" on="0"/>
        <pt x="828" y="411" on="0"/>
        <pt x="828" y="614" on="1"/>
        <pt x="828" y="641" on="1"/>
        <pt x="828" y="852" on="0"/>
        <pt x="934" y="1056" on="0"/>
        <pt x="1122" y="1162" on="0"/>
        <pt x="1271" y="1162" on="1"/>
        <pt x="1392" y="1162" on="0"/>
        <pt x="1576" y="1047" on="0"/>
        <pt x="1630" y="937" on="1"/>
        <pt x="1704" y="1049" on="0"/>
        <pt x="1948" y="1162" on="0"/>
        <pt x="2118" y="1162" on="1"/>
        <pt x="2311" y="1162" on="0"/>
        <pt x="2593" y="1037" on="0"/>
        <pt x="2751" y="779" on="0"/>
        <pt x="2751" y="545" on="1"/>
      </contour>
      <contour>
        <pt x="1693" y="139" on="1"/>
        <pt x="1703" y="139" on="1"/>
        <pt x="1932" y="311" on="0"/>
        <pt x="2183" y="668" on="0"/>
        <pt x="2183" y="823" on="1"/>
        <pt x="2183" y="914" on="0"/>
        <pt x="2100" y="1015" on="0"/>
        <pt x="2021" y="1015" on="1"/>
        <pt x="1881" y="1015" on="0"/>
        <pt x="1693" y="769" on="0"/>
        <pt x="1693" y="509" on="1"/>
      </contour>
      <contour>
        <pt x="2574" y="509" on="1"/>
        <pt x="2574" y="757" on="0"/>
        <pt x="2422" y="971" on="0"/>
        <pt x="2290" y="1005" on="1"/>
        <pt x="2328" y="958" on="0"/>
        <pt x="2359" y="863" on="0"/>
        <pt x="2359" y="804" on="1"/>
        <pt x="2359" y="648" on="0"/>
        <pt x="2164" y="328" on="0"/>
        <pt x="1954" y="138" on="1"/>
        <pt x="2043" y="144" on="0"/>
        <pt x="2130" y="144" on="1"/>
        <pt x="2574" y="144" on="1"/>
      </contour>
    </TTGlyph>
    <TTGlyph name="glyph00156" xMin="80" yMin="-23" xMax="2457" yMax="1162">
      <contour>
        <pt x="828" y="641" on="1"/>
        <pt x="828" y="852" on="0"/>
        <pt x="934" y="1056" on="0"/>
        <pt x="1122" y="1162" on="0"/>
        <pt x="1271" y="1162" on="1"/>
        <pt x="1381" y="1162" on="0"/>
        <pt x="1548" y="1071" on="0"/>
        <pt x="1606" y="980" on="1"/>
        <pt x="1666" y="1073" on="0"/>
        <pt x="1837" y="1162" on="0"/>
        <pt x="1962" y="1162" on="1"/>
        <pt x="2111" y="1162" on="0"/>
        <pt x="2336" y="1018" on="0"/>
        <pt x="2457" y="759" on="0"/>
        <pt x="2457" y="598" on="1"/>
        <pt x="2457" y="408" on="0"/>
        <pt x="2306" y="113" on="0"/>
        <pt x="2140" y="-17" on="1"/>
        <pt x="2030" y="109" on="1"/>
        <pt x="2155" y="197" on="0"/>
        <pt x="2277" y="439" on="0"/>
        <pt x="2277" y="598" on="1"/>
        <pt x="2277" y="779" on="0"/>
        <pt x="2100" y="1014" on="0"/>
        <pt x="1960" y="1014" on="1"/>
        <pt x="1888" y="1014" on="0"/>
        <pt x="1787" y="969" on="0"/>
        <pt x="1717" y="870" on="0"/>
        <pt x="1693" y="740" on="0"/>
        <pt x="1693" y="597" on="1"/>
        <pt x="1693" y="0" on="1"/>
        <pt x="1516" y="0" on="1"/>
        <pt x="1516" y="652" on="1"/>
        <pt x="1516" y="789" on="0"/>
        <pt x="1469" y="934" on="0"/>
        <pt x="1359" y="1014" on="0"/>
        <pt x="1268" y="1014" on="1"/>
        <pt x="1163" y="1014" on="0"/>
        <pt x="1044" y="907" on="0"/>
        <pt x="1008" y="717" on="0"/>
        <pt x="1008" y="516" on="1"/>
        <pt x="1008" y="498" on="1"/>
        <pt x="1008" y="279" on="0"/>
        <pt x="886" y="68" on="0"/>
        <pt x="701" y="-23" on="0"/>
        <pt x="569" y="-23" on="1"/>
        <pt x="342" y="-23" on="0"/>
        <pt x="80" y="276" on="0"/>
        <pt x="80" y="538" on="1"/>
        <pt x="80" y="735" on="0"/>
        <pt x="233" y="1033" on="0"/>
        <pt x="397" y="1162" on="1"/>
        <pt x="507" y="1035" on="1"/>
        <pt x="260" y="858" on="0"/>
        <pt x="260" y="543" on="1"/>
        <pt x="260" y="352" on="0"/>
        <pt x="425" y="125" on="0"/>
        <pt x="561" y="125" on="1"/>
        <pt x="676" y="125" on="0"/>
        <pt x="792" y="226" on="0"/>
        <pt x="828" y="411" on="0"/>
        <pt x="828" y="614" on="1"/>
      </contour>
    </TTGlyph>
    <TTGlyph name="glyph00157" xMin="80" yMin="-690" xMax="1757" yMax="1161">
      <contour>
        <pt x="828" y="640" on="1"/>
        <pt x="828" y="834" on="0"/>
        <pt x="916" y="1036" on="0"/>
        <pt x="1106" y="1161" on="0"/>
        <pt x="1273" y="1161" on="1"/>
        <pt x="1492" y="1161" on="0"/>
        <pt x="1757" y="853" on="0"/>
        <pt x="1757" y="599" on="1"/>
        <pt x="1757" y="446" on="0"/>
        <pt x="1660" y="193" on="0"/>
        <pt x="1550" y="81" on="1"/>
        <pt x="1727" y="-79" on="0"/>
        <pt x="1727" y="-304" on="1"/>
        <pt x="1727" y="-477" on="0"/>
        <pt x="1531" y="-690" on="0"/>
        <pt x="1364" y="-690" on="1"/>
        <pt x="1215" y="-690" on="0"/>
        <pt x="1023" y="-514" on="0"/>
        <pt x="1023" y="-314" on="1"/>
        <pt x="1023" y="-312" on="1"/>
        <pt x="1023" y="-145" on="0"/>
        <pt x="904" y="0" on="0"/>
        <pt x="764" y="0" on="1"/>
        <pt x="664" y="0" on="0"/>
        <pt x="518" y="-118" on="0"/>
        <pt x="494" y="-225" on="1"/>
        <pt x="579" y="-173" on="0"/>
        <pt x="666" y="-173" on="1"/>
        <pt x="783" y="-173" on="0"/>
        <pt x="917" y="-314" on="0"/>
        <pt x="917" y="-430" on="1"/>
        <pt x="917" y="-550" on="0"/>
        <pt x="766" y="-690" on="0"/>
        <pt x="632" y="-690" on="1"/>
        <pt x="495" y="-690" on="0"/>
        <pt x="336" y="-493" on="0"/>
        <pt x="336" y="-325" on="1"/>
        <pt x="336" y="-138" on="0"/>
        <pt x="452" y="-7" on="1"/>
        <pt x="273" y="31" on="0"/>
        <pt x="80" y="317" on="0"/>
        <pt x="80" y="537" on="1"/>
        <pt x="80" y="734" on="0"/>
        <pt x="233" y="1032" on="0"/>
        <pt x="397" y="1161" on="1"/>
        <pt x="507" y="1034" on="1"/>
        <pt x="260" y="857" on="0"/>
        <pt x="260" y="542" on="1"/>
        <pt x="260" y="352" on="0"/>
        <pt x="425" y="124" on="0"/>
        <pt x="561" y="124" on="1"/>
        <pt x="676" y="124" on="0"/>
        <pt x="792" y="225" on="0"/>
        <pt x="828" y="410" on="0"/>
        <pt x="828" y="613" on="1"/>
      </contour>
      <contour>
        <pt x="1441" y="-17" on="1"/>
        <pt x="1440" y="-17" on="0"/>
        <pt x="1440" y="-18" on="1"/>
        <pt x="1330" y="108" on="1"/>
        <pt x="1577" y="285" on="0"/>
        <pt x="1577" y="593" on="1"/>
        <pt x="1577" y="782" on="0"/>
        <pt x="1410" y="1013" on="0"/>
        <pt x="1270" y="1013" on="1"/>
        <pt x="1164" y="1013" on="0"/>
        <pt x="1042" y="903" on="0"/>
        <pt x="1008" y="710" on="0"/>
        <pt x="1008" y="515" on="1"/>
        <pt x="1008" y="497" on="1"/>
        <pt x="1008" y="360" on="0"/>
        <pt x="958" y="185" on="0"/>
        <pt x="901" y="119" on="1"/>
        <pt x="1036" y="92" on="0"/>
        <pt x="1185" y="-106" on="0"/>
        <pt x="1185" y="-297" on="1"/>
        <pt x="1185" y="-310" on="1"/>
        <pt x="1185" y="-455" on="0"/>
        <pt x="1281" y="-553" on="0"/>
        <pt x="1363" y="-553" on="1"/>
        <pt x="1456" y="-553" on="0"/>
        <pt x="1567" y="-424" on="0"/>
        <pt x="1567" y="-313" on="1"/>
        <pt x="1567" y="-140" on="0"/>
      </contour>
      <contour>
        <pt x="483" y="-351" on="1"/>
        <pt x="486" y="-457" on="0"/>
        <pt x="567" y="-569" on="0"/>
        <pt x="637" y="-569" on="1"/>
        <pt x="772" y="-569" on="0"/>
        <pt x="772" y="-429" on="1"/>
        <pt x="772" y="-367" on="0"/>
        <pt x="701" y="-295" on="0"/>
        <pt x="641" y="-295" on="1"/>
        <pt x="561" y="-295" on="0"/>
      </contour>
    </TTGlyph>
    <TTGlyph name="glyph00158" xMin="74" yMin="-24" xMax="2104" yMax="1162">
      <contour>
        <pt x="819" y="75" on="1"/>
        <pt x="738" y="26" on="0"/>
        <pt x="571" y="-24" on="0"/>
        <pt x="469" y="-24" on="1"/>
        <pt x="280" y="-24" on="0"/>
        <pt x="74" y="151" on="0"/>
        <pt x="74" y="311" on="1"/>
        <pt x="74" y="505" on="0"/>
        <pt x="302" y="593" on="1"/>
        <pt x="84" y="668" on="0"/>
        <pt x="84" y="865" on="1"/>
        <pt x="84" y="993" on="0"/>
        <pt x="286" y="1162" on="0"/>
        <pt x="450" y="1162" on="1"/>
        <pt x="548" y="1162" on="0"/>
        <pt x="710" y="1106" on="0"/>
        <pt x="799" y="1039" on="1"/>
        <pt x="862" y="1100" on="0"/>
        <pt x="1021" y="1162" on="0"/>
        <pt x="1116" y="1162" on="1"/>
        <pt x="1319" y="1162" on="0"/>
        <pt x="1566" y="909" on="0"/>
        <pt x="1591" y="671" on="1"/>
        <pt x="1859" y="666" on="0"/>
        <pt x="2104" y="478" on="0"/>
        <pt x="2104" y="311" on="1"/>
        <pt x="2104" y="155" on="0"/>
        <pt x="1904" y="-24" on="0"/>
        <pt x="1732" y="-24" on="1"/>
        <pt x="1621" y="-24" on="0"/>
        <pt x="1541" y="1" on="1"/>
        <pt x="1581" y="139" on="1"/>
        <pt x="1653" y="120" on="0"/>
        <pt x="1706" y="120" on="1"/>
        <pt x="1813" y="120" on="0"/>
        <pt x="1927" y="218" on="0"/>
        <pt x="1927" y="309" on="1"/>
        <pt x="1927" y="413" on="0"/>
        <pt x="1767" y="521" on="0"/>
        <pt x="1594" y="527" on="1"/>
        <pt x="1582" y="260" on="0"/>
        <pt x="1331" y="-24" on="0"/>
        <pt x="1118" y="-24" on="1"/>
        <pt x="1027" y="-24" on="0"/>
        <pt x="878" y="25" on="0"/>
      </contour>
      <contour>
        <pt x="816" y="672" on="1"/>
        <pt x="1414" y="672" on="1"/>
        <pt x="1397" y="845" on="0"/>
        <pt x="1248" y="1018" on="0"/>
        <pt x="1116" y="1018" on="1"/>
        <pt x="981" y="1018" on="0"/>
        <pt x="831" y="845" on="0"/>
      </contour>
      <contour>
        <pt x="639" y="672" on="1"/>
        <pt x="646" y="740" on="0"/>
        <pt x="681" y="860" on="0"/>
        <pt x="708" y="912" on="1"/>
        <pt x="642" y="969" on="0"/>
        <pt x="522" y="1018" on="0"/>
        <pt x="454" y="1018" on="1"/>
        <pt x="364" y="1018" on="0"/>
        <pt x="257" y="929" on="0"/>
        <pt x="257" y="857" on="1"/>
        <pt x="257" y="768" on="0"/>
        <pt x="389" y="672" on="0"/>
        <pt x="579" y="672" on="1"/>
      </contour>
      <contour>
        <pt x="1417" y="528" on="1"/>
        <pt x="812" y="528" on="1"/>
        <pt x="818" y="324" on="0"/>
        <pt x="968" y="120" on="0"/>
        <pt x="1113" y="120" on="1"/>
        <pt x="1258" y="120" on="0"/>
        <pt x="1410" y="324" on="0"/>
      </contour>
      <contour>
        <pt x="722" y="189" on="1"/>
        <pt x="682" y="256" on="0"/>
        <pt x="639" y="426" on="0"/>
        <pt x="635" y="528" on="1"/>
        <pt x="509" y="525" on="0"/>
        <pt x="376" y="498" on="0"/>
        <pt x="289" y="439" on="0"/>
        <pt x="251" y="367" on="0"/>
        <pt x="251" y="318" on="1"/>
        <pt x="251" y="222" on="0"/>
        <pt x="366" y="120" on="0"/>
        <pt x="473" y="120" on="1"/>
        <pt x="606" y="120" on="0"/>
      </contour>
    </TTGlyph>
    <TTGlyph name="glyph00159" xMin="80" yMin="-24" xMax="3054" yMax="1162">
      <contour>
        <pt x="2260" y="0" on="1"/>
        <pt x="2083" y="0" on="1"/>
        <pt x="2083" y="577" on="1"/>
        <pt x="2083" y="741" on="0"/>
        <pt x="2017" y="915" on="0"/>
        <pt x="1850" y="1023" on="0"/>
        <pt x="1688" y="1023" on="1"/>
        <pt x="1645" y="1023" on="0"/>
        <pt x="1606" y="1019" on="1"/>
        <pt x="1702" y="977" on="0"/>
        <pt x="1798" y="844" on="0"/>
        <pt x="1798" y="754" on="1"/>
        <pt x="1798" y="671" on="0"/>
        <pt x="1714" y="562" on="0"/>
        <pt x="1629" y="524" on="1"/>
        <pt x="1721" y="492" on="0"/>
        <pt x="1820" y="364" on="0"/>
        <pt x="1820" y="279" on="1"/>
        <pt x="1820" y="141" on="0"/>
        <pt x="1619" y="-24" on="0"/>
        <pt x="1434" y="-24" on="1"/>
        <pt x="1216" y="-24" on="0"/>
        <pt x="970" y="252" on="0"/>
        <pt x="970" y="481" on="1"/>
        <pt x="970" y="645" on="0"/>
        <pt x="1099" y="908" on="0"/>
        <pt x="1228" y="1006" on="1"/>
        <pt x="1124" y="1018" on="0"/>
        <pt x="985" y="1018" on="1"/>
        <pt x="688" y="1018" on="0"/>
        <pt x="311" y="799" on="0"/>
        <pt x="261" y="599" on="1"/>
        <pt x="377" y="672" on="0"/>
        <pt x="504" y="672" on="1"/>
        <pt x="656" y="672" on="0"/>
        <pt x="836" y="493" on="0"/>
        <pt x="836" y="337" on="1"/>
        <pt x="836" y="171" on="0"/>
        <pt x="647" y="-24" on="0"/>
        <pt x="486" y="-24" on="1"/>
        <pt x="306" y="-24" on="0"/>
        <pt x="80" y="244" on="0"/>
        <pt x="80" y="484" on="1"/>
        <pt x="80" y="808" on="0"/>
        <pt x="562" y="1162" on="0"/>
        <pt x="980" y="1162" on="1"/>
        <pt x="1111" y="1162" on="0"/>
        <pt x="1308" y="1134" on="0"/>
        <pt x="1402" y="1105" on="1"/>
        <pt x="1542" y="1162" on="0"/>
        <pt x="1713" y="1162" on="1"/>
        <pt x="1866" y="1162" on="0"/>
        <pt x="2092" y="1063" on="0"/>
        <pt x="2177" y="951" on="1"/>
        <pt x="2251" y="1056" on="0"/>
        <pt x="2473" y="1162" on="0"/>
        <pt x="2620" y="1162" on="1"/>
        <pt x="2809" y="1162" on="0"/>
        <pt x="3032" y="981" on="0"/>
        <pt x="3032" y="840" on="1"/>
        <pt x="3032" y="742" on="0"/>
        <pt x="2935" y="608" on="0"/>
        <pt x="2837" y="566" on="1"/>
        <pt x="2943" y="529" on="0"/>
        <pt x="3054" y="385" on="0"/>
        <pt x="3054" y="291" on="1"/>
        <pt x="3054" y="142" on="0"/>
        <pt x="2861" y="-24" on="0"/>
        <pt x="2688" y="-24" on="1"/>
        <pt x="2590" y="-24" on="0"/>
        <pt x="2486" y="-1" on="1"/>
        <pt x="2523" y="140" on="1"/>
        <pt x="2604" y="120" on="0"/>
        <pt x="2668" y="120" on="1"/>
        <pt x="2775" y="120" on="0"/>
        <pt x="2877" y="206" on="0"/>
        <pt x="2877" y="294" on="1"/>
        <pt x="2877" y="353" on="0"/>
        <pt x="2813" y="441" on="0"/>
        <pt x="2698" y="489" on="0"/>
        <pt x="2575" y="489" on="1"/>
        <pt x="2521" y="489" on="1"/>
        <pt x="2521" y="633" on="1"/>
        <pt x="2574" y="633" on="1"/>
        <pt x="2725" y="633" on="0"/>
        <pt x="2855" y="734" on="0"/>
        <pt x="2855" y="825" on="1"/>
        <pt x="2855" y="917" on="0"/>
        <pt x="2727" y="1018" on="0"/>
        <pt x="2610" y="1018" on="1"/>
        <pt x="2480" y="1018" on="0"/>
        <pt x="2319" y="904" on="0"/>
        <pt x="2260" y="739" on="0"/>
        <pt x="2260" y="585" on="1"/>
      </contour>
      <contour>
        <pt x="1422" y="969" on="1"/>
        <pt x="1286" y="902" on="0"/>
        <pt x="1142" y="633" on="0"/>
        <pt x="1142" y="489" on="1"/>
        <pt x="1142" y="309" on="0"/>
        <pt x="1297" y="113" on="0"/>
        <pt x="1438" y="113" on="1"/>
        <pt x="1648" y="113" on="0"/>
        <pt x="1648" y="283" on="1"/>
        <pt x="1648" y="362" on="0"/>
        <pt x="1524" y="446" on="0"/>
        <pt x="1407" y="446" on="1"/>
        <pt x="1368" y="446" on="1"/>
        <pt x="1368" y="590" on="1"/>
        <pt x="1397" y="590" on="1"/>
        <pt x="1626" y="590" on="0"/>
        <pt x="1626" y="755" on="1"/>
        <pt x="1626" y="832" on="0"/>
        <pt x="1524" y="939" on="0"/>
      </contour>
      <contour>
        <pt x="247" y="437" on="1"/>
        <pt x="253" y="286" on="0"/>
        <pt x="386" y="119" on="0"/>
        <pt x="491" y="119" on="1"/>
        <pt x="571" y="119" on="0"/>
        <pt x="665" y="227" on="0"/>
        <pt x="665" y="323" on="1"/>
        <pt x="665" y="418" on="0"/>
        <pt x="564" y="529" on="0"/>
        <pt x="475" y="529" on="1"/>
        <pt x="356" y="529" on="0"/>
      </contour>
    </TTGlyph>
    <TTGlyph name="glyph00160" xMin="35" yMin="-553" xMax="1706" yMax="1134">
      <contour>
        <pt x="1706" y="-553" on="1"/>
        <pt x="696" y="-553" on="1"/>
        <pt x="619" y="-412" on="1"/>
        <pt x="1012" y="-127" on="1"/>
        <pt x="1095" y="-67" on="0"/>
        <pt x="1216" y="5" on="1"/>
        <pt x="1118" y="0" on="0"/>
        <pt x="999" y="0" on="1"/>
        <pt x="35" y="0" on="1"/>
        <pt x="35" y="144" on="1"/>
        <pt x="757" y="144" on="1"/>
        <pt x="851" y="225" on="0"/>
        <pt x="851" y="356" on="1"/>
        <pt x="851" y="454" on="0"/>
        <pt x="739" y="568" on="0"/>
        <pt x="639" y="568" on="1"/>
        <pt x="538" y="568" on="0"/>
        <pt x="426" y="462" on="0"/>
        <pt x="426" y="367" on="1"/>
        <pt x="426" y="325" on="0"/>
        <pt x="431" y="299" on="1"/>
        <pt x="261" y="276" on="1"/>
        <pt x="250" y="333" on="0"/>
        <pt x="250" y="391" on="1"/>
        <pt x="250" y="536" on="0"/>
        <pt x="466" y="712" on="0"/>
        <pt x="644" y="712" on="1"/>
        <pt x="826" y="712" on="0"/>
        <pt x="1023" y="523" on="0"/>
        <pt x="1023" y="375" on="1"/>
        <pt x="1023" y="239" on="0"/>
        <pt x="942" y="144" on="1"/>
        <pt x="1527" y="144" on="1"/>
        <pt x="1527" y="1134" on="1"/>
        <pt x="1706" y="1134" on="1"/>
      </contour>
      <contour>
        <pt x="1527" y="-412" on="1"/>
        <pt x="1527" y="0" on="1"/>
        <pt x="1446" y="0" on="1"/>
        <pt x="862" y="-416" on="1"/>
        <pt x="863" y="-420" on="1"/>
        <pt x="953" y="-412" on="0"/>
        <pt x="1125" y="-412" on="1"/>
      </contour>
    </TTGlyph>
    <TTGlyph name="glyph00161" xMin="35" yMin="-690" xMax="1754" yMax="1134">
      <contour>
        <pt x="261" y="276" on="1"/>
        <pt x="250" y="333" on="0"/>
        <pt x="250" y="391" on="1"/>
        <pt x="250" y="536" on="0"/>
        <pt x="466" y="712" on="0"/>
        <pt x="644" y="712" on="1"/>
        <pt x="826" y="712" on="0"/>
        <pt x="1023" y="523" on="0"/>
        <pt x="1023" y="375" on="1"/>
        <pt x="1023" y="239" on="0"/>
        <pt x="942" y="144" on="1"/>
        <pt x="1527" y="144" on="1"/>
        <pt x="1527" y="1134" on="1"/>
        <pt x="1706" y="1134" on="1"/>
        <pt x="1706" y="0" on="1"/>
        <pt x="1694" y="0" on="1"/>
        <pt x="1658" y="0" on="0"/>
        <pt x="1606" y="3" on="1"/>
        <pt x="1754" y="-120" on="0"/>
        <pt x="1754" y="-342" on="1"/>
        <pt x="1754" y="-509" on="0"/>
        <pt x="1585" y="-690" on="0"/>
        <pt x="1440" y="-690" on="1"/>
        <pt x="1311" y="-690" on="0"/>
        <pt x="1156" y="-531" on="0"/>
        <pt x="1156" y="-411" on="1"/>
        <pt x="1156" y="-285" on="0"/>
        <pt x="1300" y="-132" on="0"/>
        <pt x="1421" y="-132" on="1"/>
        <pt x="1518" y="-132" on="0"/>
        <pt x="1587" y="-193" on="1"/>
        <pt x="1558" y="-103" on="0"/>
        <pt x="1396" y="0" on="0"/>
        <pt x="1281" y="0" on="1"/>
        <pt x="1134" y="0" on="0"/>
        <pt x="962" y="-153" on="0"/>
        <pt x="962" y="-287" on="1"/>
        <pt x="962" y="-365" on="0"/>
        <pt x="1021" y="-492" on="0"/>
        <pt x="1109" y="-572" on="1"/>
        <pt x="1047" y="-690" on="1"/>
        <pt x="40" y="-690" on="1"/>
        <pt x="40" y="-553" on="1"/>
        <pt x="466" y="-553" on="1"/>
        <pt x="525" y="-509" on="0"/>
        <pt x="525" y="-429" on="1"/>
        <pt x="525" y="-370" on="0"/>
        <pt x="457" y="-302" on="0"/>
        <pt x="399" y="-302" on="1"/>
        <pt x="345" y="-302" on="0"/>
        <pt x="289" y="-362" on="0"/>
        <pt x="289" y="-414" on="1"/>
        <pt x="289" y="-437" on="0"/>
        <pt x="287" y="-452" on="1"/>
        <pt x="150" y="-467" on="1"/>
        <pt x="143" y="-428" on="0"/>
        <pt x="143" y="-391" on="1"/>
        <pt x="143" y="-294" on="0"/>
        <pt x="289" y="-177" on="0"/>
        <pt x="411" y="-177" on="1"/>
        <pt x="533" y="-177" on="0"/>
        <pt x="668" y="-304" on="0"/>
        <pt x="668" y="-402" on="1"/>
        <pt x="668" y="-488" on="0"/>
        <pt x="619" y="-553" on="1"/>
        <pt x="908" y="-553" on="1"/>
        <pt x="806" y="-425" on="0"/>
        <pt x="806" y="-266" on="1"/>
        <pt x="806" y="-190" on="0"/>
        <pt x="872" y="-48" on="0"/>
        <pt x="934" y="3" on="1"/>
        <pt x="901" y="0" on="0"/>
        <pt x="797" y="0" on="1"/>
        <pt x="35" y="0" on="1"/>
        <pt x="35" y="144" on="1"/>
        <pt x="757" y="144" on="1"/>
        <pt x="851" y="225" on="0"/>
        <pt x="851" y="356" on="1"/>
        <pt x="851" y="454" on="0"/>
        <pt x="739" y="568" on="0"/>
        <pt x="639" y="568" on="1"/>
        <pt x="538" y="568" on="0"/>
        <pt x="426" y="462" on="0"/>
        <pt x="426" y="367" on="1"/>
        <pt x="426" y="325" on="0"/>
        <pt x="431" y="299" on="1"/>
      </contour>
      <contour>
        <pt x="1606" y="-332" on="1"/>
        <pt x="1606" y="-326" on="1"/>
        <pt x="1546" y="-257" on="0"/>
        <pt x="1460" y="-257" on="1"/>
        <pt x="1383" y="-257" on="0"/>
        <pt x="1301" y="-336" on="0"/>
        <pt x="1301" y="-408" on="1"/>
        <pt x="1301" y="-485" on="0"/>
        <pt x="1373" y="-565" on="0"/>
        <pt x="1442" y="-565" on="1"/>
        <pt x="1526" y="-565" on="0"/>
        <pt x="1606" y="-451" on="0"/>
      </contour>
    </TTGlyph>
    <TTGlyph name="glyph00162" xMin="75" yMin="-60" xMax="3798" yMax="1162">
      <contour>
        <pt x="2047" y="741" on="1"/>
        <pt x="2045" y="760" on="0"/>
        <pt x="2045" y="781" on="1"/>
        <pt x="2045" y="886" on="0"/>
        <pt x="2170" y="1060" on="0"/>
        <pt x="2414" y="1162" on="0"/>
        <pt x="2579" y="1162" on="1"/>
        <pt x="2719" y="1162" on="0"/>
        <pt x="2913" y="1084" on="0"/>
        <pt x="2993" y="997" on="1"/>
        <pt x="3060" y="1079" on="0"/>
        <pt x="3244" y="1162" on="0"/>
        <pt x="3362" y="1162" on="1"/>
        <pt x="3495" y="1162" on="0"/>
        <pt x="3693" y="1060" on="0"/>
        <pt x="3798" y="877" on="0"/>
        <pt x="3798" y="772" on="1"/>
        <pt x="3798" y="653" on="0"/>
        <pt x="3704" y="499" on="0"/>
        <pt x="3603" y="446" on="1"/>
        <pt x="3743" y="390" on="0"/>
        <pt x="3743" y="236" on="1"/>
        <pt x="3743" y="112" on="0"/>
        <pt x="3586" y="-24" on="0"/>
        <pt x="3443" y="-24" on="1"/>
        <pt x="3301" y="-24" on="0"/>
        <pt x="3139" y="115" on="0"/>
        <pt x="3135" y="238" on="1"/>
        <pt x="3009" y="152" on="0"/>
        <pt x="2561" y="-24" on="0"/>
        <pt x="2363" y="-24" on="1"/>
        <pt x="2215" y="-24" on="0"/>
        <pt x="2053" y="106" on="0"/>
        <pt x="2053" y="231" on="1"/>
        <pt x="2053" y="287" on="0"/>
        <pt x="2106" y="394" on="0"/>
        <pt x="2263" y="477" on="0"/>
        <pt x="2423" y="477" on="1"/>
        <pt x="3128" y="477" on="1"/>
        <pt x="3311" y="477" on="0"/>
        <pt x="3507" y="524" on="0"/>
        <pt x="3622" y="649" on="0"/>
        <pt x="3622" y="765" on="1"/>
        <pt x="3622" y="872" on="0"/>
        <pt x="3477" y="1019" on="0"/>
        <pt x="3342" y="1019" on="1"/>
        <pt x="3242" y="1019" on="0"/>
        <pt x="3121" y="938" on="0"/>
        <pt x="3081" y="806" on="0"/>
        <pt x="3081" y="683" on="1"/>
        <pt x="3081" y="531" on="1"/>
        <pt x="2912" y="531" on="1"/>
        <pt x="2912" y="661" on="1"/>
        <pt x="2912" y="761" on="0"/>
        <pt x="2877" y="889" on="0"/>
        <pt x="2788" y="983" on="0"/>
        <pt x="2661" y="1025" on="0"/>
        <pt x="2555" y="1025" on="1"/>
        <pt x="2385" y="1025" on="0"/>
        <pt x="2290" y="969" on="1"/>
        <pt x="2341" y="984" on="0"/>
        <pt x="2391" y="984" on="1"/>
        <pt x="2518" y="984" on="0"/>
        <pt x="2656" y="853" on="0"/>
        <pt x="2656" y="749" on="1"/>
        <pt x="2656" y="636" on="0"/>
        <pt x="2495" y="491" on="0"/>
        <pt x="2356" y="491" on="1"/>
        <pt x="2201" y="491" on="0"/>
        <pt x="2119" y="576" on="1"/>
        <pt x="1978" y="350" on="0"/>
        <pt x="1570" y="60" on="0"/>
        <pt x="1041" y="-60" on="0"/>
        <pt x="620" y="-60" on="1"/>
        <pt x="319" y="-60" on="0"/>
        <pt x="75" y="85" on="0"/>
        <pt x="75" y="231" on="1"/>
        <pt x="75" y="287" on="0"/>
        <pt x="128" y="394" on="0"/>
        <pt x="285" y="477" on="0"/>
        <pt x="445" y="477" on="1"/>
        <pt x="1170" y="477" on="1"/>
        <pt x="1359" y="477" on="0"/>
        <pt x="1554" y="526" on="0"/>
        <pt x="1664" y="652" on="0"/>
        <pt x="1664" y="765" on="1"/>
        <pt x="1664" y="872" on="0"/>
        <pt x="1519" y="1019" on="0"/>
        <pt x="1384" y="1019" on="1"/>
        <pt x="1284" y="1019" on="0"/>
        <pt x="1163" y="938" on="0"/>
        <pt x="1123" y="806" on="0"/>
        <pt x="1123" y="683" on="1"/>
        <pt x="1123" y="531" on="1"/>
        <pt x="954" y="531" on="1"/>
        <pt x="954" y="661" on="1"/>
        <pt x="954" y="761" on="0"/>
        <pt x="919" y="889" on="0"/>
        <pt x="830" y="983" on="0"/>
        <pt x="703" y="1025" on="0"/>
        <pt x="597" y="1025" on="1"/>
        <pt x="427" y="1025" on="0"/>
        <pt x="332" y="969" on="1"/>
        <pt x="383" y="984" on="0"/>
        <pt x="433" y="984" on="1"/>
        <pt x="560" y="984" on="0"/>
        <pt x="698" y="853" on="0"/>
        <pt x="698" y="749" on="1"/>
        <pt x="698" y="636" on="0"/>
        <pt x="537" y="491" on="0"/>
        <pt x="398" y="491" on="1"/>
        <pt x="252" y="491" on="0"/>
        <pt x="87" y="645" on="0"/>
        <pt x="87" y="781" on="1"/>
        <pt x="87" y="886" on="0"/>
        <pt x="212" y="1060" on="0"/>
        <pt x="456" y="1162" on="0"/>
        <pt x="621" y="1162" on="1"/>
        <pt x="761" y="1162" on="0"/>
        <pt x="955" y="1084" on="0"/>
        <pt x="1035" y="997" on="1"/>
        <pt x="1102" y="1079" on="0"/>
        <pt x="1286" y="1162" on="0"/>
        <pt x="1404" y="1162" on="1"/>
        <pt x="1537" y="1162" on="0"/>
        <pt x="1735" y="1060" on="0"/>
        <pt x="1840" y="877" on="0"/>
        <pt x="1840" y="772" on="1"/>
        <pt x="1840" y="618" on="0"/>
        <pt x="1685" y="418" on="0"/>
        <pt x="1412" y="337" on="0"/>
        <pt x="1185" y="337" on="1"/>
        <pt x="494" y="337" on="1"/>
        <pt x="398" y="337" on="0"/>
        <pt x="295" y="320" on="0"/>
        <pt x="244" y="269" on="0"/>
        <pt x="244" y="233" on="1"/>
        <pt x="244" y="163" on="0"/>
        <pt x="384" y="92" on="0"/>
        <pt x="617" y="92" on="1"/>
        <pt x="632" y="92" on="1"/>
        <pt x="1034" y="92" on="0"/>
        <pt x="1497" y="200" on="0"/>
        <pt x="1868" y="457" on="0"/>
      </contour>
      <contour>
        <pt x="2201" y="847" on="1"/>
        <pt x="2188" y="812" on="0"/>
        <pt x="2188" y="780" on="1"/>
        <pt x="2188" y="698" on="0"/>
        <pt x="2272" y="614" on="0"/>
        <pt x="2353" y="614" on="1"/>
        <pt x="2425" y="614" on="0"/>
        <pt x="2500" y="688" on="0"/>
        <pt x="2500" y="752" on="1"/>
        <pt x="2500" y="814" on="0"/>
        <pt x="2424" y="883" on="0"/>
        <pt x="2346" y="883" on="1"/>
        <pt x="2272" y="883" on="0"/>
      </contour>
      <contour>
        <pt x="243" y="847" on="1"/>
        <pt x="230" y="812" on="0"/>
        <pt x="230" y="780" on="1"/>
        <pt x="230" y="698" on="0"/>
        <pt x="314" y="614" on="0"/>
        <pt x="395" y="614" on="1"/>
        <pt x="467" y="614" on="0"/>
        <pt x="542" y="688" on="0"/>
        <pt x="542" y="752" on="1"/>
        <pt x="542" y="814" on="0"/>
        <pt x="466" y="883" on="0"/>
        <pt x="388" y="883" on="1"/>
        <pt x="314" y="883" on="0"/>
      </contour>
      <contour>
        <pt x="3286" y="324" on="1"/>
        <pt x="3277" y="288" on="0"/>
        <pt x="3277" y="251" on="1"/>
        <pt x="3277" y="179" on="0"/>
        <pt x="3362" y="103" on="0"/>
        <pt x="3440" y="103" on="1"/>
        <pt x="3511" y="103" on="0"/>
        <pt x="3587" y="175" on="0"/>
        <pt x="3587" y="235" on="1"/>
        <pt x="3587" y="301" on="0"/>
        <pt x="3505" y="370" on="0"/>
        <pt x="3435" y="370" on="1"/>
        <pt x="3355" y="370" on="0"/>
      </contour>
      <contour>
        <pt x="3117" y="355" on="1"/>
        <pt x="3008" y="340" on="0"/>
        <pt x="2856" y="340" on="1"/>
        <pt x="2472" y="340" on="1"/>
        <pt x="2365" y="340" on="0"/>
        <pt x="2271" y="321" on="0"/>
        <pt x="2222" y="270" on="0"/>
        <pt x="2222" y="228" on="1"/>
        <pt x="2222" y="116" on="0"/>
        <pt x="2373" y="116" on="1"/>
        <pt x="2447" y="116" on="0"/>
        <pt x="2621" y="153" on="0"/>
        <pt x="2775" y="212" on="0"/>
        <pt x="2987" y="304" on="1"/>
        <pt x="3051" y="332" on="0"/>
      </contour>
    </TTGlyph>
    <TTGlyph name="glyph00163" xMin="75" yMin="-60" xMax="4778" yMax="1162">
      <contour>
        <pt x="1982" y="477" on="1"/>
        <pt x="1982" y="494" on="1"/>
        <pt x="1982" y="695" on="0"/>
        <pt x="2144" y="998" on="0"/>
        <pt x="2443" y="1162" on="0"/>
        <pt x="2631" y="1162" on="1"/>
        <pt x="2779" y="1162" on="0"/>
        <pt x="2988" y="1069" on="0"/>
        <pt x="3074" y="963" on="1"/>
        <pt x="3146" y="1062" on="0"/>
        <pt x="3367" y="1162" on="0"/>
        <pt x="3516" y="1162" on="1"/>
        <pt x="3696" y="1162" on="0"/>
        <pt x="3833" y="1096" on="1"/>
        <pt x="3979" y="1162" on="0"/>
        <pt x="4170" y="1162" on="1"/>
        <pt x="4356" y="1162" on="0"/>
        <pt x="4631" y="1017" on="0"/>
        <pt x="4778" y="748" on="0"/>
        <pt x="4778" y="575" on="1"/>
        <pt x="4778" y="191" on="0"/>
        <pt x="4448" y="-18" on="1"/>
        <pt x="4347" y="111" on="1"/>
        <pt x="4470" y="186" on="0"/>
        <pt x="4596" y="411" on="0"/>
        <pt x="4596" y="554" on="1"/>
        <pt x="4596" y="689" on="0"/>
        <pt x="4488" y="905" on="0"/>
        <pt x="4286" y="1021" on="0"/>
        <pt x="4150" y="1021" on="1"/>
        <pt x="4042" y="1021" on="0"/>
        <pt x="3967" y="1001" on="1"/>
        <pt x="4096" y="903" on="0"/>
        <pt x="4237" y="616" on="0"/>
        <pt x="4237" y="448" on="1"/>
        <pt x="4237" y="225" on="0"/>
        <pt x="4018" y="-24" on="0"/>
        <pt x="3820" y="-24" on="1"/>
        <pt x="3623" y="-24" on="0"/>
        <pt x="3402" y="226" on="0"/>
        <pt x="3402" y="448" on="1"/>
        <pt x="3402" y="619" on="0"/>
        <pt x="3553" y="903" on="0"/>
        <pt x="3696" y="1002" on="1"/>
        <pt x="3631" y="1021" on="0"/>
        <pt x="3540" y="1021" on="1"/>
        <pt x="3383" y="1021" on="0"/>
        <pt x="3220" y="912" on="0"/>
        <pt x="3145" y="738" on="0"/>
        <pt x="3145" y="548" on="1"/>
        <pt x="3145" y="0" on="1"/>
        <pt x="2968" y="0" on="1"/>
        <pt x="2968" y="627" on="1"/>
        <pt x="2968" y="792" on="0"/>
        <pt x="2888" y="943" on="0"/>
        <pt x="2740" y="1015" on="0"/>
        <pt x="2628" y="1015" on="1"/>
        <pt x="2443" y="1015" on="0"/>
        <pt x="2188" y="789" on="0"/>
        <pt x="2156" y="594" on="1"/>
        <pt x="2274" y="672" on="0"/>
        <pt x="2404" y="672" on="1"/>
        <pt x="2556" y="672" on="0"/>
        <pt x="2738" y="493" on="0"/>
        <pt x="2738" y="337" on="1"/>
        <pt x="2738" y="171" on="0"/>
        <pt x="2549" y="-24" on="0"/>
        <pt x="2388" y="-24" on="1"/>
        <pt x="2245" y="-24" on="0"/>
        <pt x="2040" y="145" on="0"/>
        <pt x="2003" y="303" on="1"/>
        <pt x="1883" y="188" on="0"/>
        <pt x="1513" y="17" on="0"/>
        <pt x="1017" y="-60" on="0"/>
        <pt x="620" y="-60" on="1"/>
        <pt x="319" y="-60" on="0"/>
        <pt x="75" y="85" on="0"/>
        <pt x="75" y="231" on="1"/>
        <pt x="75" y="287" on="0"/>
        <pt x="128" y="394" on="0"/>
        <pt x="285" y="477" on="0"/>
        <pt x="445" y="477" on="1"/>
        <pt x="1170" y="477" on="1"/>
        <pt x="1353" y="477" on="0"/>
        <pt x="1549" y="524" on="0"/>
        <pt x="1664" y="649" on="0"/>
        <pt x="1664" y="765" on="1"/>
        <pt x="1664" y="872" on="0"/>
        <pt x="1519" y="1019" on="0"/>
        <pt x="1384" y="1019" on="1"/>
        <pt x="1284" y="1019" on="0"/>
        <pt x="1163" y="938" on="0"/>
        <pt x="1123" y="806" on="0"/>
        <pt x="1123" y="683" on="1"/>
        <pt x="1123" y="531" on="1"/>
        <pt x="954" y="531" on="1"/>
        <pt x="954" y="661" on="1"/>
        <pt x="954" y="761" on="0"/>
        <pt x="919" y="889" on="0"/>
        <pt x="830" y="983" on="0"/>
        <pt x="703" y="1025" on="0"/>
        <pt x="597" y="1025" on="1"/>
        <pt x="427" y="1025" on="0"/>
        <pt x="332" y="969" on="1"/>
        <pt x="383" y="984" on="0"/>
        <pt x="433" y="984" on="1"/>
        <pt x="560" y="984" on="0"/>
        <pt x="698" y="853" on="0"/>
        <pt x="698" y="749" on="1"/>
        <pt x="698" y="636" on="0"/>
        <pt x="537" y="491" on="0"/>
        <pt x="398" y="491" on="1"/>
        <pt x="252" y="491" on="0"/>
        <pt x="87" y="645" on="0"/>
        <pt x="87" y="781" on="1"/>
        <pt x="87" y="886" on="0"/>
        <pt x="212" y="1060" on="0"/>
        <pt x="456" y="1162" on="0"/>
        <pt x="621" y="1162" on="1"/>
        <pt x="761" y="1162" on="0"/>
        <pt x="955" y="1084" on="0"/>
        <pt x="1035" y="997" on="1"/>
        <pt x="1102" y="1079" on="0"/>
        <pt x="1286" y="1162" on="0"/>
        <pt x="1404" y="1162" on="1"/>
        <pt x="1537" y="1162" on="0"/>
        <pt x="1735" y="1060" on="0"/>
        <pt x="1840" y="877" on="0"/>
        <pt x="1840" y="772" on="1"/>
        <pt x="1840" y="618" on="0"/>
        <pt x="1685" y="418" on="0"/>
        <pt x="1412" y="337" on="0"/>
        <pt x="1185" y="337" on="1"/>
        <pt x="494" y="337" on="1"/>
        <pt x="397" y="337" on="0"/>
        <pt x="294" y="319" on="0"/>
        <pt x="244" y="271" on="0"/>
        <pt x="244" y="235" on="1"/>
        <pt x="244" y="162" on="0"/>
        <pt x="390" y="92" on="0"/>
        <pt x="617" y="92" on="1"/>
        <pt x="632" y="92" on="1"/>
        <pt x="1032" y="92" on="0"/>
        <pt x="1511" y="173" on="0"/>
        <pt x="1845" y="346" on="0"/>
      </contour>
      <contour>
        <pt x="3830" y="937" on="1"/>
        <pt x="3715" y="864" on="0"/>
        <pt x="3582" y="608" on="0"/>
        <pt x="3582" y="453" on="1"/>
        <pt x="3582" y="287" on="0"/>
        <pt x="3703" y="120" on="0"/>
        <pt x="3820" y="120" on="1"/>
        <pt x="4057" y="120" on="0"/>
        <pt x="4057" y="453" on="1"/>
        <pt x="4057" y="604" on="0"/>
        <pt x="3938" y="863" on="0"/>
      </contour>
      <contour>
        <pt x="243" y="847" on="1"/>
        <pt x="230" y="812" on="0"/>
        <pt x="230" y="780" on="1"/>
        <pt x="230" y="698" on="0"/>
        <pt x="314" y="614" on="0"/>
        <pt x="395" y="614" on="1"/>
        <pt x="467" y="614" on="0"/>
        <pt x="542" y="688" on="0"/>
        <pt x="542" y="752" on="1"/>
        <pt x="542" y="814" on="0"/>
        <pt x="466" y="883" on="0"/>
        <pt x="388" y="883" on="1"/>
        <pt x="314" y="883" on="0"/>
      </contour>
      <contour>
        <pt x="2149" y="436" on="1"/>
        <pt x="2154" y="285" on="0"/>
        <pt x="2282" y="119" on="0"/>
        <pt x="2392" y="119" on="1"/>
        <pt x="2471" y="119" on="0"/>
        <pt x="2567" y="225" on="0"/>
        <pt x="2567" y="322" on="1"/>
        <pt x="2567" y="419" on="0"/>
        <pt x="2463" y="529" on="0"/>
        <pt x="2375" y="529" on="1"/>
        <pt x="2259" y="529" on="0"/>
      </contour>
    </TTGlyph>
    <TTGlyph name="glyph00164" xMin="85" yMin="-24" xMax="3207" yMax="1162">
      <contour>
        <pt x="1510" y="144" on="1"/>
        <pt x="2318" y="144" on="1"/>
        <pt x="2413" y="231" on="0"/>
        <pt x="2509" y="455" on="0"/>
        <pt x="2509" y="583" on="1"/>
        <pt x="2509" y="779" on="0"/>
        <pt x="2299" y="1021" on="0"/>
        <pt x="2124" y="1021" on="1"/>
        <pt x="2061" y="1021" on="0"/>
        <pt x="2011" y="1010" on="1"/>
        <pt x="2111" y="932" on="0"/>
        <pt x="2214" y="733" on="0"/>
        <pt x="2214" y="623" on="1"/>
        <pt x="2214" y="460" on="0"/>
        <pt x="2021" y="267" on="0"/>
        <pt x="1865" y="267" on="1"/>
        <pt x="1708" y="267" on="0"/>
        <pt x="1516" y="460" on="0"/>
        <pt x="1516" y="623" on="1"/>
        <pt x="1516" y="729" on="0"/>
        <pt x="1626" y="934" on="0"/>
        <pt x="1729" y="1012" on="1"/>
        <pt x="1689" y="1021" on="0"/>
        <pt x="1621" y="1021" on="1"/>
        <pt x="1487" y="1021" on="0"/>
        <pt x="1332" y="930" on="0"/>
        <pt x="1248" y="752" on="0"/>
        <pt x="1248" y="548" on="1"/>
        <pt x="1248" y="0" on="1"/>
        <pt x="1071" y="0" on="1"/>
        <pt x="1071" y="627" on="1"/>
        <pt x="1071" y="792" on="0"/>
        <pt x="991" y="943" on="0"/>
        <pt x="843" y="1015" on="0"/>
        <pt x="731" y="1015" on="1"/>
        <pt x="546" y="1015" on="0"/>
        <pt x="291" y="789" on="0"/>
        <pt x="259" y="594" on="1"/>
        <pt x="377" y="672" on="0"/>
        <pt x="507" y="672" on="1"/>
        <pt x="659" y="672" on="0"/>
        <pt x="841" y="493" on="0"/>
        <pt x="841" y="337" on="1"/>
        <pt x="841" y="171" on="0"/>
        <pt x="652" y="-24" on="0"/>
        <pt x="491" y="-24" on="1"/>
        <pt x="372" y="-24" on="0"/>
        <pt x="185" y="97" on="0"/>
        <pt x="85" y="332" on="0"/>
        <pt x="85" y="494" on="1"/>
        <pt x="85" y="695" on="0"/>
        <pt x="247" y="998" on="0"/>
        <pt x="546" y="1162" on="0"/>
        <pt x="734" y="1162" on="1"/>
        <pt x="880" y="1162" on="0"/>
        <pt x="1091" y="1070" on="0"/>
        <pt x="1178" y="962" on="1"/>
        <pt x="1249" y="1062" on="0"/>
        <pt x="1459" y="1162" on="0"/>
        <pt x="1598" y="1162" on="1"/>
        <pt x="1758" y="1162" on="0"/>
        <pt x="1874" y="1111" on="1"/>
        <pt x="1996" y="1162" on="0"/>
        <pt x="2130" y="1162" on="1"/>
        <pt x="2395" y="1162" on="0"/>
        <pt x="2688" y="850" on="0"/>
        <pt x="2688" y="589" on="1"/>
        <pt x="2688" y="461" on="0"/>
        <pt x="2613" y="244" on="0"/>
        <pt x="2532" y="144" on="1"/>
        <pt x="3028" y="144" on="1"/>
        <pt x="3028" y="1134" on="1"/>
        <pt x="3207" y="1134" on="1"/>
        <pt x="3207" y="0" on="1"/>
        <pt x="1509" y="0" on="1"/>
      </contour>
      <contour>
        <pt x="1870" y="955" on="1"/>
        <pt x="1784" y="900" on="0"/>
        <pt x="1693" y="731" on="0"/>
        <pt x="1693" y="630" on="1"/>
        <pt x="1693" y="523" on="0"/>
        <pt x="1785" y="411" on="0"/>
        <pt x="1865" y="411" on="1"/>
        <pt x="1950" y="411" on="0"/>
        <pt x="2037" y="523" on="0"/>
        <pt x="2037" y="631" on="1"/>
        <pt x="2037" y="730" on="0"/>
        <pt x="1951" y="900" on="0"/>
      </contour>
      <contour>
        <pt x="252" y="436" on="1"/>
        <pt x="257" y="285" on="0"/>
        <pt x="385" y="119" on="0"/>
        <pt x="495" y="119" on="1"/>
        <pt x="574" y="119" on="0"/>
        <pt x="670" y="225" on="0"/>
        <pt x="670" y="322" on="1"/>
        <pt x="670" y="419" on="0"/>
        <pt x="566" y="529" on="0"/>
        <pt x="478" y="529" on="1"/>
        <pt x="362" y="529" on="0"/>
      </contour>
    </TTGlyph>
    <TTGlyph name="glyph00165" xMin="85" yMin="-24" xMax="4307" yMax="1162">
      <contour>
        <pt x="4105" y="732" on="1"/>
        <pt x="4055" y="865" on="0"/>
        <pt x="3802" y="1014" on="0"/>
        <pt x="3626" y="1014" on="1"/>
        <pt x="3400" y="1014" on="0"/>
        <pt x="3142" y="772" on="0"/>
        <pt x="3142" y="559" on="1"/>
        <pt x="3142" y="434" on="0"/>
        <pt x="3244" y="222" on="0"/>
        <pt x="3370" y="111" on="1"/>
        <pt x="3297" y="0" on="1"/>
        <pt x="1509" y="0" on="1"/>
        <pt x="1510" y="144" on="1"/>
        <pt x="2318" y="144" on="1"/>
        <pt x="2413" y="231" on="0"/>
        <pt x="2509" y="455" on="0"/>
        <pt x="2509" y="583" on="1"/>
        <pt x="2509" y="779" on="0"/>
        <pt x="2299" y="1021" on="0"/>
        <pt x="2124" y="1021" on="1"/>
        <pt x="2061" y="1021" on="0"/>
        <pt x="2011" y="1010" on="1"/>
        <pt x="2111" y="932" on="0"/>
        <pt x="2214" y="733" on="0"/>
        <pt x="2214" y="623" on="1"/>
        <pt x="2214" y="460" on="0"/>
        <pt x="2021" y="267" on="0"/>
        <pt x="1865" y="267" on="1"/>
        <pt x="1708" y="267" on="0"/>
        <pt x="1516" y="460" on="0"/>
        <pt x="1516" y="623" on="1"/>
        <pt x="1516" y="729" on="0"/>
        <pt x="1626" y="934" on="0"/>
        <pt x="1729" y="1012" on="1"/>
        <pt x="1689" y="1021" on="0"/>
        <pt x="1621" y="1021" on="1"/>
        <pt x="1487" y="1021" on="0"/>
        <pt x="1332" y="930" on="0"/>
        <pt x="1248" y="752" on="0"/>
        <pt x="1248" y="548" on="1"/>
        <pt x="1248" y="0" on="1"/>
        <pt x="1071" y="0" on="1"/>
        <pt x="1071" y="627" on="1"/>
        <pt x="1071" y="792" on="0"/>
        <pt x="991" y="943" on="0"/>
        <pt x="843" y="1015" on="0"/>
        <pt x="731" y="1015" on="1"/>
        <pt x="546" y="1015" on="0"/>
        <pt x="291" y="789" on="0"/>
        <pt x="259" y="594" on="1"/>
        <pt x="377" y="672" on="0"/>
        <pt x="507" y="672" on="1"/>
        <pt x="659" y="672" on="0"/>
        <pt x="841" y="493" on="0"/>
        <pt x="841" y="337" on="1"/>
        <pt x="841" y="171" on="0"/>
        <pt x="652" y="-24" on="0"/>
        <pt x="491" y="-24" on="1"/>
        <pt x="372" y="-24" on="0"/>
        <pt x="185" y="97" on="0"/>
        <pt x="85" y="332" on="0"/>
        <pt x="85" y="494" on="1"/>
        <pt x="85" y="695" on="0"/>
        <pt x="247" y="998" on="0"/>
        <pt x="546" y="1162" on="0"/>
        <pt x="734" y="1162" on="1"/>
        <pt x="880" y="1162" on="0"/>
        <pt x="1091" y="1070" on="0"/>
        <pt x="1178" y="962" on="1"/>
        <pt x="1249" y="1062" on="0"/>
        <pt x="1459" y="1162" on="0"/>
        <pt x="1598" y="1162" on="1"/>
        <pt x="1758" y="1162" on="0"/>
        <pt x="1874" y="1111" on="1"/>
        <pt x="1996" y="1162" on="0"/>
        <pt x="2130" y="1162" on="1"/>
        <pt x="2395" y="1162" on="0"/>
        <pt x="2688" y="850" on="0"/>
        <pt x="2688" y="589" on="1"/>
        <pt x="2688" y="461" on="0"/>
        <pt x="2613" y="244" on="0"/>
        <pt x="2532" y="144" on="1"/>
        <pt x="3127" y="144" on="1"/>
        <pt x="3043" y="241" on="0"/>
        <pt x="2960" y="457" on="0"/>
        <pt x="2960" y="567" on="1"/>
        <pt x="2960" y="736" on="0"/>
        <pt x="3115" y="1011" on="0"/>
        <pt x="3417" y="1162" on="0"/>
        <pt x="3625" y="1162" on="1"/>
        <pt x="3834" y="1162" on="0"/>
        <pt x="4141" y="1005" on="0"/>
        <pt x="4307" y="700" on="0"/>
        <pt x="4307" y="495" on="1"/>
        <pt x="4307" y="243" on="0"/>
        <pt x="4078" y="-24" on="0"/>
        <pt x="3873" y="-24" on="1"/>
        <pt x="3691" y="-24" on="0"/>
        <pt x="3475" y="216" on="0"/>
        <pt x="3475" y="402" on="1"/>
        <pt x="3475" y="595" on="0"/>
        <pt x="3685" y="827" on="0"/>
        <pt x="3860" y="827" on="1"/>
        <pt x="3998" y="827" on="0"/>
      </contour>
      <contour>
        <pt x="1870" y="955" on="1"/>
        <pt x="1784" y="900" on="0"/>
        <pt x="1693" y="731" on="0"/>
        <pt x="1693" y="630" on="1"/>
        <pt x="1693" y="523" on="0"/>
        <pt x="1785" y="411" on="0"/>
        <pt x="1865" y="411" on="1"/>
        <pt x="1950" y="411" on="0"/>
        <pt x="2037" y="523" on="0"/>
        <pt x="2037" y="631" on="1"/>
        <pt x="2037" y="730" on="0"/>
        <pt x="1951" y="900" on="0"/>
      </contour>
      <contour>
        <pt x="4134" y="561" on="1"/>
        <pt x="4087" y="621" on="0"/>
        <pt x="3964" y="684" on="0"/>
        <pt x="3895" y="684" on="1"/>
        <pt x="3775" y="684" on="0"/>
        <pt x="3648" y="539" on="0"/>
        <pt x="3648" y="406" on="1"/>
        <pt x="3648" y="266" on="0"/>
        <pt x="3763" y="120" on="0"/>
        <pt x="3873" y="120" on="1"/>
        <pt x="4007" y="120" on="0"/>
        <pt x="4137" y="313" on="0"/>
        <pt x="4137" y="508" on="1"/>
        <pt x="4137" y="524" on="0"/>
      </contour>
      <contour>
        <pt x="252" y="436" on="1"/>
        <pt x="257" y="285" on="0"/>
        <pt x="385" y="119" on="0"/>
        <pt x="495" y="119" on="1"/>
        <pt x="574" y="119" on="0"/>
        <pt x="670" y="225" on="0"/>
        <pt x="670" y="322" on="1"/>
        <pt x="670" y="419" on="0"/>
        <pt x="566" y="529" on="0"/>
        <pt x="478" y="529" on="1"/>
        <pt x="362" y="529" on="0"/>
      </contour>
    </TTGlyph>
    <TTGlyph name="glyph00166" xMin="85" yMin="-24" xMax="3298" yMax="1162">
      <contour>
        <pt x="1071" y="627" on="1"/>
        <pt x="1071" y="792" on="0"/>
        <pt x="991" y="943" on="0"/>
        <pt x="843" y="1015" on="0"/>
        <pt x="731" y="1015" on="1"/>
        <pt x="546" y="1015" on="0"/>
        <pt x="291" y="789" on="0"/>
        <pt x="259" y="594" on="1"/>
        <pt x="377" y="672" on="0"/>
        <pt x="507" y="672" on="1"/>
        <pt x="659" y="672" on="0"/>
        <pt x="841" y="493" on="0"/>
        <pt x="841" y="337" on="1"/>
        <pt x="841" y="171" on="0"/>
        <pt x="652" y="-24" on="0"/>
        <pt x="491" y="-24" on="1"/>
        <pt x="372" y="-24" on="0"/>
        <pt x="185" y="97" on="0"/>
        <pt x="85" y="332" on="0"/>
        <pt x="85" y="494" on="1"/>
        <pt x="85" y="695" on="0"/>
        <pt x="247" y="998" on="0"/>
        <pt x="546" y="1162" on="0"/>
        <pt x="734" y="1162" on="1"/>
        <pt x="882" y="1162" on="0"/>
        <pt x="1091" y="1069" on="0"/>
        <pt x="1177" y="963" on="1"/>
        <pt x="1249" y="1062" on="0"/>
        <pt x="1470" y="1162" on="0"/>
        <pt x="1619" y="1162" on="1"/>
        <pt x="1745" y="1162" on="0"/>
        <pt x="1848" y="1120" on="1"/>
        <pt x="1958" y="1162" on="0"/>
        <pt x="2085" y="1162" on="1"/>
        <pt x="2217" y="1162" on="0"/>
        <pt x="2412" y="1086" on="0"/>
        <pt x="2493" y="997" on="1"/>
        <pt x="2560" y="1079" on="0"/>
        <pt x="2744" y="1162" on="0"/>
        <pt x="2862" y="1162" on="1"/>
        <pt x="2995" y="1162" on="0"/>
        <pt x="3193" y="1060" on="0"/>
        <pt x="3298" y="877" on="0"/>
        <pt x="3298" y="772" on="1"/>
        <pt x="3298" y="653" on="0"/>
        <pt x="3204" y="499" on="0"/>
        <pt x="3103" y="446" on="1"/>
        <pt x="3243" y="390" on="0"/>
        <pt x="3243" y="236" on="1"/>
        <pt x="3243" y="112" on="0"/>
        <pt x="3086" y="-24" on="0"/>
        <pt x="2943" y="-24" on="1"/>
        <pt x="2801" y="-24" on="0"/>
        <pt x="2639" y="115" on="0"/>
        <pt x="2635" y="238" on="1"/>
        <pt x="2509" y="152" on="0"/>
        <pt x="2061" y="-24" on="0"/>
        <pt x="1863" y="-24" on="1"/>
        <pt x="1707" y="-24" on="0"/>
        <pt x="1533" y="106" on="0"/>
        <pt x="1533" y="231" on="1"/>
        <pt x="1533" y="287" on="0"/>
        <pt x="1586" y="394" on="0"/>
        <pt x="1743" y="477" on="0"/>
        <pt x="1903" y="477" on="1"/>
        <pt x="2628" y="477" on="1"/>
        <pt x="2811" y="477" on="0"/>
        <pt x="3007" y="524" on="0"/>
        <pt x="3122" y="649" on="0"/>
        <pt x="3122" y="765" on="1"/>
        <pt x="3122" y="872" on="0"/>
        <pt x="2977" y="1019" on="0"/>
        <pt x="2842" y="1019" on="1"/>
        <pt x="2742" y="1019" on="0"/>
        <pt x="2621" y="938" on="0"/>
        <pt x="2581" y="806" on="0"/>
        <pt x="2581" y="683" on="1"/>
        <pt x="2581" y="531" on="1"/>
        <pt x="2412" y="531" on="1"/>
        <pt x="2412" y="661" on="1"/>
        <pt x="2412" y="780" on="0"/>
        <pt x="2366" y="910" on="0"/>
        <pt x="2274" y="993" on="0"/>
        <pt x="2151" y="1028" on="0"/>
        <pt x="2073" y="1028" on="1"/>
        <pt x="2042" y="1028" on="0"/>
        <pt x="2007" y="1023" on="1"/>
        <pt x="2079" y="975" on="0"/>
        <pt x="2157" y="837" on="0"/>
        <pt x="2157" y="756" on="1"/>
        <pt x="2157" y="637" on="0"/>
        <pt x="1995" y="491" on="0"/>
        <pt x="1853" y="491" on="1"/>
        <pt x="1712" y="491" on="0"/>
        <pt x="1546" y="637" on="0"/>
        <pt x="1546" y="761" on="1"/>
        <pt x="1546" y="911" on="0"/>
        <pt x="1688" y="1019" on="1"/>
        <pt x="1653" y="1021" on="0"/>
        <pt x="1631" y="1021" on="1"/>
        <pt x="1481" y="1021" on="0"/>
        <pt x="1319" y="907" on="0"/>
        <pt x="1248" y="734" on="0"/>
        <pt x="1248" y="548" on="1"/>
        <pt x="1248" y="0" on="1"/>
        <pt x="1071" y="0" on="1"/>
      </contour>
      <contour>
        <pt x="1848" y="985" on="1"/>
        <pt x="1778" y="947" on="0"/>
        <pt x="1704" y="833" on="0"/>
        <pt x="1704" y="765" on="1"/>
        <pt x="1704" y="614" on="0"/>
        <pt x="1853" y="614" on="1"/>
        <pt x="1999" y="614" on="0"/>
        <pt x="1999" y="765" on="1"/>
        <pt x="1999" y="911" on="0"/>
      </contour>
      <contour>
        <pt x="252" y="436" on="1"/>
        <pt x="257" y="285" on="0"/>
        <pt x="385" y="119" on="0"/>
        <pt x="495" y="119" on="1"/>
        <pt x="574" y="119" on="0"/>
        <pt x="670" y="225" on="0"/>
        <pt x="670" y="322" on="1"/>
        <pt x="670" y="419" on="0"/>
        <pt x="566" y="529" on="0"/>
        <pt x="478" y="529" on="1"/>
        <pt x="362" y="529" on="0"/>
      </contour>
      <contour>
        <pt x="2786" y="323" on="1"/>
        <pt x="2777" y="292" on="0"/>
        <pt x="2777" y="253" on="1"/>
        <pt x="2777" y="180" on="0"/>
        <pt x="2860" y="103" on="0"/>
        <pt x="2940" y="103" on="1"/>
        <pt x="3011" y="103" on="0"/>
        <pt x="3087" y="175" on="0"/>
        <pt x="3087" y="237" on="1"/>
        <pt x="3087" y="303" on="0"/>
        <pt x="3005" y="370" on="0"/>
        <pt x="2935" y="370" on="1"/>
        <pt x="2856" y="370" on="0"/>
      </contour>
      <contour>
        <pt x="2616" y="355" on="1"/>
        <pt x="2508" y="340" on="0"/>
        <pt x="2356" y="340" on="1"/>
        <pt x="1952" y="340" on="1"/>
        <pt x="1840" y="340" on="0"/>
        <pt x="1749" y="320" on="0"/>
        <pt x="1702" y="270" on="0"/>
        <pt x="1702" y="233" on="1"/>
        <pt x="1702" y="116" on="0"/>
        <pt x="1863" y="116" on="1"/>
        <pt x="1943" y="116" on="0"/>
        <pt x="2119" y="152" on="0"/>
        <pt x="2265" y="208" on="0"/>
        <pt x="2487" y="304" on="1"/>
        <pt x="2551" y="332" on="0"/>
      </contour>
    </TTGlyph>
    <TTGlyph name="glyph00167" xMin="85" yMin="-24" xMax="4408" yMax="1162">
      <contour>
        <pt x="1071" y="627" on="1"/>
        <pt x="1071" y="792" on="0"/>
        <pt x="991" y="943" on="0"/>
        <pt x="843" y="1015" on="0"/>
        <pt x="731" y="1015" on="1"/>
        <pt x="546" y="1015" on="0"/>
        <pt x="291" y="789" on="0"/>
        <pt x="259" y="594" on="1"/>
        <pt x="377" y="672" on="0"/>
        <pt x="507" y="672" on="1"/>
        <pt x="659" y="672" on="0"/>
        <pt x="841" y="493" on="0"/>
        <pt x="841" y="337" on="1"/>
        <pt x="841" y="171" on="0"/>
        <pt x="652" y="-24" on="0"/>
        <pt x="491" y="-24" on="1"/>
        <pt x="372" y="-24" on="0"/>
        <pt x="185" y="97" on="0"/>
        <pt x="85" y="332" on="0"/>
        <pt x="85" y="494" on="1"/>
        <pt x="85" y="695" on="0"/>
        <pt x="247" y="998" on="0"/>
        <pt x="546" y="1162" on="0"/>
        <pt x="734" y="1162" on="1"/>
        <pt x="882" y="1162" on="0"/>
        <pt x="1091" y="1069" on="0"/>
        <pt x="1177" y="963" on="1"/>
        <pt x="1249" y="1062" on="0"/>
        <pt x="1470" y="1162" on="0"/>
        <pt x="1619" y="1162" on="1"/>
        <pt x="1797" y="1162" on="0"/>
        <pt x="1928" y="1100" on="1"/>
        <pt x="2066" y="1162" on="0"/>
        <pt x="2233" y="1162" on="1"/>
        <pt x="2390" y="1162" on="0"/>
        <pt x="2618" y="1050" on="0"/>
        <pt x="2690" y="939" on="1"/>
        <pt x="2761" y="1050" on="0"/>
        <pt x="2989" y="1162" on="0"/>
        <pt x="3146" y="1162" on="1"/>
        <pt x="3326" y="1162" on="0"/>
        <pt x="3463" y="1096" on="1"/>
        <pt x="3609" y="1162" on="0"/>
        <pt x="3800" y="1162" on="1"/>
        <pt x="3986" y="1162" on="0"/>
        <pt x="4261" y="1017" on="0"/>
        <pt x="4408" y="748" on="0"/>
        <pt x="4408" y="575" on="1"/>
        <pt x="4408" y="191" on="0"/>
        <pt x="4078" y="-18" on="1"/>
        <pt x="3977" y="111" on="1"/>
        <pt x="4100" y="186" on="0"/>
        <pt x="4226" y="411" on="0"/>
        <pt x="4226" y="554" on="1"/>
        <pt x="4226" y="689" on="0"/>
        <pt x="4118" y="905" on="0"/>
        <pt x="3916" y="1021" on="0"/>
        <pt x="3780" y="1021" on="1"/>
        <pt x="3672" y="1021" on="0"/>
        <pt x="3597" y="1001" on="1"/>
        <pt x="3726" y="903" on="0"/>
        <pt x="3867" y="616" on="0"/>
        <pt x="3867" y="448" on="1"/>
        <pt x="3867" y="225" on="0"/>
        <pt x="3648" y="-24" on="0"/>
        <pt x="3450" y="-24" on="1"/>
        <pt x="3253" y="-24" on="0"/>
        <pt x="3032" y="226" on="0"/>
        <pt x="3032" y="448" on="1"/>
        <pt x="3032" y="619" on="0"/>
        <pt x="3183" y="903" on="0"/>
        <pt x="3326" y="1002" on="1"/>
        <pt x="3261" y="1021" on="0"/>
        <pt x="3170" y="1021" on="1"/>
        <pt x="3013" y="1021" on="0"/>
        <pt x="2850" y="912" on="0"/>
        <pt x="2775" y="738" on="0"/>
        <pt x="2775" y="548" on="1"/>
        <pt x="2775" y="0" on="1"/>
        <pt x="2598" y="0" on="1"/>
        <pt x="2598" y="552" on="1"/>
        <pt x="2598" y="710" on="0"/>
        <pt x="2548" y="876" on="0"/>
        <pt x="2440" y="979" on="0"/>
        <pt x="2312" y="1021" on="0"/>
        <pt x="2208" y="1021" on="1"/>
        <pt x="2120" y="1021" on="0"/>
        <pt x="2063" y="1006" on="1"/>
        <pt x="2198" y="907" on="0"/>
        <pt x="2340" y="617" on="0"/>
        <pt x="2340" y="448" on="1"/>
        <pt x="2340" y="225" on="0"/>
        <pt x="2123" y="-24" on="0"/>
        <pt x="1928" y="-24" on="1"/>
        <pt x="1727" y="-24" on="0"/>
        <pt x="1506" y="226" on="0"/>
        <pt x="1506" y="448" on="1"/>
        <pt x="1506" y="620" on="0"/>
        <pt x="1651" y="904" on="0"/>
        <pt x="1791" y="1005" on="1"/>
        <pt x="1724" y="1021" on="0"/>
        <pt x="1643" y="1021" on="1"/>
        <pt x="1486" y="1021" on="0"/>
        <pt x="1323" y="912" on="0"/>
        <pt x="1248" y="738" on="0"/>
        <pt x="1248" y="548" on="1"/>
        <pt x="1248" y="0" on="1"/>
        <pt x="1071" y="0" on="1"/>
      </contour>
      <contour>
        <pt x="1928" y="941" on="1"/>
        <pt x="1813" y="866" on="0"/>
        <pt x="1685" y="609" on="0"/>
        <pt x="1685" y="453" on="1"/>
        <pt x="1685" y="287" on="0"/>
        <pt x="1806" y="120" on="0"/>
        <pt x="1923" y="120" on="1"/>
        <pt x="2044" y="120" on="0"/>
        <pt x="2160" y="287" on="0"/>
        <pt x="2160" y="453" on="1"/>
        <pt x="2160" y="605" on="0"/>
        <pt x="2037" y="867" on="0"/>
      </contour>
      <contour>
        <pt x="3460" y="937" on="1"/>
        <pt x="3345" y="864" on="0"/>
        <pt x="3212" y="608" on="0"/>
        <pt x="3212" y="453" on="1"/>
        <pt x="3212" y="287" on="0"/>
        <pt x="3333" y="120" on="0"/>
        <pt x="3450" y="120" on="1"/>
        <pt x="3687" y="120" on="0"/>
        <pt x="3687" y="453" on="1"/>
        <pt x="3687" y="604" on="0"/>
        <pt x="3568" y="863" on="0"/>
      </contour>
      <contour>
        <pt x="252" y="436" on="1"/>
        <pt x="257" y="285" on="0"/>
        <pt x="385" y="119" on="0"/>
        <pt x="495" y="119" on="1"/>
        <pt x="574" y="119" on="0"/>
        <pt x="670" y="225" on="0"/>
        <pt x="670" y="322" on="1"/>
        <pt x="670" y="419" on="0"/>
        <pt x="566" y="529" on="0"/>
        <pt x="478" y="529" on="1"/>
        <pt x="362" y="529" on="0"/>
      </contour>
    </TTGlyph>
    <TTGlyph name="glyph00168" xMin="41" yMin="-504" xMax="1097" yMax="1162">
      <contour>
        <pt x="963" y="82" on="1"/>
        <pt x="1082" y="-12" on="0"/>
        <pt x="1082" y="-163" on="1"/>
        <pt x="1082" y="-323" on="0"/>
        <pt x="827" y="-504" on="0"/>
        <pt x="591" y="-504" on="1"/>
        <pt x="444" y="-504" on="0"/>
        <pt x="177" y="-435" on="0"/>
        <pt x="41" y="-359" on="1"/>
        <pt x="136" y="-221" on="1"/>
        <pt x="348" y="-354" on="0"/>
        <pt x="600" y="-354" on="1"/>
        <pt x="751" y="-354" on="0"/>
        <pt x="907" y="-254" on="0"/>
        <pt x="907" y="-165" on="1"/>
        <pt x="907" y="-113" on="0"/>
        <pt x="849" y="-20" on="0"/>
        <pt x="789" y="14" on="1"/>
        <pt x="723" y="0" on="0"/>
        <pt x="624" y="0" on="1"/>
        <pt x="87" y="0" on="1"/>
        <pt x="87" y="144" on="1"/>
        <pt x="558" y="144" on="1"/>
        <pt x="715" y="144" on="0"/>
        <pt x="843" y="181" on="0"/>
        <pt x="903" y="262" on="0"/>
        <pt x="903" y="315" on="1"/>
        <pt x="903" y="381" on="0"/>
        <pt x="845" y="459" on="0"/>
        <pt x="729" y="500" on="0"/>
        <pt x="609" y="500" on="1"/>
        <pt x="572" y="500" on="1"/>
        <pt x="300" y="500" on="0"/>
        <pt x="71" y="660" on="0"/>
        <pt x="71" y="823" on="1"/>
        <pt x="71" y="981" on="0"/>
        <pt x="321" y="1162" on="0"/>
        <pt x="550" y="1162" on="1"/>
        <pt x="853" y="1162" on="0"/>
        <pt x="1097" y="1023" on="1"/>
        <pt x="1002" y="884" on="1"/>
        <pt x="801" y="1012" on="0"/>
        <pt x="548" y="1012" on="1"/>
        <pt x="404" y="1012" on="0"/>
        <pt x="250" y="912" on="0"/>
        <pt x="250" y="825" on="1"/>
        <pt x="250" y="731" on="0"/>
        <pt x="391" y="650" on="0"/>
        <pt x="613" y="650" on="1"/>
        <pt x="628" y="650" on="1"/>
        <pt x="778" y="650" on="0"/>
        <pt x="970" y="588" on="0"/>
        <pt x="1082" y="442" on="0"/>
        <pt x="1082" y="317" on="1"/>
        <pt x="1082" y="239" on="0"/>
        <pt x="1022" y="121" on="0"/>
      </contour>
    </TTGlyph>
    <TTGlyph name="glyph00169" xMin="80" yMin="-690" xMax="2425" yMax="1162">
      <contour>
        <pt x="827" y="586" on="1"/>
        <pt x="827" y="747" on="0"/>
        <pt x="788" y="916" on="0"/>
        <pt x="667" y="1014" on="0"/>
        <pt x="567" y="1014" on="1"/>
        <pt x="431" y="1014" on="0"/>
        <pt x="260" y="784" on="0"/>
        <pt x="260" y="594" on="1"/>
        <pt x="260" y="287" on="0"/>
        <pt x="505" y="112" on="1"/>
        <pt x="388" y="-17" on="1"/>
        <pt x="223" y="114" on="0"/>
        <pt x="80" y="407" on="0"/>
        <pt x="80" y="600" on="1"/>
        <pt x="80" y="856" on="0"/>
        <pt x="355" y="1162" on="0"/>
        <pt x="581" y="1162" on="1"/>
        <pt x="686" y="1162" on="0"/>
        <pt x="847" y="1099" on="0"/>
        <pt x="961" y="967" on="0"/>
        <pt x="1006" y="777" on="0"/>
        <pt x="1006" y="606" on="1"/>
        <pt x="1006" y="552" on="1"/>
        <pt x="1006" y="366" on="0"/>
        <pt x="1048" y="209" on="0"/>
        <pt x="1156" y="123" on="0"/>
        <pt x="1245" y="123" on="1"/>
        <pt x="1328" y="123" on="0"/>
        <pt x="1441" y="211" on="0"/>
        <pt x="1484" y="365" on="0"/>
        <pt x="1484" y="505" on="1"/>
        <pt x="1484" y="1134" on="1"/>
        <pt x="1661" y="1134" on="1"/>
        <pt x="1661" y="541" on="1"/>
        <pt x="1661" y="428" on="0"/>
        <pt x="1678" y="295" on="0"/>
        <pt x="1738" y="187" on="0"/>
        <pt x="1846" y="123" on="0"/>
        <pt x="1923" y="123" on="1"/>
        <pt x="2062" y="123" on="0"/>
        <pt x="2245" y="362" on="0"/>
        <pt x="2245" y="541" on="1"/>
        <pt x="2245" y="858" on="0"/>
        <pt x="2000" y="1032" on="1"/>
        <pt x="2122" y="1162" on="1"/>
        <pt x="2284" y="1032" on="0"/>
        <pt x="2425" y="733" on="0"/>
        <pt x="2425" y="541" on="1"/>
        <pt x="2425" y="402" on="0"/>
        <pt x="2331" y="167" on="0"/>
        <pt x="2240" y="89" on="1"/>
        <pt x="2335" y="4" on="0"/>
        <pt x="2425" y="-188" on="0"/>
        <pt x="2425" y="-304" on="1"/>
        <pt x="2425" y="-477" on="0"/>
        <pt x="2220" y="-690" on="0"/>
        <pt x="2055" y="-690" on="1"/>
        <pt x="1889" y="-690" on="0"/>
        <pt x="1788" y="-555" on="1"/>
        <pt x="1692" y="-690" on="0"/>
        <pt x="1520" y="-690" on="1"/>
        <pt x="1391" y="-690" on="0"/>
        <pt x="1208" y="-507" on="0"/>
        <pt x="1208" y="-273" on="1"/>
        <pt x="1208" y="-252" on="1"/>
        <pt x="1208" y="-172" on="0"/>
        <pt x="1181" y="-66" on="0"/>
        <pt x="1095" y="0" on="0"/>
        <pt x="1025" y="0" on="1"/>
        <pt x="931" y="0" on="0"/>
        <pt x="816" y="-139" on="0"/>
        <pt x="816" y="-251" on="1"/>
        <pt x="816" y="-456" on="0"/>
        <pt x="970" y="-585" on="1"/>
        <pt x="867" y="-690" on="1"/>
        <pt x="757" y="-596" on="0"/>
        <pt x="656" y="-382" on="0"/>
        <pt x="656" y="-251" on="1"/>
        <pt x="656" y="-106" on="0"/>
        <pt x="799" y="86" on="0"/>
        <pt x="928" y="114" on="1"/>
        <pt x="868" y="182" on="0"/>
        <pt x="827" y="372" on="0"/>
        <pt x="827" y="518" on="1"/>
      </contour>
      <contour>
        <pt x="1711" y="25" on="1"/>
        <pt x="1636" y="66" on="0"/>
        <pt x="1571" y="163" on="1"/>
        <pt x="1482" y="14" on="0"/>
        <pt x="1316" y="-11" on="1"/>
        <pt x="1370" y="-91" on="0"/>
        <pt x="1370" y="-280" on="1"/>
        <pt x="1370" y="-297" on="1"/>
        <pt x="1370" y="-407" on="0"/>
        <pt x="1408" y="-505" on="0"/>
        <pt x="1482" y="-551" on="0"/>
        <pt x="1538" y="-551" on="1"/>
        <pt x="1600" y="-551" on="0"/>
        <pt x="1679" y="-497" on="0"/>
        <pt x="1711" y="-398" on="0"/>
        <pt x="1711" y="-299" on="1"/>
      </contour>
      <contour>
        <pt x="2107" y="10" on="1"/>
        <pt x="2016" y="-24" on="0"/>
        <pt x="1915" y="-24" on="1"/>
        <pt x="1889" y="-24" on="0"/>
        <pt x="1866" y="-22" on="1"/>
        <pt x="1866" y="-311" on="1"/>
        <pt x="1866" y="-405" on="0"/>
        <pt x="1896" y="-494" on="0"/>
        <pt x="1985" y="-551" on="0"/>
        <pt x="2051" y="-551" on="1"/>
        <pt x="2150" y="-551" on="0"/>
        <pt x="2265" y="-429" on="0"/>
        <pt x="2265" y="-315" on="1"/>
        <pt x="2265" y="-215" on="0"/>
        <pt x="2189" y="-58" on="0"/>
      </contour>
    </TTGlyph>
    <TTGlyph name="glyph00170" xMin="80" yMin="-690" xMax="2425" yMax="1162">
      <contour>
        <pt x="827" y="586" on="1"/>
        <pt x="827" y="747" on="0"/>
        <pt x="788" y="916" on="0"/>
        <pt x="667" y="1014" on="0"/>
        <pt x="567" y="1014" on="1"/>
        <pt x="431" y="1014" on="0"/>
        <pt x="260" y="784" on="0"/>
        <pt x="260" y="594" on="1"/>
        <pt x="260" y="287" on="0"/>
        <pt x="505" y="112" on="1"/>
        <pt x="388" y="-17" on="1"/>
        <pt x="223" y="114" on="0"/>
        <pt x="80" y="407" on="0"/>
        <pt x="80" y="600" on="1"/>
        <pt x="80" y="856" on="0"/>
        <pt x="355" y="1162" on="0"/>
        <pt x="581" y="1162" on="1"/>
        <pt x="686" y="1162" on="0"/>
        <pt x="847" y="1099" on="0"/>
        <pt x="961" y="967" on="0"/>
        <pt x="1006" y="777" on="0"/>
        <pt x="1006" y="606" on="1"/>
        <pt x="1006" y="552" on="1"/>
        <pt x="1006" y="366" on="0"/>
        <pt x="1048" y="209" on="0"/>
        <pt x="1156" y="123" on="0"/>
        <pt x="1245" y="123" on="1"/>
        <pt x="1328" y="123" on="0"/>
        <pt x="1441" y="211" on="0"/>
        <pt x="1484" y="365" on="0"/>
        <pt x="1484" y="505" on="1"/>
        <pt x="1484" y="1134" on="1"/>
        <pt x="1661" y="1134" on="1"/>
        <pt x="1661" y="541" on="1"/>
        <pt x="1661" y="428" on="0"/>
        <pt x="1678" y="295" on="0"/>
        <pt x="1738" y="187" on="0"/>
        <pt x="1846" y="123" on="0"/>
        <pt x="1923" y="123" on="1"/>
        <pt x="2062" y="123" on="0"/>
        <pt x="2245" y="362" on="0"/>
        <pt x="2245" y="541" on="1"/>
        <pt x="2245" y="858" on="0"/>
        <pt x="2000" y="1032" on="1"/>
        <pt x="2122" y="1162" on="1"/>
        <pt x="2284" y="1032" on="0"/>
        <pt x="2425" y="733" on="0"/>
        <pt x="2425" y="541" on="1"/>
        <pt x="2425" y="397" on="0"/>
        <pt x="2316" y="155" on="0"/>
        <pt x="2220" y="81" on="1"/>
        <pt x="2395" y="8" on="0"/>
        <pt x="2395" y="-249" on="1"/>
        <pt x="2395" y="-373" on="0"/>
        <pt x="2269" y="-575" on="0"/>
        <pt x="2042" y="-690" on="0"/>
        <pt x="1904" y="-690" on="1"/>
        <pt x="1687" y="-690" on="0"/>
        <pt x="1577" y="-555" on="1"/>
        <pt x="1485" y="-690" on="0"/>
        <pt x="1310" y="-690" on="1"/>
        <pt x="1230" y="-690" on="0"/>
        <pt x="1082" y="-610" on="0"/>
        <pt x="998" y="-443" on="0"/>
        <pt x="998" y="-285" on="1"/>
        <pt x="998" y="-260" on="1"/>
        <pt x="998" y="-179" on="0"/>
        <pt x="971" y="-75" on="0"/>
        <pt x="883" y="-12" on="0"/>
        <pt x="815" y="-12" on="1"/>
        <pt x="721" y="-12" on="0"/>
        <pt x="606" y="-149" on="0"/>
        <pt x="606" y="-258" on="1"/>
        <pt x="606" y="-460" on="0"/>
        <pt x="760" y="-585" on="1"/>
        <pt x="657" y="-690" on="1"/>
        <pt x="546" y="-596" on="0"/>
        <pt x="446" y="-385" on="0"/>
        <pt x="446" y="-257" on="1"/>
        <pt x="446" y="-90" on="0"/>
        <pt x="649" y="125" on="0"/>
        <pt x="811" y="125" on="1"/>
        <pt x="872" y="125" on="0"/>
        <pt x="926" y="109" on="1"/>
        <pt x="870" y="175" on="0"/>
        <pt x="827" y="364" on="0"/>
        <pt x="827" y="518" on="1"/>
      </contour>
      <contour>
        <pt x="1501" y="-56" on="1"/>
        <pt x="1501" y="30" on="0"/>
        <pt x="1504" y="93" on="1"/>
        <pt x="1397" y="-24" on="0"/>
        <pt x="1221" y="-24" on="1"/>
        <pt x="1154" y="-24" on="0"/>
        <pt x="1093" y="-4" on="1"/>
        <pt x="1130" y="-53" on="0"/>
        <pt x="1160" y="-184" on="0"/>
        <pt x="1160" y="-286" on="1"/>
        <pt x="1160" y="-297" on="1"/>
        <pt x="1160" y="-387" on="0"/>
        <pt x="1188" y="-495" on="0"/>
        <pt x="1267" y="-551" on="0"/>
        <pt x="1328" y="-551" on="1"/>
        <pt x="1390" y="-551" on="0"/>
        <pt x="1469" y="-497" on="0"/>
        <pt x="1501" y="-398" on="0"/>
        <pt x="1501" y="-299" on="1"/>
      </contour>
      <contour>
        <pt x="1656" y="-268" on="1"/>
        <pt x="1656" y="-383" on="0"/>
        <pt x="1709" y="-497" on="0"/>
        <pt x="1823" y="-557" on="0"/>
        <pt x="1909" y="-557" on="1"/>
        <pt x="2011" y="-557" on="0"/>
        <pt x="2192" y="-450" on="0"/>
        <pt x="2226" y="-362" on="1"/>
        <pt x="2145" y="-408" on="0"/>
        <pt x="2065" y="-408" on="1"/>
        <pt x="1948" y="-408" on="0"/>
        <pt x="1814" y="-264" on="0"/>
        <pt x="1814" y="-145" on="1"/>
        <pt x="1814" y="-70" on="0"/>
        <pt x="1850" y="-15" on="1"/>
        <pt x="1740" y="1" on="0"/>
        <pt x="1654" y="87" on="1"/>
        <pt x="1656" y="39" on="0"/>
        <pt x="1656" y="-66" on="1"/>
      </contour>
      <contour>
        <pt x="2248" y="-229" on="1"/>
        <pt x="2248" y="-228" on="1"/>
        <pt x="2248" y="-118" on="0"/>
        <pt x="2167" y="0" on="0"/>
        <pt x="2094" y="0" on="1"/>
        <pt x="1959" y="0" on="0"/>
        <pt x="1959" y="-146" on="1"/>
        <pt x="1959" y="-211" on="0"/>
        <pt x="2029" y="-286" on="0"/>
        <pt x="2090" y="-286" on="1"/>
        <pt x="2171" y="-286" on="0"/>
      </contour>
    </TTGlyph>
    <TTGlyph name="glyph00171" xMin="85" yMin="-24" xMax="4034" yMax="1162">
      <contour>
        <pt x="1248" y="0" on="1"/>
        <pt x="1071" y="0" on="1"/>
        <pt x="1071" y="627" on="1"/>
        <pt x="1071" y="792" on="0"/>
        <pt x="991" y="943" on="0"/>
        <pt x="843" y="1015" on="0"/>
        <pt x="731" y="1015" on="1"/>
        <pt x="546" y="1015" on="0"/>
        <pt x="291" y="789" on="0"/>
        <pt x="259" y="594" on="1"/>
        <pt x="377" y="672" on="0"/>
        <pt x="507" y="672" on="1"/>
        <pt x="659" y="672" on="0"/>
        <pt x="841" y="493" on="0"/>
        <pt x="841" y="337" on="1"/>
        <pt x="841" y="171" on="0"/>
        <pt x="652" y="-24" on="0"/>
        <pt x="491" y="-24" on="1"/>
        <pt x="372" y="-24" on="0"/>
        <pt x="185" y="97" on="0"/>
        <pt x="85" y="332" on="0"/>
        <pt x="85" y="494" on="1"/>
        <pt x="85" y="695" on="0"/>
        <pt x="247" y="998" on="0"/>
        <pt x="546" y="1162" on="0"/>
        <pt x="734" y="1162" on="1"/>
        <pt x="874" y="1162" on="0"/>
        <pt x="1078" y="1079" on="0"/>
        <pt x="1162" y="982" on="1"/>
        <pt x="1227" y="1072" on="0"/>
        <pt x="1404" y="1162" on="0"/>
        <pt x="1515" y="1162" on="1"/>
        <pt x="1637" y="1162" on="0"/>
        <pt x="1814" y="1067" on="0"/>
        <pt x="1870" y="973" on="1"/>
        <pt x="1924" y="1067" on="0"/>
        <pt x="2100" y="1162" on="0"/>
        <pt x="2222" y="1162" on="1"/>
        <pt x="2345" y="1162" on="0"/>
        <pt x="2519" y="1053" on="0"/>
        <pt x="2615" y="847" on="0"/>
        <pt x="2615" y="620" on="1"/>
        <pt x="2615" y="552" on="1"/>
        <pt x="2615" y="366" on="0"/>
        <pt x="2657" y="209" on="0"/>
        <pt x="2765" y="123" on="0"/>
        <pt x="2854" y="123" on="1"/>
        <pt x="2937" y="123" on="0"/>
        <pt x="3050" y="211" on="0"/>
        <pt x="3093" y="365" on="0"/>
        <pt x="3093" y="505" on="1"/>
        <pt x="3093" y="1134" on="1"/>
        <pt x="3270" y="1134" on="1"/>
        <pt x="3270" y="541" on="1"/>
        <pt x="3270" y="428" on="0"/>
        <pt x="3287" y="295" on="0"/>
        <pt x="3347" y="187" on="0"/>
        <pt x="3455" y="123" on="0"/>
        <pt x="3532" y="123" on="1"/>
        <pt x="3671" y="123" on="0"/>
        <pt x="3854" y="362" on="0"/>
        <pt x="3854" y="541" on="1"/>
        <pt x="3854" y="858" on="0"/>
        <pt x="3609" y="1032" on="1"/>
        <pt x="3731" y="1162" on="1"/>
        <pt x="3893" y="1032" on="0"/>
        <pt x="4034" y="733" on="0"/>
        <pt x="4034" y="541" on="1"/>
        <pt x="4034" y="378" on="0"/>
        <pt x="3907" y="118" on="0"/>
        <pt x="3675" y="-24" on="0"/>
        <pt x="3524" y="-24" on="1"/>
        <pt x="3412" y="-24" on="0"/>
        <pt x="3246" y="64" on="0"/>
        <pt x="3180" y="163" on="1"/>
        <pt x="3123" y="69" on="0"/>
        <pt x="2948" y="-24" on="0"/>
        <pt x="2830" y="-24" on="1"/>
        <pt x="2704" y="-24" on="0"/>
        <pt x="2529" y="89" on="0"/>
        <pt x="2436" y="295" on="0"/>
        <pt x="2436" y="518" on="1"/>
        <pt x="2436" y="605" on="1"/>
        <pt x="2436" y="779" on="0"/>
        <pt x="2391" y="934" on="0"/>
        <pt x="2284" y="1015" on="0"/>
        <pt x="2197" y="1015" on="1"/>
        <pt x="2113" y="1015" on="0"/>
        <pt x="2001" y="927" on="0"/>
        <pt x="1958" y="772" on="0"/>
        <pt x="1958" y="633" on="1"/>
        <pt x="1958" y="0" on="1"/>
        <pt x="1781" y="0" on="1"/>
        <pt x="1781" y="652" on="1"/>
        <pt x="1781" y="801" on="0"/>
        <pt x="1725" y="943" on="0"/>
        <pt x="1607" y="1015" on="0"/>
        <pt x="1514" y="1015" on="1"/>
        <pt x="1428" y="1015" on="0"/>
        <pt x="1309" y="940" on="0"/>
        <pt x="1248" y="795" on="0"/>
        <pt x="1248" y="633" on="1"/>
      </contour>
      <contour>
        <pt x="252" y="436" on="1"/>
        <pt x="257" y="285" on="0"/>
        <pt x="385" y="119" on="0"/>
        <pt x="495" y="119" on="1"/>
        <pt x="574" y="119" on="0"/>
        <pt x="670" y="225" on="0"/>
        <pt x="670" y="322" on="1"/>
        <pt x="670" y="419" on="0"/>
        <pt x="566" y="529" on="0"/>
        <pt x="478" y="529" on="1"/>
        <pt x="362" y="529" on="0"/>
      </contour>
    </TTGlyph>
    <TTGlyph name="glyph00172" xMin="85" yMin="-24" xMax="4256" yMax="1162">
      <contour>
        <pt x="3270" y="511" on="1"/>
        <pt x="3270" y="350" on="0"/>
        <pt x="3346" y="197" on="0"/>
        <pt x="3495" y="123" on="0"/>
        <pt x="3610" y="123" on="1"/>
        <pt x="3792" y="123" on="0"/>
        <pt x="4045" y="344" on="0"/>
        <pt x="4080" y="541" on="1"/>
        <pt x="3971" y="466" on="0"/>
        <pt x="3842" y="466" on="1"/>
        <pt x="3682" y="466" on="0"/>
        <pt x="3500" y="648" on="0"/>
        <pt x="3500" y="808" on="1"/>
        <pt x="3500" y="969" on="0"/>
        <pt x="3693" y="1160" on="0"/>
        <pt x="3858" y="1160" on="1"/>
        <pt x="4037" y="1160" on="0"/>
        <pt x="4256" y="901" on="0"/>
        <pt x="4256" y="662" on="1"/>
        <pt x="4256" y="454" on="0"/>
        <pt x="4096" y="143" on="0"/>
        <pt x="3800" y="-24" on="0"/>
        <pt x="3613" y="-24" on="1"/>
        <pt x="3474" y="-24" on="0"/>
        <pt x="3269" y="56" on="0"/>
        <pt x="3178" y="159" on="1"/>
        <pt x="3121" y="67" on="0"/>
        <pt x="2947" y="-24" on="0"/>
        <pt x="2830" y="-24" on="1"/>
        <pt x="2704" y="-24" on="0"/>
        <pt x="2529" y="89" on="0"/>
        <pt x="2436" y="295" on="0"/>
        <pt x="2436" y="518" on="1"/>
        <pt x="2436" y="605" on="1"/>
        <pt x="2436" y="779" on="0"/>
        <pt x="2391" y="934" on="0"/>
        <pt x="2284" y="1015" on="0"/>
        <pt x="2197" y="1015" on="1"/>
        <pt x="2113" y="1015" on="0"/>
        <pt x="2001" y="927" on="0"/>
        <pt x="1958" y="772" on="0"/>
        <pt x="1958" y="633" on="1"/>
        <pt x="1958" y="0" on="1"/>
        <pt x="1781" y="0" on="1"/>
        <pt x="1781" y="652" on="1"/>
        <pt x="1781" y="801" on="0"/>
        <pt x="1725" y="943" on="0"/>
        <pt x="1607" y="1015" on="0"/>
        <pt x="1514" y="1015" on="1"/>
        <pt x="1428" y="1015" on="0"/>
        <pt x="1309" y="940" on="0"/>
        <pt x="1248" y="795" on="0"/>
        <pt x="1248" y="633" on="1"/>
        <pt x="1248" y="0" on="1"/>
        <pt x="1071" y="0" on="1"/>
        <pt x="1071" y="627" on="1"/>
        <pt x="1071" y="792" on="0"/>
        <pt x="991" y="943" on="0"/>
        <pt x="843" y="1015" on="0"/>
        <pt x="731" y="1015" on="1"/>
        <pt x="546" y="1015" on="0"/>
        <pt x="291" y="789" on="0"/>
        <pt x="259" y="594" on="1"/>
        <pt x="377" y="672" on="0"/>
        <pt x="507" y="672" on="1"/>
        <pt x="659" y="672" on="0"/>
        <pt x="841" y="493" on="0"/>
        <pt x="841" y="337" on="1"/>
        <pt x="841" y="171" on="0"/>
        <pt x="652" y="-24" on="0"/>
        <pt x="491" y="-24" on="1"/>
        <pt x="372" y="-24" on="0"/>
        <pt x="185" y="97" on="0"/>
        <pt x="85" y="332" on="0"/>
        <pt x="85" y="494" on="1"/>
        <pt x="85" y="695" on="0"/>
        <pt x="247" y="998" on="0"/>
        <pt x="546" y="1162" on="0"/>
        <pt x="734" y="1162" on="1"/>
        <pt x="874" y="1162" on="0"/>
        <pt x="1078" y="1079" on="0"/>
        <pt x="1162" y="982" on="1"/>
        <pt x="1227" y="1072" on="0"/>
        <pt x="1404" y="1162" on="0"/>
        <pt x="1515" y="1162" on="1"/>
        <pt x="1637" y="1162" on="0"/>
        <pt x="1814" y="1067" on="0"/>
        <pt x="1870" y="973" on="1"/>
        <pt x="1924" y="1067" on="0"/>
        <pt x="2100" y="1162" on="0"/>
        <pt x="2222" y="1162" on="1"/>
        <pt x="2345" y="1162" on="0"/>
        <pt x="2519" y="1053" on="0"/>
        <pt x="2615" y="847" on="0"/>
        <pt x="2615" y="620" on="1"/>
        <pt x="2615" y="552" on="1"/>
        <pt x="2615" y="366" on="0"/>
        <pt x="2657" y="209" on="0"/>
        <pt x="2765" y="123" on="0"/>
        <pt x="2854" y="123" on="1"/>
        <pt x="2937" y="123" on="0"/>
        <pt x="3050" y="211" on="0"/>
        <pt x="3093" y="365" on="0"/>
        <pt x="3093" y="505" on="1"/>
        <pt x="3093" y="1134" on="1"/>
        <pt x="3270" y="1134" on="1"/>
      </contour>
      <contour>
        <pt x="4090" y="701" on="1"/>
        <pt x="4083" y="856" on="0"/>
        <pt x="3954" y="1019" on="0"/>
        <pt x="3846" y="1019" on="1"/>
        <pt x="3767" y="1019" on="0"/>
        <pt x="3671" y="913" on="0"/>
        <pt x="3671" y="816" on="1"/>
        <pt x="3671" y="716" on="0"/>
        <pt x="3771" y="609" on="0"/>
        <pt x="3863" y="609" on="1"/>
        <pt x="3983" y="609" on="0"/>
      </contour>
      <contour>
        <pt x="252" y="436" on="1"/>
        <pt x="257" y="285" on="0"/>
        <pt x="385" y="119" on="0"/>
        <pt x="495" y="119" on="1"/>
        <pt x="574" y="119" on="0"/>
        <pt x="670" y="225" on="0"/>
        <pt x="670" y="322" on="1"/>
        <pt x="670" y="419" on="0"/>
        <pt x="566" y="529" on="0"/>
        <pt x="478" y="529" on="1"/>
        <pt x="362" y="529" on="0"/>
      </contour>
    </TTGlyph>
    <TTGlyph name="glyph00173" xMin="85" yMin="-24" xMax="3016" yMax="1162">
      <contour>
        <pt x="3016" y="0" on="1"/>
        <pt x="1781" y="0" on="1"/>
        <pt x="1781" y="652" on="1"/>
        <pt x="1781" y="801" on="0"/>
        <pt x="1725" y="943" on="0"/>
        <pt x="1607" y="1015" on="0"/>
        <pt x="1514" y="1015" on="1"/>
        <pt x="1428" y="1015" on="0"/>
        <pt x="1309" y="940" on="0"/>
        <pt x="1248" y="795" on="0"/>
        <pt x="1248" y="633" on="1"/>
        <pt x="1248" y="0" on="1"/>
        <pt x="1071" y="0" on="1"/>
        <pt x="1071" y="627" on="1"/>
        <pt x="1071" y="792" on="0"/>
        <pt x="991" y="943" on="0"/>
        <pt x="843" y="1015" on="0"/>
        <pt x="731" y="1015" on="1"/>
        <pt x="546" y="1015" on="0"/>
        <pt x="291" y="789" on="0"/>
        <pt x="259" y="594" on="1"/>
        <pt x="377" y="672" on="0"/>
        <pt x="507" y="672" on="1"/>
        <pt x="659" y="672" on="0"/>
        <pt x="841" y="493" on="0"/>
        <pt x="841" y="337" on="1"/>
        <pt x="841" y="171" on="0"/>
        <pt x="652" y="-24" on="0"/>
        <pt x="491" y="-24" on="1"/>
        <pt x="372" y="-24" on="0"/>
        <pt x="185" y="97" on="0"/>
        <pt x="85" y="332" on="0"/>
        <pt x="85" y="494" on="1"/>
        <pt x="85" y="695" on="0"/>
        <pt x="247" y="998" on="0"/>
        <pt x="546" y="1162" on="0"/>
        <pt x="734" y="1162" on="1"/>
        <pt x="874" y="1162" on="0"/>
        <pt x="1078" y="1079" on="0"/>
        <pt x="1162" y="982" on="1"/>
        <pt x="1227" y="1072" on="0"/>
        <pt x="1404" y="1162" on="0"/>
        <pt x="1515" y="1162" on="1"/>
        <pt x="1649" y="1162" on="0"/>
        <pt x="1839" y="1049" on="0"/>
        <pt x="1895" y="937" on="1"/>
        <pt x="1969" y="1049" on="0"/>
        <pt x="2213" y="1162" on="0"/>
        <pt x="2383" y="1162" on="1"/>
        <pt x="2576" y="1162" on="0"/>
        <pt x="2858" y="1037" on="0"/>
        <pt x="3016" y="779" on="0"/>
        <pt x="3016" y="545" on="1"/>
      </contour>
      <contour>
        <pt x="1958" y="139" on="1"/>
        <pt x="1968" y="139" on="1"/>
        <pt x="2197" y="311" on="0"/>
        <pt x="2448" y="668" on="0"/>
        <pt x="2448" y="823" on="1"/>
        <pt x="2448" y="914" on="0"/>
        <pt x="2365" y="1015" on="0"/>
        <pt x="2286" y="1015" on="1"/>
        <pt x="2147" y="1015" on="0"/>
        <pt x="1959" y="772" on="0"/>
        <pt x="1958" y="521" on="1"/>
      </contour>
      <contour>
        <pt x="2839" y="509" on="1"/>
        <pt x="2839" y="757" on="0"/>
        <pt x="2687" y="971" on="0"/>
        <pt x="2555" y="1005" on="1"/>
        <pt x="2593" y="958" on="0"/>
        <pt x="2624" y="863" on="0"/>
        <pt x="2624" y="804" on="1"/>
        <pt x="2624" y="648" on="0"/>
        <pt x="2429" y="328" on="0"/>
        <pt x="2219" y="138" on="1"/>
        <pt x="2308" y="144" on="0"/>
        <pt x="2395" y="144" on="1"/>
        <pt x="2839" y="144" on="1"/>
      </contour>
      <contour>
        <pt x="252" y="436" on="1"/>
        <pt x="257" y="285" on="0"/>
        <pt x="385" y="119" on="0"/>
        <pt x="495" y="119" on="1"/>
        <pt x="574" y="119" on="0"/>
        <pt x="670" y="225" on="0"/>
        <pt x="670" y="322" on="1"/>
        <pt x="670" y="419" on="0"/>
        <pt x="566" y="529" on="0"/>
        <pt x="478" y="529" on="1"/>
        <pt x="362" y="529" on="0"/>
      </contour>
    </TTGlyph>
    <TTGlyph name="glyph00174" xMin="85" yMin="-690" xMax="2722" yMax="1162">
      <contour>
        <pt x="1071" y="110" on="1"/>
        <pt x="1071" y="627" on="1"/>
        <pt x="1071" y="792" on="0"/>
        <pt x="991" y="943" on="0"/>
        <pt x="843" y="1015" on="0"/>
        <pt x="731" y="1015" on="1"/>
        <pt x="546" y="1015" on="0"/>
        <pt x="291" y="789" on="0"/>
        <pt x="259" y="594" on="1"/>
        <pt x="377" y="672" on="0"/>
        <pt x="507" y="672" on="1"/>
        <pt x="659" y="672" on="0"/>
        <pt x="841" y="493" on="0"/>
        <pt x="841" y="337" on="1"/>
        <pt x="841" y="171" on="0"/>
        <pt x="652" y="-24" on="0"/>
        <pt x="491" y="-24" on="1"/>
        <pt x="372" y="-24" on="0"/>
        <pt x="185" y="97" on="0"/>
        <pt x="85" y="332" on="0"/>
        <pt x="85" y="494" on="1"/>
        <pt x="85" y="695" on="0"/>
        <pt x="247" y="998" on="0"/>
        <pt x="546" y="1162" on="0"/>
        <pt x="734" y="1162" on="1"/>
        <pt x="874" y="1162" on="0"/>
        <pt x="1078" y="1079" on="0"/>
        <pt x="1162" y="982" on="1"/>
        <pt x="1227" y="1072" on="0"/>
        <pt x="1404" y="1162" on="0"/>
        <pt x="1515" y="1162" on="1"/>
        <pt x="1636" y="1162" on="0"/>
        <pt x="1812" y="1070" on="0"/>
        <pt x="1867" y="978" on="1"/>
        <pt x="1934" y="1072" on="0"/>
        <pt x="2103" y="1162" on="0"/>
        <pt x="2227" y="1162" on="1"/>
        <pt x="2375" y="1162" on="0"/>
        <pt x="2600" y="1019" on="0"/>
        <pt x="2722" y="759" on="0"/>
        <pt x="2722" y="598" on="1"/>
        <pt x="2722" y="441" on="0"/>
        <pt x="2622" y="195" on="0"/>
        <pt x="2517" y="91" on="1"/>
        <pt x="2606" y="41" on="0"/>
        <pt x="2702" y="-143" on="0"/>
        <pt x="2702" y="-263" on="1"/>
        <pt x="2702" y="-387" on="0"/>
        <pt x="2602" y="-595" on="0"/>
        <pt x="2491" y="-690" on="1"/>
        <pt x="2388" y="-585" on="1"/>
        <pt x="2542" y="-456" on="0"/>
        <pt x="2542" y="-248" on="1"/>
        <pt x="2542" y="-129" on="0"/>
        <pt x="2431" y="0" on="0"/>
        <pt x="2333" y="0" on="1"/>
        <pt x="2266" y="0" on="0"/>
        <pt x="2182" y="-67" on="0"/>
        <pt x="2153" y="-164" on="0"/>
        <pt x="2153" y="-293" on="1"/>
        <pt x="2153" y="-680" on="1"/>
        <pt x="1998" y="-680" on="1"/>
        <pt x="1998" y="-293" on="1"/>
        <pt x="1998" y="-164" on="0"/>
        <pt x="1965" y="-64" on="0"/>
        <pt x="1886" y="0" on="0"/>
        <pt x="1810" y="0" on="1"/>
        <pt x="1746" y="0" on="0"/>
        <pt x="1662" y="-65" on="0"/>
        <pt x="1633" y="-177" on="0"/>
        <pt x="1633" y="-290" on="1"/>
        <pt x="1633" y="-680" on="1"/>
        <pt x="1478" y="-680" on="1"/>
        <pt x="1478" y="-300" on="1"/>
        <pt x="1478" y="-184" on="0"/>
        <pt x="1428" y="-66" on="0"/>
        <pt x="1316" y="0" on="0"/>
        <pt x="1231" y="0" on="1"/>
        <pt x="1225" y="0" on="1"/>
        <pt x="1115" y="0" on="0"/>
        <pt x="926" y="-124" on="0"/>
        <pt x="900" y="-222" on="1"/>
        <pt x="985" y="-173" on="0"/>
        <pt x="1069" y="-173" on="1"/>
        <pt x="1186" y="-173" on="0"/>
        <pt x="1320" y="-314" on="0"/>
        <pt x="1320" y="-430" on="1"/>
        <pt x="1320" y="-548" on="0"/>
        <pt x="1172" y="-690" on="0"/>
        <pt x="1042" y="-690" on="1"/>
        <pt x="901" y="-690" on="0"/>
        <pt x="739" y="-490" on="0"/>
        <pt x="739" y="-314" on="1"/>
        <pt x="739" y="-164" on="0"/>
        <pt x="917" y="65" on="0"/>
      </contour>
      <contour>
        <pt x="1248" y="132" on="1"/>
        <pt x="1329" y="130" on="0"/>
        <pt x="1477" y="75" on="0"/>
        <pt x="1555" y="5" on="1"/>
        <pt x="1648" y="121" on="0"/>
        <pt x="1781" y="132" on="1"/>
        <pt x="1781" y="652" on="1"/>
        <pt x="1781" y="801" on="0"/>
        <pt x="1725" y="943" on="0"/>
        <pt x="1607" y="1015" on="0"/>
        <pt x="1514" y="1015" on="1"/>
        <pt x="1428" y="1015" on="0"/>
        <pt x="1309" y="940" on="0"/>
        <pt x="1248" y="795" on="0"/>
        <pt x="1248" y="633" on="1"/>
      </contour>
      <contour>
        <pt x="2076" y="7" on="1"/>
        <pt x="2121" y="69" on="0"/>
        <pt x="2248" y="133" on="0"/>
        <pt x="2329" y="134" on="1"/>
        <pt x="2435" y="218" on="0"/>
        <pt x="2542" y="450" on="0"/>
        <pt x="2542" y="598" on="1"/>
        <pt x="2542" y="780" on="0"/>
        <pt x="2364" y="1015" on="0"/>
        <pt x="2225" y="1015" on="1"/>
        <pt x="2145" y="1015" on="0"/>
        <pt x="2041" y="960" on="0"/>
        <pt x="1977" y="856" on="0"/>
        <pt x="1958" y="719" on="0"/>
        <pt x="1958" y="597" on="1"/>
        <pt x="1958" y="106" on="1"/>
        <pt x="2023" y="76" on="0"/>
      </contour>
      <contour>
        <pt x="252" y="436" on="1"/>
        <pt x="257" y="285" on="0"/>
        <pt x="385" y="119" on="0"/>
        <pt x="495" y="119" on="1"/>
        <pt x="574" y="119" on="0"/>
        <pt x="670" y="225" on="0"/>
        <pt x="670" y="322" on="1"/>
        <pt x="670" y="419" on="0"/>
        <pt x="566" y="529" on="0"/>
        <pt x="478" y="529" on="1"/>
        <pt x="362" y="529" on="0"/>
      </contour>
      <contour>
        <pt x="886" y="-351" on="1"/>
        <pt x="889" y="-457" on="0"/>
        <pt x="971" y="-569" on="0"/>
        <pt x="1040" y="-569" on="1"/>
        <pt x="1175" y="-569" on="0"/>
        <pt x="1175" y="-429" on="1"/>
        <pt x="1175" y="-367" on="0"/>
        <pt x="1104" y="-295" on="0"/>
        <pt x="1044" y="-295" on="1"/>
        <pt x="964" y="-295" on="0"/>
      </contour>
    </TTGlyph>
    <TTGlyph name="glyph00175" xMin="85" yMin="-24" xMax="2925" yMax="1162">
      <contour>
        <pt x="1913" y="927" on="1"/>
        <pt x="2003" y="1044" on="0"/>
        <pt x="2277" y="1162" on="0"/>
        <pt x="2462" y="1162" on="1"/>
        <pt x="2673" y="1162" on="0"/>
        <pt x="2925" y="1005" on="0"/>
        <pt x="2925" y="870" on="1"/>
        <pt x="2925" y="789" on="0"/>
        <pt x="2857" y="684" on="0"/>
        <pt x="2742" y="639" on="0"/>
        <pt x="2633" y="639" on="1"/>
        <pt x="2574" y="639" on="1"/>
        <pt x="2445" y="639" on="0"/>
        <pt x="2364" y="599" on="0"/>
        <pt x="2364" y="552" on="1"/>
        <pt x="2364" y="508" on="0"/>
        <pt x="2445" y="469" on="0"/>
        <pt x="2565" y="469" on="1"/>
        <pt x="2590" y="469" on="1"/>
        <pt x="2769" y="469" on="0"/>
        <pt x="2925" y="350" on="0"/>
        <pt x="2925" y="232" on="1"/>
        <pt x="2925" y="111" on="0"/>
        <pt x="2735" y="-24" on="0"/>
        <pt x="2563" y="-24" on="1"/>
        <pt x="2462" y="-24" on="0"/>
        <pt x="2244" y="19" on="0"/>
        <pt x="2173" y="51" on="1"/>
        <pt x="2236" y="191" on="1"/>
        <pt x="2390" y="121" on="0"/>
        <pt x="2560" y="121" on="1"/>
        <pt x="2756" y="121" on="0"/>
        <pt x="2756" y="227" on="1"/>
        <pt x="2756" y="278" on="0"/>
        <pt x="2685" y="326" on="0"/>
        <pt x="2585" y="326" on="1"/>
        <pt x="2555" y="326" on="1"/>
        <pt x="2348" y="326" on="0"/>
        <pt x="2196" y="442" on="0"/>
        <pt x="2196" y="549" on="1"/>
        <pt x="2196" y="617" on="0"/>
        <pt x="2262" y="715" on="0"/>
        <pt x="2416" y="781" on="0"/>
        <pt x="2559" y="781" on="1"/>
        <pt x="2643" y="781" on="1"/>
        <pt x="2709" y="781" on="0"/>
        <pt x="2752" y="820" on="0"/>
        <pt x="2752" y="866" on="1"/>
        <pt x="2752" y="939" on="0"/>
        <pt x="2601" y="1014" on="0"/>
        <pt x="2460" y="1014" on="1"/>
        <pt x="2323" y="1014" on="0"/>
        <pt x="2096" y="912" on="0"/>
        <pt x="1958" y="686" on="0"/>
        <pt x="1958" y="428" on="1"/>
        <pt x="1958" y="0" on="1"/>
        <pt x="1781" y="0" on="1"/>
        <pt x="1781" y="652" on="1"/>
        <pt x="1781" y="801" on="0"/>
        <pt x="1725" y="943" on="0"/>
        <pt x="1607" y="1015" on="0"/>
        <pt x="1514" y="1015" on="1"/>
        <pt x="1428" y="1015" on="0"/>
        <pt x="1309" y="940" on="0"/>
        <pt x="1248" y="795" on="0"/>
        <pt x="1248" y="633" on="1"/>
        <pt x="1248" y="0" on="1"/>
        <pt x="1071" y="0" on="1"/>
        <pt x="1071" y="627" on="1"/>
        <pt x="1071" y="792" on="0"/>
        <pt x="991" y="943" on="0"/>
        <pt x="843" y="1015" on="0"/>
        <pt x="731" y="1015" on="1"/>
        <pt x="546" y="1015" on="0"/>
        <pt x="291" y="789" on="0"/>
        <pt x="259" y="594" on="1"/>
        <pt x="377" y="672" on="0"/>
        <pt x="507" y="672" on="1"/>
        <pt x="659" y="672" on="0"/>
        <pt x="841" y="493" on="0"/>
        <pt x="841" y="337" on="1"/>
        <pt x="841" y="171" on="0"/>
        <pt x="652" y="-24" on="0"/>
        <pt x="491" y="-24" on="1"/>
        <pt x="372" y="-24" on="0"/>
        <pt x="185" y="97" on="0"/>
        <pt x="85" y="332" on="0"/>
        <pt x="85" y="494" on="1"/>
        <pt x="85" y="695" on="0"/>
        <pt x="247" y="998" on="0"/>
        <pt x="546" y="1162" on="0"/>
        <pt x="734" y="1162" on="1"/>
        <pt x="874" y="1162" on="0"/>
        <pt x="1077" y="1078" on="0"/>
        <pt x="1161" y="982" on="1"/>
        <pt x="1223" y="1069" on="0"/>
        <pt x="1409" y="1162" on="0"/>
        <pt x="1517" y="1162" on="1"/>
        <pt x="1653" y="1162" on="0"/>
        <pt x="1844" y="1052" on="0"/>
      </contour>
      <contour>
        <pt x="252" y="436" on="1"/>
        <pt x="257" y="285" on="0"/>
        <pt x="385" y="119" on="0"/>
        <pt x="495" y="119" on="1"/>
        <pt x="574" y="119" on="0"/>
        <pt x="670" y="225" on="0"/>
        <pt x="670" y="322" on="1"/>
        <pt x="670" y="419" on="0"/>
        <pt x="566" y="529" on="0"/>
        <pt x="478" y="529" on="1"/>
        <pt x="362" y="529" on="0"/>
      </contour>
    </TTGlyph>
    <TTGlyph name="glyph00176" xMin="80" yMin="-24" xMax="2654" yMax="1162">
      <contour>
        <pt x="1791" y="965" on="1"/>
        <pt x="1853" y="1064" on="0"/>
        <pt x="2027" y="1162" on="0"/>
        <pt x="2159" y="1162" on="1"/>
        <pt x="2307" y="1162" on="0"/>
        <pt x="2532" y="1019" on="0"/>
        <pt x="2654" y="759" on="0"/>
        <pt x="2654" y="598" on="1"/>
        <pt x="2654" y="408" on="0"/>
        <pt x="2503" y="113" on="0"/>
        <pt x="2337" y="-17" on="1"/>
        <pt x="2227" y="109" on="1"/>
        <pt x="2352" y="197" on="0"/>
        <pt x="2474" y="439" on="0"/>
        <pt x="2474" y="598" on="1"/>
        <pt x="2474" y="779" on="0"/>
        <pt x="2297" y="1014" on="0"/>
        <pt x="2157" y="1014" on="1"/>
        <pt x="2085" y="1014" on="0"/>
        <pt x="1984" y="969" on="0"/>
        <pt x="1914" y="870" on="0"/>
        <pt x="1890" y="740" on="0"/>
        <pt x="1890" y="597" on="1"/>
        <pt x="1890" y="0" on="1"/>
        <pt x="1713" y="0" on="1"/>
        <pt x="1713" y="552" on="1"/>
        <pt x="1713" y="710" on="0"/>
        <pt x="1663" y="876" on="0"/>
        <pt x="1555" y="979" on="0"/>
        <pt x="1427" y="1021" on="0"/>
        <pt x="1323" y="1021" on="1"/>
        <pt x="1232" y="1021" on="0"/>
        <pt x="1170" y="1003" on="1"/>
        <pt x="1306" y="905" on="0"/>
        <pt x="1455" y="615" on="0"/>
        <pt x="1455" y="448" on="1"/>
        <pt x="1455" y="225" on="0"/>
        <pt x="1238" y="-24" on="0"/>
        <pt x="1043" y="-24" on="1"/>
        <pt x="842" y="-24" on="0"/>
        <pt x="621" y="226" on="0"/>
        <pt x="621" y="448" on="1"/>
        <pt x="621" y="617" on="0"/>
        <pt x="763" y="900" on="0"/>
        <pt x="901" y="1001" on="1"/>
        <pt x="829" y="1021" on="0"/>
        <pt x="737" y="1021" on="1"/>
        <pt x="516" y="1021" on="0"/>
        <pt x="262" y="766" on="0"/>
        <pt x="262" y="559" on="1"/>
        <pt x="262" y="263" on="0"/>
        <pt x="511" y="111" on="1"/>
        <pt x="410" y="-18" on="1"/>
        <pt x="253" y="71" on="0"/>
        <pt x="80" y="376" on="0"/>
        <pt x="80" y="567" on="1"/>
        <pt x="80" y="742" on="0"/>
        <pt x="238" y="1015" on="0"/>
        <pt x="527" y="1162" on="0"/>
        <pt x="718" y="1162" on="1"/>
        <pt x="884" y="1162" on="0"/>
        <pt x="1033" y="1096" on="1"/>
        <pt x="1176" y="1162" on="0"/>
        <pt x="1348" y="1162" on="1"/>
        <pt x="1498" y="1162" on="0"/>
        <pt x="1719" y="1063" on="0"/>
      </contour>
      <contour>
        <pt x="1034" y="934" on="1"/>
        <pt x="922" y="858" on="0"/>
        <pt x="800" y="605" on="0"/>
        <pt x="800" y="453" on="1"/>
        <pt x="800" y="287" on="0"/>
        <pt x="921" y="120" on="0"/>
        <pt x="1038" y="120" on="1"/>
        <pt x="1159" y="120" on="0"/>
        <pt x="1275" y="287" on="0"/>
        <pt x="1275" y="453" on="1"/>
        <pt x="1275" y="600" on="0"/>
        <pt x="1145" y="860" on="0"/>
      </contour>
    </TTGlyph>
    <TTGlyph name="glyph00177" xMin="80" yMin="-24" xMax="2840" yMax="1162">
      <contour>
        <pt x="2489" y="639" on="1"/>
        <pt x="2360" y="639" on="0"/>
        <pt x="2279" y="599" on="0"/>
        <pt x="2279" y="552" on="1"/>
        <pt x="2279" y="508" on="0"/>
        <pt x="2360" y="469" on="0"/>
        <pt x="2480" y="469" on="1"/>
        <pt x="2505" y="469" on="1"/>
        <pt x="2684" y="469" on="0"/>
        <pt x="2840" y="350" on="0"/>
        <pt x="2840" y="232" on="1"/>
        <pt x="2840" y="111" on="0"/>
        <pt x="2650" y="-24" on="0"/>
        <pt x="2478" y="-24" on="1"/>
        <pt x="2377" y="-24" on="0"/>
        <pt x="2159" y="19" on="0"/>
        <pt x="2088" y="51" on="1"/>
        <pt x="2151" y="191" on="1"/>
        <pt x="2305" y="121" on="0"/>
        <pt x="2475" y="121" on="1"/>
        <pt x="2671" y="121" on="0"/>
        <pt x="2671" y="227" on="1"/>
        <pt x="2671" y="278" on="0"/>
        <pt x="2600" y="326" on="0"/>
        <pt x="2500" y="326" on="1"/>
        <pt x="2470" y="326" on="1"/>
        <pt x="2263" y="326" on="0"/>
        <pt x="2111" y="442" on="0"/>
        <pt x="2111" y="549" on="1"/>
        <pt x="2111" y="617" on="0"/>
        <pt x="2177" y="715" on="0"/>
        <pt x="2331" y="781" on="0"/>
        <pt x="2474" y="781" on="1"/>
        <pt x="2558" y="781" on="1"/>
        <pt x="2624" y="781" on="0"/>
        <pt x="2667" y="820" on="0"/>
        <pt x="2667" y="866" on="1"/>
        <pt x="2667" y="939" on="0"/>
        <pt x="2516" y="1014" on="0"/>
        <pt x="2375" y="1014" on="1"/>
        <pt x="2215" y="1014" on="0"/>
        <pt x="2008" y="921" on="0"/>
        <pt x="1890" y="708" on="0"/>
        <pt x="1890" y="485" on="1"/>
        <pt x="1890" y="0" on="1"/>
        <pt x="1713" y="0" on="1"/>
        <pt x="1713" y="552" on="1"/>
        <pt x="1713" y="710" on="0"/>
        <pt x="1663" y="876" on="0"/>
        <pt x="1555" y="979" on="0"/>
        <pt x="1427" y="1021" on="0"/>
        <pt x="1323" y="1021" on="1"/>
        <pt x="1232" y="1021" on="0"/>
        <pt x="1170" y="1003" on="1"/>
        <pt x="1306" y="905" on="0"/>
        <pt x="1455" y="615" on="0"/>
        <pt x="1455" y="448" on="1"/>
        <pt x="1455" y="225" on="0"/>
        <pt x="1238" y="-24" on="0"/>
        <pt x="1043" y="-24" on="1"/>
        <pt x="842" y="-24" on="0"/>
        <pt x="621" y="226" on="0"/>
        <pt x="621" y="448" on="1"/>
        <pt x="621" y="617" on="0"/>
        <pt x="763" y="900" on="0"/>
        <pt x="901" y="1001" on="1"/>
        <pt x="829" y="1021" on="0"/>
        <pt x="737" y="1021" on="1"/>
        <pt x="516" y="1021" on="0"/>
        <pt x="262" y="766" on="0"/>
        <pt x="262" y="559" on="1"/>
        <pt x="262" y="263" on="0"/>
        <pt x="511" y="111" on="1"/>
        <pt x="410" y="-18" on="1"/>
        <pt x="253" y="71" on="0"/>
        <pt x="80" y="376" on="0"/>
        <pt x="80" y="567" on="1"/>
        <pt x="80" y="742" on="0"/>
        <pt x="238" y="1015" on="0"/>
        <pt x="527" y="1162" on="0"/>
        <pt x="718" y="1162" on="1"/>
        <pt x="884" y="1162" on="0"/>
        <pt x="1033" y="1096" on="1"/>
        <pt x="1176" y="1162" on="0"/>
        <pt x="1348" y="1162" on="1"/>
        <pt x="1514" y="1162" on="0"/>
        <pt x="1749" y="1038" on="0"/>
        <pt x="1819" y="915" on="1"/>
        <pt x="1895" y="1036" on="0"/>
        <pt x="2179" y="1162" on="0"/>
        <pt x="2377" y="1162" on="1"/>
        <pt x="2588" y="1162" on="0"/>
        <pt x="2840" y="1005" on="0"/>
        <pt x="2840" y="870" on="1"/>
        <pt x="2840" y="789" on="0"/>
        <pt x="2772" y="684" on="0"/>
        <pt x="2657" y="639" on="0"/>
        <pt x="2548" y="639" on="1"/>
      </contour>
      <contour>
        <pt x="1034" y="934" on="1"/>
        <pt x="922" y="858" on="0"/>
        <pt x="800" y="605" on="0"/>
        <pt x="800" y="453" on="1"/>
        <pt x="800" y="287" on="0"/>
        <pt x="921" y="120" on="0"/>
        <pt x="1038" y="120" on="1"/>
        <pt x="1159" y="120" on="0"/>
        <pt x="1275" y="287" on="0"/>
        <pt x="1275" y="453" on="1"/>
        <pt x="1275" y="600" on="0"/>
        <pt x="1145" y="860" on="0"/>
      </contour>
    </TTGlyph>
    <TTGlyph name="glyph00178" xMin="80" yMin="-24" xMax="2948" yMax="1162">
      <contour>
        <pt x="1816" y="921" on="1"/>
        <pt x="1892" y="1041" on="0"/>
        <pt x="2141" y="1162" on="0"/>
        <pt x="2315" y="1162" on="1"/>
        <pt x="2508" y="1162" on="0"/>
        <pt x="2790" y="1037" on="0"/>
        <pt x="2948" y="779" on="0"/>
        <pt x="2948" y="545" on="1"/>
        <pt x="2948" y="0" on="1"/>
        <pt x="1713" y="0" on="1"/>
        <pt x="1713" y="552" on="1"/>
        <pt x="1713" y="710" on="0"/>
        <pt x="1663" y="876" on="0"/>
        <pt x="1555" y="979" on="0"/>
        <pt x="1427" y="1021" on="0"/>
        <pt x="1323" y="1021" on="1"/>
        <pt x="1232" y="1021" on="0"/>
        <pt x="1170" y="1003" on="1"/>
        <pt x="1306" y="905" on="0"/>
        <pt x="1455" y="615" on="0"/>
        <pt x="1455" y="448" on="1"/>
        <pt x="1455" y="225" on="0"/>
        <pt x="1238" y="-24" on="0"/>
        <pt x="1043" y="-24" on="1"/>
        <pt x="842" y="-24" on="0"/>
        <pt x="621" y="226" on="0"/>
        <pt x="621" y="448" on="1"/>
        <pt x="621" y="617" on="0"/>
        <pt x="763" y="900" on="0"/>
        <pt x="901" y="1001" on="1"/>
        <pt x="829" y="1021" on="0"/>
        <pt x="737" y="1021" on="1"/>
        <pt x="516" y="1021" on="0"/>
        <pt x="262" y="766" on="0"/>
        <pt x="262" y="559" on="1"/>
        <pt x="262" y="263" on="0"/>
        <pt x="511" y="111" on="1"/>
        <pt x="410" y="-18" on="1"/>
        <pt x="253" y="71" on="0"/>
        <pt x="80" y="376" on="0"/>
        <pt x="80" y="567" on="1"/>
        <pt x="80" y="742" on="0"/>
        <pt x="238" y="1015" on="0"/>
        <pt x="527" y="1162" on="0"/>
        <pt x="718" y="1162" on="1"/>
        <pt x="884" y="1162" on="0"/>
        <pt x="1033" y="1096" on="1"/>
        <pt x="1176" y="1162" on="0"/>
        <pt x="1348" y="1162" on="1"/>
        <pt x="1512" y="1162" on="0"/>
        <pt x="1746" y="1041" on="0"/>
      </contour>
      <contour>
        <pt x="1890" y="139" on="1"/>
        <pt x="1900" y="139" on="1"/>
        <pt x="2129" y="311" on="0"/>
        <pt x="2380" y="668" on="0"/>
        <pt x="2380" y="823" on="1"/>
        <pt x="2380" y="914" on="0"/>
        <pt x="2297" y="1015" on="0"/>
        <pt x="2218" y="1015" on="1"/>
        <pt x="2078" y="1015" on="0"/>
        <pt x="1890" y="769" on="0"/>
        <pt x="1890" y="509" on="1"/>
      </contour>
      <contour>
        <pt x="2771" y="509" on="1"/>
        <pt x="2771" y="757" on="0"/>
        <pt x="2619" y="971" on="0"/>
        <pt x="2487" y="1005" on="1"/>
        <pt x="2525" y="958" on="0"/>
        <pt x="2556" y="863" on="0"/>
        <pt x="2556" y="804" on="1"/>
        <pt x="2556" y="648" on="0"/>
        <pt x="2361" y="328" on="0"/>
        <pt x="2151" y="138" on="1"/>
        <pt x="2240" y="144" on="0"/>
        <pt x="2327" y="144" on="1"/>
        <pt x="2771" y="144" on="1"/>
      </contour>
      <contour>
        <pt x="1034" y="934" on="1"/>
        <pt x="922" y="858" on="0"/>
        <pt x="800" y="605" on="0"/>
        <pt x="800" y="453" on="1"/>
        <pt x="800" y="287" on="0"/>
        <pt x="921" y="120" on="0"/>
        <pt x="1038" y="120" on="1"/>
        <pt x="1159" y="120" on="0"/>
        <pt x="1275" y="287" on="0"/>
        <pt x="1275" y="453" on="1"/>
        <pt x="1275" y="600" on="0"/>
        <pt x="1145" y="860" on="0"/>
      </contour>
    </TTGlyph>
    <TTGlyph name="glyph00179" xMin="80" yMin="-24" xMax="3294" yMax="1162">
      <contour>
        <pt x="1890" y="0" on="1"/>
        <pt x="1713" y="0" on="1"/>
        <pt x="1713" y="552" on="1"/>
        <pt x="1713" y="710" on="0"/>
        <pt x="1663" y="876" on="0"/>
        <pt x="1555" y="979" on="0"/>
        <pt x="1427" y="1021" on="0"/>
        <pt x="1323" y="1021" on="1"/>
        <pt x="1232" y="1021" on="0"/>
        <pt x="1170" y="1003" on="1"/>
        <pt x="1306" y="905" on="0"/>
        <pt x="1455" y="615" on="0"/>
        <pt x="1455" y="448" on="1"/>
        <pt x="1455" y="225" on="0"/>
        <pt x="1238" y="-24" on="0"/>
        <pt x="1043" y="-24" on="1"/>
        <pt x="842" y="-24" on="0"/>
        <pt x="621" y="226" on="0"/>
        <pt x="621" y="448" on="1"/>
        <pt x="621" y="617" on="0"/>
        <pt x="763" y="900" on="0"/>
        <pt x="901" y="1001" on="1"/>
        <pt x="829" y="1021" on="0"/>
        <pt x="737" y="1021" on="1"/>
        <pt x="516" y="1021" on="0"/>
        <pt x="262" y="766" on="0"/>
        <pt x="262" y="559" on="1"/>
        <pt x="262" y="263" on="0"/>
        <pt x="511" y="111" on="1"/>
        <pt x="410" y="-18" on="1"/>
        <pt x="253" y="71" on="0"/>
        <pt x="80" y="376" on="0"/>
        <pt x="80" y="567" on="1"/>
        <pt x="80" y="742" on="0"/>
        <pt x="238" y="1015" on="0"/>
        <pt x="527" y="1162" on="0"/>
        <pt x="718" y="1162" on="1"/>
        <pt x="884" y="1162" on="0"/>
        <pt x="1033" y="1096" on="1"/>
        <pt x="1176" y="1162" on="0"/>
        <pt x="1348" y="1162" on="1"/>
        <pt x="1494" y="1162" on="0"/>
        <pt x="1712" y="1065" on="0"/>
        <pt x="1785" y="969" on="1"/>
        <pt x="1851" y="1068" on="0"/>
        <pt x="2024" y="1162" on="0"/>
        <pt x="2153" y="1162" on="1"/>
        <pt x="2279" y="1162" on="0"/>
        <pt x="2454" y="1049" on="0"/>
        <pt x="2547" y="843" on="0"/>
        <pt x="2547" y="620" on="1"/>
        <pt x="2547" y="552" on="1"/>
        <pt x="2547" y="392" on="0"/>
        <pt x="2586" y="221" on="0"/>
        <pt x="2706" y="124" on="0"/>
        <pt x="2806" y="124" on="1"/>
        <pt x="2944" y="124" on="0"/>
        <pt x="3114" y="351" on="0"/>
        <pt x="3114" y="544" on="1"/>
        <pt x="3114" y="697" on="0"/>
        <pt x="2989" y="947" on="0"/>
        <pt x="2869" y="1032" on="1"/>
        <pt x="2991" y="1162" on="1"/>
        <pt x="3153" y="1032" on="0"/>
        <pt x="3294" y="736" on="0"/>
        <pt x="3294" y="544" on="1"/>
        <pt x="3294" y="282" on="0"/>
        <pt x="3022" y="-24" on="0"/>
        <pt x="2793" y="-24" on="1"/>
        <pt x="2687" y="-24" on="0"/>
        <pt x="2521" y="42" on="0"/>
        <pt x="2410" y="177" on="0"/>
        <pt x="2368" y="367" on="0"/>
        <pt x="2368" y="532" on="1"/>
        <pt x="2368" y="605" on="1"/>
        <pt x="2368" y="779" on="0"/>
        <pt x="2323" y="934" on="0"/>
        <pt x="2216" y="1015" on="0"/>
        <pt x="2129" y="1015" on="1"/>
        <pt x="2046" y="1015" on="0"/>
        <pt x="1932" y="926" on="0"/>
        <pt x="1890" y="770" on="0"/>
        <pt x="1890" y="633" on="1"/>
      </contour>
      <contour>
        <pt x="1034" y="934" on="1"/>
        <pt x="922" y="858" on="0"/>
        <pt x="800" y="605" on="0"/>
        <pt x="800" y="453" on="1"/>
        <pt x="800" y="287" on="0"/>
        <pt x="921" y="120" on="0"/>
        <pt x="1038" y="120" on="1"/>
        <pt x="1159" y="120" on="0"/>
        <pt x="1275" y="287" on="0"/>
        <pt x="1275" y="453" on="1"/>
        <pt x="1275" y="600" on="0"/>
        <pt x="1145" y="860" on="0"/>
      </contour>
    </TTGlyph>
    <TTGlyph name="glyph00180" xMin="80" yMin="-24" xMax="3523" yMax="1162">
      <contour>
        <pt x="1805" y="939" on="1"/>
        <pt x="1876" y="1050" on="0"/>
        <pt x="2104" y="1162" on="0"/>
        <pt x="2261" y="1162" on="1"/>
        <pt x="2441" y="1162" on="0"/>
        <pt x="2578" y="1096" on="1"/>
        <pt x="2724" y="1162" on="0"/>
        <pt x="2915" y="1162" on="1"/>
        <pt x="3101" y="1162" on="0"/>
        <pt x="3376" y="1017" on="0"/>
        <pt x="3523" y="748" on="0"/>
        <pt x="3523" y="575" on="1"/>
        <pt x="3523" y="191" on="0"/>
        <pt x="3193" y="-18" on="1"/>
        <pt x="3092" y="111" on="1"/>
        <pt x="3215" y="186" on="0"/>
        <pt x="3341" y="411" on="0"/>
        <pt x="3341" y="554" on="1"/>
        <pt x="3341" y="689" on="0"/>
        <pt x="3233" y="905" on="0"/>
        <pt x="3031" y="1021" on="0"/>
        <pt x="2895" y="1021" on="1"/>
        <pt x="2787" y="1021" on="0"/>
        <pt x="2712" y="1001" on="1"/>
        <pt x="2841" y="903" on="0"/>
        <pt x="2982" y="616" on="0"/>
        <pt x="2982" y="448" on="1"/>
        <pt x="2982" y="225" on="0"/>
        <pt x="2763" y="-24" on="0"/>
        <pt x="2565" y="-24" on="1"/>
        <pt x="2368" y="-24" on="0"/>
        <pt x="2147" y="226" on="0"/>
        <pt x="2147" y="448" on="1"/>
        <pt x="2147" y="619" on="0"/>
        <pt x="2298" y="903" on="0"/>
        <pt x="2441" y="1002" on="1"/>
        <pt x="2376" y="1021" on="0"/>
        <pt x="2285" y="1021" on="1"/>
        <pt x="2128" y="1021" on="0"/>
        <pt x="1965" y="912" on="0"/>
        <pt x="1890" y="738" on="0"/>
        <pt x="1890" y="548" on="1"/>
        <pt x="1890" y="0" on="1"/>
        <pt x="1713" y="0" on="1"/>
        <pt x="1713" y="552" on="1"/>
        <pt x="1713" y="710" on="0"/>
        <pt x="1663" y="876" on="0"/>
        <pt x="1555" y="979" on="0"/>
        <pt x="1427" y="1021" on="0"/>
        <pt x="1323" y="1021" on="1"/>
        <pt x="1232" y="1021" on="0"/>
        <pt x="1170" y="1003" on="1"/>
        <pt x="1306" y="905" on="0"/>
        <pt x="1455" y="615" on="0"/>
        <pt x="1455" y="448" on="1"/>
        <pt x="1455" y="225" on="0"/>
        <pt x="1238" y="-24" on="0"/>
        <pt x="1043" y="-24" on="1"/>
        <pt x="842" y="-24" on="0"/>
        <pt x="621" y="226" on="0"/>
        <pt x="621" y="448" on="1"/>
        <pt x="621" y="617" on="0"/>
        <pt x="763" y="900" on="0"/>
        <pt x="901" y="1001" on="1"/>
        <pt x="829" y="1021" on="0"/>
        <pt x="737" y="1021" on="1"/>
        <pt x="516" y="1021" on="0"/>
        <pt x="262" y="766" on="0"/>
        <pt x="262" y="559" on="1"/>
        <pt x="262" y="263" on="0"/>
        <pt x="511" y="111" on="1"/>
        <pt x="410" y="-18" on="1"/>
        <pt x="253" y="71" on="0"/>
        <pt x="80" y="376" on="0"/>
        <pt x="80" y="567" on="1"/>
        <pt x="80" y="742" on="0"/>
        <pt x="238" y="1015" on="0"/>
        <pt x="527" y="1162" on="0"/>
        <pt x="718" y="1162" on="1"/>
        <pt x="884" y="1162" on="0"/>
        <pt x="1033" y="1096" on="1"/>
        <pt x="1176" y="1162" on="0"/>
        <pt x="1348" y="1162" on="1"/>
        <pt x="1505" y="1162" on="0"/>
        <pt x="1733" y="1050" on="0"/>
      </contour>
      <contour>
        <pt x="2575" y="937" on="1"/>
        <pt x="2460" y="864" on="0"/>
        <pt x="2327" y="608" on="0"/>
        <pt x="2327" y="453" on="1"/>
        <pt x="2327" y="287" on="0"/>
        <pt x="2448" y="120" on="0"/>
        <pt x="2565" y="120" on="1"/>
        <pt x="2802" y="120" on="0"/>
        <pt x="2802" y="453" on="1"/>
        <pt x="2802" y="604" on="0"/>
        <pt x="2683" y="863" on="0"/>
      </contour>
      <contour>
        <pt x="1034" y="934" on="1"/>
        <pt x="922" y="858" on="0"/>
        <pt x="800" y="605" on="0"/>
        <pt x="800" y="453" on="1"/>
        <pt x="800" y="287" on="0"/>
        <pt x="921" y="120" on="0"/>
        <pt x="1038" y="120" on="1"/>
        <pt x="1159" y="120" on="0"/>
        <pt x="1275" y="287" on="0"/>
        <pt x="1275" y="453" on="1"/>
        <pt x="1275" y="600" on="0"/>
        <pt x="1145" y="860" on="0"/>
      </contour>
    </TTGlyph>
    <TTGlyph name="glyph00181" xMin="80" yMin="-690" xMax="3523" yMax="1162">
      <contour>
        <pt x="2247" y="-225" on="1"/>
        <pt x="2332" y="-173" on="0"/>
        <pt x="2419" y="-173" on="1"/>
        <pt x="2536" y="-173" on="0"/>
        <pt x="2670" y="-314" on="0"/>
        <pt x="2670" y="-430" on="1"/>
        <pt x="2670" y="-550" on="0"/>
        <pt x="2519" y="-690" on="0"/>
        <pt x="2385" y="-690" on="1"/>
        <pt x="2248" y="-690" on="0"/>
        <pt x="2089" y="-493" on="0"/>
        <pt x="2089" y="-325" on="1"/>
        <pt x="2089" y="-193" on="0"/>
        <pt x="2202" y="7" on="0"/>
        <pt x="2310" y="60" on="1"/>
        <pt x="2228" y="115" on="0"/>
        <pt x="2147" y="309" on="0"/>
        <pt x="2147" y="448" on="1"/>
        <pt x="2147" y="619" on="0"/>
        <pt x="2298" y="903" on="0"/>
        <pt x="2441" y="1002" on="1"/>
        <pt x="2376" y="1021" on="0"/>
        <pt x="2285" y="1021" on="1"/>
        <pt x="2128" y="1021" on="0"/>
        <pt x="1965" y="912" on="0"/>
        <pt x="1890" y="738" on="0"/>
        <pt x="1890" y="548" on="1"/>
        <pt x="1890" y="0" on="1"/>
        <pt x="1713" y="0" on="1"/>
        <pt x="1713" y="552" on="1"/>
        <pt x="1713" y="710" on="0"/>
        <pt x="1663" y="876" on="0"/>
        <pt x="1555" y="979" on="0"/>
        <pt x="1427" y="1021" on="0"/>
        <pt x="1323" y="1021" on="1"/>
        <pt x="1232" y="1021" on="0"/>
        <pt x="1170" y="1003" on="1"/>
        <pt x="1306" y="905" on="0"/>
        <pt x="1455" y="615" on="0"/>
        <pt x="1455" y="448" on="1"/>
        <pt x="1455" y="225" on="0"/>
        <pt x="1238" y="-24" on="0"/>
        <pt x="1043" y="-24" on="1"/>
        <pt x="842" y="-24" on="0"/>
        <pt x="621" y="226" on="0"/>
        <pt x="621" y="448" on="1"/>
        <pt x="621" y="617" on="0"/>
        <pt x="763" y="900" on="0"/>
        <pt x="901" y="1001" on="1"/>
        <pt x="829" y="1021" on="0"/>
        <pt x="737" y="1021" on="1"/>
        <pt x="516" y="1021" on="0"/>
        <pt x="262" y="766" on="0"/>
        <pt x="262" y="559" on="1"/>
        <pt x="262" y="263" on="0"/>
        <pt x="511" y="111" on="1"/>
        <pt x="410" y="-18" on="1"/>
        <pt x="253" y="71" on="0"/>
        <pt x="80" y="376" on="0"/>
        <pt x="80" y="567" on="1"/>
        <pt x="80" y="742" on="0"/>
        <pt x="238" y="1015" on="0"/>
        <pt x="527" y="1162" on="0"/>
        <pt x="718" y="1162" on="1"/>
        <pt x="884" y="1162" on="0"/>
        <pt x="1033" y="1096" on="1"/>
        <pt x="1176" y="1162" on="0"/>
        <pt x="1348" y="1162" on="1"/>
        <pt x="1505" y="1162" on="0"/>
        <pt x="1733" y="1050" on="0"/>
        <pt x="1805" y="939" on="1"/>
        <pt x="1876" y="1050" on="0"/>
        <pt x="2104" y="1162" on="0"/>
        <pt x="2261" y="1162" on="1"/>
        <pt x="2441" y="1162" on="0"/>
        <pt x="2578" y="1096" on="1"/>
        <pt x="2724" y="1162" on="0"/>
        <pt x="2915" y="1162" on="1"/>
        <pt x="3101" y="1162" on="0"/>
        <pt x="3376" y="1017" on="0"/>
        <pt x="3523" y="748" on="0"/>
        <pt x="3523" y="575" on="1"/>
        <pt x="3523" y="421" on="0"/>
        <pt x="3417" y="170" on="0"/>
        <pt x="3312" y="73" on="1"/>
        <pt x="3480" y="-85" on="0"/>
        <pt x="3480" y="-304" on="1"/>
        <pt x="3480" y="-477" on="0"/>
        <pt x="3284" y="-690" on="0"/>
        <pt x="3117" y="-690" on="1"/>
        <pt x="2968" y="-690" on="0"/>
        <pt x="2776" y="-514" on="0"/>
        <pt x="2776" y="-314" on="1"/>
        <pt x="2776" y="-312" on="1"/>
        <pt x="2776" y="-148" on="0"/>
        <pt x="2653" y="-12" on="0"/>
        <pt x="2527" y="-12" on="1"/>
        <pt x="2419" y="-12" on="0"/>
        <pt x="2271" y="-122" on="0"/>
      </contour>
      <contour>
        <pt x="2712" y="1001" on="1"/>
        <pt x="2841" y="903" on="0"/>
        <pt x="2982" y="616" on="0"/>
        <pt x="2982" y="448" on="1"/>
        <pt x="2982" y="296" on="0"/>
        <pt x="2884" y="92" on="0"/>
        <pt x="2787" y="40" on="1"/>
        <pt x="2799" y="32" on="1"/>
        <pt x="2866" y="-10" on="0"/>
        <pt x="2938" y="-167" on="0"/>
        <pt x="2938" y="-297" on="1"/>
        <pt x="2938" y="-310" on="1"/>
        <pt x="2938" y="-455" on="0"/>
        <pt x="3034" y="-553" on="0"/>
        <pt x="3116" y="-553" on="1"/>
        <pt x="3209" y="-553" on="0"/>
        <pt x="3320" y="-424" on="0"/>
        <pt x="3320" y="-313" on="1"/>
        <pt x="3320" y="-134" on="0"/>
        <pt x="3193" y="-18" on="1"/>
        <pt x="3092" y="111" on="1"/>
        <pt x="3215" y="186" on="0"/>
        <pt x="3341" y="411" on="0"/>
        <pt x="3341" y="554" on="1"/>
        <pt x="3341" y="689" on="0"/>
        <pt x="3233" y="905" on="0"/>
        <pt x="3031" y="1021" on="0"/>
        <pt x="2895" y="1021" on="1"/>
        <pt x="2787" y="1021" on="0"/>
      </contour>
      <contour>
        <pt x="2575" y="937" on="1"/>
        <pt x="2460" y="864" on="0"/>
        <pt x="2327" y="608" on="0"/>
        <pt x="2327" y="453" on="1"/>
        <pt x="2327" y="287" on="0"/>
        <pt x="2448" y="120" on="0"/>
        <pt x="2565" y="120" on="1"/>
        <pt x="2802" y="120" on="0"/>
        <pt x="2802" y="453" on="1"/>
        <pt x="2802" y="604" on="0"/>
        <pt x="2683" y="863" on="0"/>
      </contour>
      <contour>
        <pt x="1034" y="934" on="1"/>
        <pt x="922" y="858" on="0"/>
        <pt x="800" y="605" on="0"/>
        <pt x="800" y="453" on="1"/>
        <pt x="800" y="287" on="0"/>
        <pt x="921" y="120" on="0"/>
        <pt x="1038" y="120" on="1"/>
        <pt x="1159" y="120" on="0"/>
        <pt x="1275" y="287" on="0"/>
        <pt x="1275" y="453" on="1"/>
        <pt x="1275" y="600" on="0"/>
        <pt x="1145" y="860" on="0"/>
      </contour>
      <contour>
        <pt x="2236" y="-351" on="1"/>
        <pt x="2239" y="-457" on="0"/>
        <pt x="2320" y="-569" on="0"/>
        <pt x="2390" y="-569" on="1"/>
        <pt x="2525" y="-569" on="0"/>
        <pt x="2525" y="-429" on="1"/>
        <pt x="2525" y="-367" on="0"/>
        <pt x="2454" y="-295" on="0"/>
        <pt x="2394" y="-295" on="1"/>
        <pt x="2314" y="-295" on="0"/>
      </contour>
    </TTGlyph>
    <TTGlyph name="glyph00182" xMin="80" yMin="-24" xMax="3318" yMax="1162">
      <contour>
        <pt x="3318" y="0" on="1"/>
        <pt x="1665" y="0" on="1"/>
        <pt x="1591" y="111" on="1"/>
        <pt x="1715" y="212" on="0"/>
        <pt x="1815" y="421" on="0"/>
        <pt x="1815" y="554" on="1"/>
        <pt x="1815" y="689" on="0"/>
        <pt x="1706" y="904" on="0"/>
        <pt x="1503" y="1021" on="0"/>
        <pt x="1368" y="1021" on="1"/>
        <pt x="1247" y="1021" on="0"/>
        <pt x="1177" y="1000" on="1"/>
        <pt x="1310" y="902" on="0"/>
        <pt x="1456" y="615" on="0"/>
        <pt x="1456" y="448" on="1"/>
        <pt x="1456" y="225" on="0"/>
        <pt x="1237" y="-24" on="0"/>
        <pt x="1039" y="-24" on="1"/>
        <pt x="843" y="-24" on="0"/>
        <pt x="621" y="226" on="0"/>
        <pt x="621" y="448" on="1"/>
        <pt x="621" y="614" on="0"/>
        <pt x="767" y="896" on="0"/>
        <pt x="908" y="999" on="1"/>
        <pt x="833" y="1021" on="0"/>
        <pt x="736" y="1021" on="1"/>
        <pt x="593" y="1021" on="0"/>
        <pt x="378" y="909" on="0"/>
        <pt x="262" y="696" on="0"/>
        <pt x="262" y="559" on="1"/>
        <pt x="262" y="263" on="0"/>
        <pt x="511" y="111" on="1"/>
        <pt x="410" y="-18" on="1"/>
        <pt x="253" y="71" on="0"/>
        <pt x="80" y="376" on="0"/>
        <pt x="80" y="567" on="1"/>
        <pt x="80" y="743" on="0"/>
        <pt x="240" y="1016" on="0"/>
        <pt x="528" y="1162" on="0"/>
        <pt x="718" y="1162" on="1"/>
        <pt x="894" y="1162" on="0"/>
        <pt x="1041" y="1091" on="1"/>
        <pt x="1188" y="1162" on="0"/>
        <pt x="1389" y="1162" on="1"/>
        <pt x="1575" y="1162" on="0"/>
        <pt x="1850" y="1017" on="0"/>
        <pt x="1997" y="748" on="0"/>
        <pt x="1997" y="575" on="1"/>
        <pt x="1997" y="318" on="0"/>
        <pt x="1842" y="144" on="1"/>
        <pt x="2308" y="144" on="1"/>
        <pt x="2308" y="625" on="1"/>
        <pt x="2308" y="773" on="0"/>
        <pt x="2371" y="960" on="0"/>
        <pt x="2503" y="1092" on="0"/>
        <pt x="2689" y="1162" on="0"/>
        <pt x="2806" y="1162" on="1"/>
        <pt x="2978" y="1162" on="0"/>
        <pt x="3210" y="1032" on="0"/>
        <pt x="3318" y="810" on="0"/>
        <pt x="3318" y="625" on="1"/>
      </contour>
      <contour>
        <pt x="3141" y="558" on="1"/>
        <pt x="3141" y="720" on="0"/>
        <pt x="3083" y="912" on="0"/>
        <pt x="2927" y="1014" on="0"/>
        <pt x="2810" y="1014" on="1"/>
        <pt x="2695" y="1014" on="0"/>
        <pt x="2546" y="913" on="0"/>
        <pt x="2485" y="729" on="0"/>
        <pt x="2485" y="574" on="1"/>
        <pt x="2485" y="144" on="1"/>
        <pt x="3141" y="144" on="1"/>
      </contour>
      <contour>
        <pt x="1041" y="932" on="1"/>
        <pt x="928" y="858" on="0"/>
        <pt x="801" y="606" on="0"/>
        <pt x="801" y="453" on="1"/>
        <pt x="801" y="287" on="0"/>
        <pt x="922" y="120" on="0"/>
        <pt x="1039" y="120" on="1"/>
        <pt x="1276" y="120" on="0"/>
        <pt x="1276" y="453" on="1"/>
        <pt x="1276" y="597" on="0"/>
        <pt x="1149" y="856" on="0"/>
      </contour>
    </TTGlyph>
    <TTGlyph name="glyph00183" xMin="80" yMin="-690" xMax="1997" yMax="1162">
      <contour>
        <pt x="511" y="111" on="1"/>
        <pt x="410" y="-18" on="1"/>
        <pt x="253" y="71" on="0"/>
        <pt x="80" y="376" on="0"/>
        <pt x="80" y="567" on="1"/>
        <pt x="80" y="743" on="0"/>
        <pt x="240" y="1016" on="0"/>
        <pt x="528" y="1162" on="0"/>
        <pt x="718" y="1162" on="1"/>
        <pt x="894" y="1162" on="0"/>
        <pt x="1041" y="1091" on="1"/>
        <pt x="1189" y="1162" on="0"/>
        <pt x="1389" y="1162" on="1"/>
        <pt x="1575" y="1162" on="0"/>
        <pt x="1850" y="1017" on="0"/>
        <pt x="1997" y="748" on="0"/>
        <pt x="1997" y="575" on="1"/>
        <pt x="1997" y="268" on="0"/>
        <pt x="1786" y="73" on="1"/>
        <pt x="1954" y="-85" on="0"/>
        <pt x="1954" y="-304" on="1"/>
        <pt x="1954" y="-477" on="0"/>
        <pt x="1758" y="-690" on="0"/>
        <pt x="1591" y="-690" on="1"/>
        <pt x="1442" y="-690" on="0"/>
        <pt x="1250" y="-514" on="0"/>
        <pt x="1250" y="-314" on="1"/>
        <pt x="1250" y="-312" on="1"/>
        <pt x="1250" y="-148" on="0"/>
        <pt x="1127" y="-12" on="0"/>
        <pt x="1001" y="-12" on="1"/>
        <pt x="893" y="-12" on="0"/>
        <pt x="745" y="-122" on="0"/>
        <pt x="721" y="-225" on="1"/>
        <pt x="806" y="-173" on="0"/>
        <pt x="893" y="-173" on="1"/>
        <pt x="1010" y="-173" on="0"/>
        <pt x="1144" y="-314" on="0"/>
        <pt x="1144" y="-430" on="1"/>
        <pt x="1144" y="-550" on="0"/>
        <pt x="993" y="-690" on="0"/>
        <pt x="859" y="-690" on="1"/>
        <pt x="722" y="-690" on="0"/>
        <pt x="563" y="-493" on="0"/>
        <pt x="563" y="-325" on="1"/>
        <pt x="563" y="-193" on="0"/>
        <pt x="676" y="7" on="0"/>
        <pt x="784" y="60" on="1"/>
        <pt x="702" y="115" on="0"/>
        <pt x="621" y="309" on="0"/>
        <pt x="621" y="448" on="1"/>
        <pt x="621" y="614" on="0"/>
        <pt x="767" y="896" on="0"/>
        <pt x="908" y="999" on="1"/>
        <pt x="833" y="1021" on="0"/>
        <pt x="736" y="1021" on="1"/>
        <pt x="593" y="1021" on="0"/>
        <pt x="378" y="909" on="0"/>
        <pt x="262" y="696" on="0"/>
        <pt x="262" y="559" on="1"/>
        <pt x="262" y="263" on="0"/>
      </contour>
      <contour>
        <pt x="1667" y="-18" on="1"/>
        <pt x="1566" y="111" on="1"/>
        <pt x="1689" y="186" on="0"/>
        <pt x="1815" y="411" on="0"/>
        <pt x="1815" y="554" on="1"/>
        <pt x="1815" y="689" on="0"/>
        <pt x="1706" y="904" on="0"/>
        <pt x="1503" y="1021" on="0"/>
        <pt x="1368" y="1021" on="1"/>
        <pt x="1249" y="1021" on="0"/>
        <pt x="1176" y="999" on="1"/>
        <pt x="1312" y="900" on="0"/>
        <pt x="1456" y="611" on="0"/>
        <pt x="1456" y="448" on="1"/>
        <pt x="1456" y="296" on="0"/>
        <pt x="1358" y="92" on="0"/>
        <pt x="1261" y="40" on="1"/>
        <pt x="1273" y="32" on="1"/>
        <pt x="1340" y="-10" on="0"/>
        <pt x="1412" y="-167" on="0"/>
        <pt x="1412" y="-297" on="1"/>
        <pt x="1412" y="-310" on="1"/>
        <pt x="1412" y="-455" on="0"/>
        <pt x="1508" y="-553" on="0"/>
        <pt x="1590" y="-553" on="1"/>
        <pt x="1683" y="-553" on="0"/>
        <pt x="1794" y="-424" on="0"/>
        <pt x="1794" y="-313" on="1"/>
        <pt x="1794" y="-134" on="0"/>
      </contour>
      <contour>
        <pt x="1041" y="932" on="1"/>
        <pt x="928" y="858" on="0"/>
        <pt x="801" y="606" on="0"/>
        <pt x="801" y="453" on="1"/>
        <pt x="801" y="287" on="0"/>
        <pt x="922" y="120" on="0"/>
        <pt x="1039" y="120" on="1"/>
        <pt x="1276" y="120" on="0"/>
        <pt x="1276" y="453" on="1"/>
        <pt x="1276" y="597" on="0"/>
        <pt x="1149" y="856" on="0"/>
      </contour>
      <contour>
        <pt x="710" y="-351" on="1"/>
        <pt x="713" y="-457" on="0"/>
        <pt x="794" y="-569" on="0"/>
        <pt x="864" y="-569" on="1"/>
        <pt x="999" y="-569" on="0"/>
        <pt x="999" y="-429" on="1"/>
        <pt x="999" y="-367" on="0"/>
        <pt x="928" y="-295" on="0"/>
        <pt x="868" y="-295" on="1"/>
        <pt x="788" y="-295" on="0"/>
      </contour>
    </TTGlyph>
    <TTGlyph name="glyph00184" xMin="110" yMin="-504" xMax="1236" yMax="1162">
      <contour>
        <pt x="959" y="5" on="1"/>
        <pt x="924" y="0" on="0"/>
        <pt x="870" y="0" on="1"/>
        <pt x="646" y="0" on="1"/>
        <pt x="646" y="144" on="1"/>
        <pt x="802" y="144" on="1"/>
        <pt x="902" y="144" on="0"/>
        <pt x="1006" y="172" on="0"/>
        <pt x="1059" y="247" on="0"/>
        <pt x="1059" y="307" on="1"/>
        <pt x="1059" y="358" on="0"/>
        <pt x="1004" y="437" on="0"/>
        <pt x="892" y="490" on="0"/>
        <pt x="757" y="490" on="1"/>
        <pt x="663" y="490" on="1"/>
        <pt x="663" y="634" on="1"/>
        <pt x="756" y="634" on="1"/>
        <pt x="1037" y="634" on="0"/>
        <pt x="1037" y="826" on="1"/>
        <pt x="1037" y="916" on="0"/>
        <pt x="896" y="1014" on="0"/>
        <pt x="763" y="1014" on="1"/>
        <pt x="537" y="1014" on="0"/>
        <pt x="291" y="712" on="0"/>
        <pt x="291" y="445" on="1"/>
        <pt x="291" y="205" on="0"/>
        <pt x="342" y="19" on="1"/>
        <pt x="174" y="-9" on="1"/>
        <pt x="145" y="84" on="0"/>
        <pt x="110" y="336" on="0"/>
        <pt x="110" y="449" on="1"/>
        <pt x="110" y="782" on="0"/>
        <pt x="454" y="1162" on="0"/>
        <pt x="767" y="1162" on="1"/>
        <pt x="974" y="1162" on="0"/>
        <pt x="1214" y="983" on="0"/>
        <pt x="1214" y="841" on="1"/>
        <pt x="1214" y="743" on="0"/>
        <pt x="1120" y="611" on="0"/>
        <pt x="1019" y="567" on="1"/>
        <pt x="1123" y="534" on="0"/>
        <pt x="1236" y="398" on="0"/>
        <pt x="1236" y="306" on="1"/>
        <pt x="1236" y="231" on="0"/>
        <pt x="1181" y="115" on="0"/>
        <pt x="1127" y="74" on="1"/>
        <pt x="1236" y="-19" on="0"/>
        <pt x="1236" y="-163" on="1"/>
        <pt x="1236" y="-323" on="0"/>
        <pt x="1022" y="-504" on="0"/>
        <pt x="829" y="-504" on="1"/>
        <pt x="671" y="-504" on="0"/>
        <pt x="446" y="-449" on="0"/>
        <pt x="304" y="-383" on="1"/>
        <pt x="399" y="-245" on="1"/>
        <pt x="523" y="-307" on="0"/>
        <pt x="719" y="-354" on="0"/>
        <pt x="825" y="-354" on="1"/>
        <pt x="939" y="-354" on="0"/>
        <pt x="1061" y="-253" on="0"/>
        <pt x="1061" y="-165" on="1"/>
        <pt x="1061" y="-117" on="0"/>
        <pt x="1009" y="-28" on="0"/>
      </contour>
    </TTGlyph>
    <TTGlyph name="glyph00185" xMin="110" yMin="-24" xMax="2348" yMax="1162">
      <contour>
        <pt x="342" y="19" on="1"/>
        <pt x="174" y="-9" on="1"/>
        <pt x="145" y="84" on="0"/>
        <pt x="110" y="336" on="0"/>
        <pt x="110" y="449" on="1"/>
        <pt x="110" y="785" on="0"/>
        <pt x="458" y="1162" on="0"/>
        <pt x="779" y="1162" on="1"/>
        <pt x="974" y="1162" on="0"/>
        <pt x="1186" y="1028" on="0"/>
        <pt x="1186" y="911" on="1"/>
        <pt x="1186" y="836" on="0"/>
        <pt x="1103" y="723" on="0"/>
        <pt x="1028" y="698" on="1"/>
        <pt x="1115" y="674" on="0"/>
        <pt x="1208" y="567" on="0"/>
        <pt x="1208" y="497" on="1"/>
        <pt x="1208" y="416" on="0"/>
        <pt x="1133" y="320" on="0"/>
        <pt x="1004" y="274" on="0"/>
        <pt x="874" y="274" on="1"/>
        <pt x="861" y="274" on="1"/>
        <pt x="815" y="274" on="0"/>
        <pt x="783" y="249" on="0"/>
        <pt x="783" y="227" on="1"/>
        <pt x="783" y="176" on="0"/>
        <pt x="900" y="118" on="0"/>
        <pt x="1001" y="118" on="1"/>
        <pt x="1131" y="118" on="0"/>
        <pt x="1317" y="220" on="0"/>
        <pt x="1407" y="407" on="0"/>
        <pt x="1407" y="586" on="1"/>
        <pt x="1407" y="1134" on="1"/>
        <pt x="1584" y="1134" on="1"/>
        <pt x="1584" y="541" on="1"/>
        <pt x="1584" y="423" on="0"/>
        <pt x="1602" y="292" on="0"/>
        <pt x="1662" y="187" on="0"/>
        <pt x="1768" y="124" on="0"/>
        <pt x="1846" y="124" on="1"/>
        <pt x="1935" y="124" on="0"/>
        <pt x="2083" y="228" on="0"/>
        <pt x="2168" y="424" on="0"/>
        <pt x="2168" y="544" on="1"/>
        <pt x="2168" y="858" on="0"/>
        <pt x="1923" y="1032" on="1"/>
        <pt x="2045" y="1162" on="1"/>
        <pt x="2207" y="1032" on="0"/>
        <pt x="2348" y="735" on="0"/>
        <pt x="2348" y="544" on="1"/>
        <pt x="2348" y="380" on="0"/>
        <pt x="2223" y="121" on="0"/>
        <pt x="1991" y="-24" on="0"/>
        <pt x="1838" y="-24" on="1"/>
        <pt x="1714" y="-24" on="0"/>
        <pt x="1532" y="82" on="0"/>
        <pt x="1475" y="189" on="1"/>
        <pt x="1398" y="82" on="0"/>
        <pt x="1161" y="-24" on="0"/>
        <pt x="1000" y="-24" on="1"/>
        <pt x="819" y="-24" on="0"/>
        <pt x="616" y="117" on="0"/>
        <pt x="616" y="226" on="1"/>
        <pt x="616" y="286" on="0"/>
        <pt x="675" y="375" on="0"/>
        <pt x="785" y="414" on="0"/>
        <pt x="893" y="414" on="1"/>
        <pt x="900" y="414" on="1"/>
        <pt x="978" y="414" on="0"/>
        <pt x="1040" y="459" on="0"/>
        <pt x="1040" y="510" on="1"/>
        <pt x="1040" y="564" on="0"/>
        <pt x="960" y="624" on="0"/>
        <pt x="823" y="624" on="1"/>
        <pt x="702" y="624" on="1"/>
        <pt x="702" y="764" on="1"/>
        <pt x="810" y="764" on="1"/>
        <pt x="888" y="764" on="0"/>
        <pt x="970" y="781" on="0"/>
        <pt x="1016" y="837" on="0"/>
        <pt x="1016" y="883" on="1"/>
        <pt x="1016" y="947" on="0"/>
        <pt x="893" y="1018" on="0"/>
        <pt x="777" y="1018" on="1"/>
        <pt x="545" y="1018" on="0"/>
        <pt x="291" y="713" on="0"/>
        <pt x="291" y="445" on="1"/>
        <pt x="291" y="205" on="0"/>
      </contour>
    </TTGlyph>
    <TTGlyph name="glyph00186" xMin="80" yMin="-23" xMax="1874" yMax="1162">
      <contour>
        <pt x="959" y="946" on="1"/>
        <pt x="1037" y="1055" on="0"/>
        <pt x="1277" y="1162" on="0"/>
        <pt x="1418" y="1162" on="1"/>
        <pt x="1618" y="1162" on="0"/>
        <pt x="1852" y="986" on="0"/>
        <pt x="1852" y="841" on="1"/>
        <pt x="1852" y="743" on="0"/>
        <pt x="1757" y="610" on="0"/>
        <pt x="1657" y="567" on="1"/>
        <pt x="1763" y="530" on="0"/>
        <pt x="1874" y="386" on="0"/>
        <pt x="1874" y="292" on="1"/>
        <pt x="1874" y="143" on="0"/>
        <pt x="1681" y="-23" on="0"/>
        <pt x="1508" y="-23" on="1"/>
        <pt x="1410" y="-23" on="0"/>
        <pt x="1306" y="0" on="1"/>
        <pt x="1343" y="141" on="1"/>
        <pt x="1424" y="121" on="0"/>
        <pt x="1488" y="121" on="1"/>
        <pt x="1595" y="121" on="0"/>
        <pt x="1697" y="207" on="0"/>
        <pt x="1697" y="295" on="1"/>
        <pt x="1697" y="354" on="0"/>
        <pt x="1633" y="442" on="0"/>
        <pt x="1518" y="490" on="0"/>
        <pt x="1395" y="490" on="1"/>
        <pt x="1341" y="490" on="1"/>
        <pt x="1341" y="634" on="1"/>
        <pt x="1394" y="634" on="1"/>
        <pt x="1536" y="634" on="0"/>
        <pt x="1675" y="729" on="0"/>
        <pt x="1675" y="826" on="1"/>
        <pt x="1675" y="917" on="0"/>
        <pt x="1545" y="1014" on="0"/>
        <pt x="1422" y="1014" on="1"/>
        <pt x="1291" y="1014" on="0"/>
        <pt x="1114" y="911" on="0"/>
        <pt x="1021" y="716" on="0"/>
        <pt x="1021" y="495" on="1"/>
        <pt x="1021" y="0" on="1"/>
        <pt x="844" y="0" on="1"/>
        <pt x="844" y="597" on="1"/>
        <pt x="844" y="713" on="0"/>
        <pt x="826" y="845" on="0"/>
        <pt x="767" y="951" on="0"/>
        <pt x="660" y="1014" on="0"/>
        <pt x="582" y="1014" on="1"/>
        <pt x="443" y="1014" on="0"/>
        <pt x="260" y="777" on="0"/>
        <pt x="260" y="597" on="1"/>
        <pt x="260" y="282" on="0"/>
        <pt x="505" y="112" on="1"/>
        <pt x="388" y="-17" on="1"/>
        <pt x="226" y="111" on="0"/>
        <pt x="80" y="406" on="0"/>
        <pt x="80" y="597" on="1"/>
        <pt x="80" y="763" on="0"/>
        <pt x="208" y="1022" on="0"/>
        <pt x="440" y="1162" on="0"/>
        <pt x="590" y="1162" on="1"/>
        <pt x="711" y="1162" on="0"/>
        <pt x="899" y="1052" on="0"/>
      </contour>
    </TTGlyph>
</ttFont>
